<svg width="482" height="482" viewBox="0 0 482 482" fill="none" xmlns="http://www.w3.org/2000/svg">
<path d="M245.27 451.123C363.708 451.123 459.721 395.689 459.721 327.307C459.721 258.925 363.708 203.491 245.27 203.491C126.832 203.491 30.8185 258.925 30.8185 327.307C30.8185 395.689 126.832 451.123 245.27 451.123Z" fill="#F5F5F5"/>
<path d="M67.5583 372.374L81.8447 380.568C82.5908 380.95 83.4168 381.149 84.2547 381.149C85.0927 381.149 85.9187 380.95 86.6647 380.568L199.318 315.498C200.638 314.736 200.638 313.502 199.318 312.751L184.858 304.624C184.111 304.246 183.285 304.049 182.448 304.049C181.61 304.049 180.785 304.246 180.038 304.624L67.5583 369.617C66.2376 370.378 66.2376 371.612 67.5583 372.374Z" fill="#E0E0E0"/>
<path d="M423.737 372.374L409.451 380.568C408.704 380.948 407.878 381.146 407.041 381.146C406.203 381.146 405.377 380.948 404.631 380.568L291.977 315.498C290.657 314.736 290.666 313.502 291.977 312.751L306.437 304.624C307.185 304.246 308.01 304.049 308.847 304.049C309.685 304.049 310.51 304.246 311.257 304.624L423.737 369.598C425.058 370.378 425.058 371.612 423.737 372.374Z" fill="#E0E0E0"/>
<path d="M410.609 331.847C410.609 331.847 411.303 317.243 417.781 305.511C424.259 293.779 433.697 286.115 442.893 284.775C452.09 283.435 460.12 291.446 450.605 297.943C441.091 304.441 423.912 311.546 417.27 333.93L410.609 331.847Z" fill="#F5EF0D"/>
<g opacity="0.2">
<path d="M410.609 331.847C410.609 331.847 411.303 317.243 417.781 305.511C424.259 293.779 433.697 286.115 442.893 284.775C452.09 283.435 460.12 291.446 450.605 297.943C441.091 304.441 423.912 311.546 417.27 333.93L410.609 331.847Z" fill="black"/>
</g>
<path d="M413.077 327.904H412.971C412.909 327.884 412.852 327.851 412.804 327.808C412.755 327.766 412.715 327.714 412.686 327.655C412.657 327.597 412.641 327.534 412.636 327.469C412.632 327.404 412.641 327.339 412.662 327.278C420.837 302.609 438.748 291.359 447.077 288.853C447.205 288.814 447.343 288.828 447.46 288.892C447.578 288.955 447.665 289.062 447.704 289.19C447.742 289.318 447.728 289.456 447.665 289.573C447.602 289.691 447.494 289.778 447.366 289.817C439.201 292.275 421.647 303.313 413.626 327.615C413.579 327.717 413.5 327.801 413.401 327.853C413.301 327.905 413.188 327.923 413.077 327.904Z" fill="white"/>
<path d="M463.706 327.423C462.954 329.486 460.814 330.681 458.886 331.635C456.958 332.59 454.751 333.612 453.767 335.578C451.839 339.56 455.801 344.707 453.671 348.592C453.163 349.376 452.501 350.048 451.726 350.568C450.95 351.089 450.077 351.446 449.159 351.619C447.646 351.934 446.118 352.172 444.58 352.333C443.848 352.376 443.114 352.376 442.382 352.333C440.252 352.159 437.948 352.217 436.088 353.422C433.196 355.35 432.473 359.206 430.814 362.329C429.788 364.155 428.377 365.736 426.679 366.963C424.981 368.189 423.037 369.032 420.982 369.434C419.622 369.704 417.126 370.118 415.651 369.434C415.546 369.389 415.446 369.334 415.352 369.27C415.15 369.068 414.889 368.807 414.774 368.663C414.658 368.518 414.774 368.605 414.716 368.576C414.041 366.648 414.793 364.498 414.716 362.445C414.716 362.31 414.716 362.194 414.716 362.069C414.465 359.688 414.243 357.326 414.031 354.945C413.633 350.575 413.311 346.195 413.067 341.806C412.913 338.962 412.364 335.867 413.385 333.13C414.533 330.093 417.839 329.814 418.909 326.835C419.333 325.649 419.516 324.396 419.921 323.2C420.562 321.441 421.674 319.892 423.137 318.722C424.599 317.552 426.354 316.807 428.212 316.568C433.996 315.893 439.481 320.231 445.236 319.46C446.73 319.238 448.128 318.689 449.612 318.323C454.249 317.137 459.754 318.111 462.655 321.909C463.261 322.676 463.672 323.577 463.855 324.537C464.038 325.497 463.987 326.487 463.706 327.423Z" fill="#F5EF0D"/>
<path d="M413.578 359.447H413.53C413.402 359.421 413.29 359.346 413.218 359.237C413.145 359.129 413.119 358.996 413.145 358.868C419.17 328.329 450.509 321.909 457.942 321.957C458.072 321.962 458.196 322.016 458.287 322.11C458.379 322.203 458.431 322.328 458.433 322.458C458.433 322.523 458.42 322.588 458.395 322.648C458.37 322.709 458.333 322.763 458.286 322.809C458.239 322.855 458.184 322.891 458.123 322.915C458.062 322.939 457.997 322.951 457.932 322.95C450.663 322.902 420.008 329.177 414.118 359.061C414.093 359.181 414.023 359.287 413.923 359.359C413.823 359.43 413.7 359.461 413.578 359.447Z" fill="white"/>
<path d="M447.704 341.931C447.604 341.916 447.51 341.872 447.434 341.806C444.348 339.467 440.785 337.838 436.997 337.035C433.21 336.232 429.291 336.274 425.522 337.159C425.459 337.173 425.393 337.174 425.33 337.163C425.266 337.152 425.205 337.128 425.15 337.093C425.096 337.058 425.048 337.013 425.011 336.96C424.974 336.906 424.948 336.846 424.934 336.783C424.92 336.72 424.919 336.654 424.93 336.591C424.942 336.527 424.965 336.466 425 336.411C425.035 336.357 425.081 336.31 425.134 336.272C425.187 336.235 425.247 336.209 425.31 336.195C429.233 335.28 433.309 335.242 437.248 336.084C441.188 336.925 444.893 338.625 448.099 341.063C448.177 341.135 448.23 341.229 448.252 341.333C448.273 341.437 448.26 341.544 448.217 341.641C448.173 341.737 448.099 341.817 448.007 341.869C447.915 341.921 447.809 341.943 447.704 341.931Z" fill="white"/>
<path d="M75.6576 328.589C75.1436 322.304 73.6945 316.131 71.3582 310.273C67.5022 300.845 60.1951 291.34 51.7408 289.547C43.2865 287.754 39.6908 293.451 41.4742 299.043C43.0166 303.863 49.3019 307.854 54.0737 312.057C58.8455 316.26 67.7625 326.411 70.2399 336.224L75.0117 336.745L75.6576 328.589Z" fill="#F5EF0D"/>
<g opacity="0.15">
<path d="M75.6576 328.589C75.1436 322.304 73.6945 316.131 71.3582 310.273C67.5022 300.845 60.1951 291.34 51.7408 289.547C43.2865 287.754 39.6908 293.451 41.4742 299.043C43.0166 303.863 49.3019 307.854 54.0737 312.057C58.8455 316.26 67.7625 326.411 70.2399 336.224L75.0117 336.745L75.6576 328.589Z" fill="black"/>
</g>
<path d="M72.3993 333.014C72.2627 333.012 72.132 332.958 72.0336 332.863C71.9352 332.768 71.8764 332.639 71.8691 332.503C70.9823 307.834 46.863 294.049 46.6123 293.943C46.4845 293.874 46.3893 293.757 46.3477 293.618C46.3062 293.478 46.3216 293.328 46.3906 293.201C46.4596 293.073 46.5766 292.978 46.7158 292.936C46.855 292.894 47.0051 292.91 47.1329 292.979C47.3835 293.123 72.0234 307.208 72.9392 332.503C72.9418 332.644 72.8887 332.781 72.7913 332.884C72.694 332.987 72.5601 333.047 72.4186 333.052L72.3993 333.014Z" fill="white"/>
<path d="M72.6789 366.725C72.6789 366.725 67.7432 369.839 60.0408 368.518C57.5512 368.192 55.2291 367.085 53.4085 365.356C51.4227 363.303 51.1046 361.24 50.5165 358.492C50.3639 357.346 49.9696 356.245 49.3597 355.263C47.7016 352.988 44.4048 353.026 41.6477 352.438C37.7917 351.6 34.1671 348.794 33.0392 344.977C31.9113 341.16 33.7429 336.494 37.435 334.99L32.9042 332.098C31.5019 331.274 30.2067 330.28 29.0482 329.138C27.8866 327.972 27.1995 326.416 27.1202 324.772C27.1934 323.566 27.6061 322.406 28.3106 321.425C29.0151 320.444 29.9826 319.683 31.1016 319.229C33.3604 318.362 35.8093 318.112 38.1966 318.506C40.6104 318.793 42.984 319.353 45.2724 320.173C45.8965 320.457 46.5727 320.608 47.2582 320.617C48.1663 320.464 49.0159 320.067 49.7164 319.47C54.9027 316.047 63.3474 316.308 66.1044 322.757C66.5189 323.721 66.7599 324.685 67.1937 325.649C68.8132 329.119 73.344 328.078 76.265 329.698C77.1897 330.277 77.9751 331.054 78.565 331.972C79.1549 332.89 79.5348 333.927 79.6775 335.009C80.2559 338.451 79.3016 342.365 78.7135 345.767C78.1255 349.17 77.2772 352.323 76.3517 355.542C75.5998 358.203 74.7708 360.835 73.8839 363.447C73.6332 364.035 73.2187 366.378 72.6789 366.725Z" fill="#F5EF0D"/>
<path d="M75.7444 358.772C73.1552 351.662 68.9088 345.27 63.357 340.128C63.2998 340.007 63.2004 339.911 63.0775 339.858C61.4776 338.356 59.8012 336.937 58.055 335.607C57.4003 331.037 57.9897 326.375 59.7613 322.111C59.7911 322.048 59.8081 321.979 59.8113 321.909C59.8146 321.84 59.8041 321.77 59.7803 321.704C59.7566 321.638 59.7202 321.578 59.6731 321.526C59.626 321.474 59.5692 321.432 59.5059 321.403C59.4426 321.373 59.374 321.356 59.3042 321.353C59.2343 321.349 59.1645 321.36 59.0987 321.384C59.0329 321.407 58.9724 321.444 58.9207 321.491C58.869 321.538 58.8271 321.595 58.7973 321.658C57.0576 325.778 56.3941 330.273 56.8693 334.72C49.7683 329.603 41.8918 325.658 33.5405 323.037C33.4734 323.018 33.4032 323.013 33.3341 323.021C33.2649 323.03 33.1983 323.053 33.138 323.088C33.0778 323.123 33.0252 323.17 32.9834 323.226C32.9416 323.281 32.9114 323.345 32.8946 323.413C32.8757 323.479 32.8701 323.549 32.8783 323.617C32.8865 323.686 32.9083 323.752 32.9424 323.812C32.9765 323.872 33.0222 323.925 33.0769 323.967C33.1316 324.01 33.1942 324.041 33.261 324.058C33.4827 324.126 48.5307 328.387 60.947 339.338C53.3314 337.998 44.2313 341.68 43.8168 341.854C43.7023 341.9 43.6076 341.985 43.5489 342.093C43.4901 342.202 43.4711 342.328 43.4951 342.449C43.5191 342.57 43.5846 342.679 43.6802 342.757C43.7759 342.835 43.8958 342.877 44.0192 342.876C44.086 342.89 44.1549 342.89 44.2216 342.876C44.3277 342.828 55.0088 338.509 62.5376 340.851C68.0078 345.896 72.1923 352.176 74.7419 359.167C74.7792 359.271 74.8472 359.36 74.9367 359.424C75.0263 359.488 75.1332 359.523 75.2432 359.524H75.4167C75.4912 359.501 75.5599 359.463 75.6181 359.411C75.6763 359.359 75.7225 359.295 75.7536 359.224C75.7848 359.152 75.8001 359.075 75.7985 358.997C75.7969 358.919 75.7785 358.842 75.7444 358.772Z" fill="white"/>
<path d="M53.7454 174.629C52.4197 176.133 50.7055 177.244 48.7904 177.839L48.588 177.887H48.4338L48.0964 177.945H47.7108H47.4601C47.4222 177.955 47.3824 177.955 47.3444 177.945C46.5755 177.948 45.8232 177.721 45.1842 177.293C44.5452 176.866 44.0486 176.257 43.7584 175.545C43.4814 174.911 43.3057 174.237 43.2378 173.549C43.5366 173.414 43.8355 173.25 44.144 173.077C46.3678 171.626 48.2182 169.672 49.5448 167.372C50.8714 165.072 51.6368 162.492 51.7788 159.841C51.7788 159.475 51.7788 159.128 51.7788 158.81C52.621 158.408 53.5455 158.21 54.478 158.231H54.6419H54.7769C54.8246 158.222 54.8737 158.222 54.9215 158.231C55.5832 158.331 56.2075 158.601 56.7332 159.015C57.2588 159.429 57.6677 159.973 57.9195 160.593C59.4908 164.285 57.64 170.522 53.7454 174.629Z" fill="#F5EF0D"/>
<path d="M67.868 163.041C67.7927 163.005 67.7105 162.986 67.627 162.984L64.3687 162.8C64.2975 162.803 64.2264 162.791 64.1599 162.766C64.0933 162.74 64.0325 162.702 63.9813 162.652C63.93 162.603 63.8892 162.543 63.8613 162.478C63.8335 162.412 63.8192 162.342 63.8192 162.27C63.8674 161.75 63.8867 161.239 63.8963 160.747C63.9004 160.206 63.8747 159.666 63.8192 159.128C63.8294 158.774 63.9585 158.435 64.1855 158.164L67.8198 153.749C67.9304 153.629 68.0088 153.483 68.0476 153.324C68.0864 153.166 68.0843 153 68.0415 152.842L66.316 148.986C66.2939 148.937 66.2567 148.897 66.2099 148.871C66.1103 148.837 66.0027 148.836 65.9024 148.867C65.8021 148.898 65.7141 148.96 65.6508 149.044L61.7948 152.592C61.6913 152.709 61.5506 152.788 61.3962 152.814C61.2418 152.84 61.0831 152.813 60.9465 152.736C60.4467 152.332 59.8874 152.006 59.2884 151.772C59.1547 151.723 59.0423 151.629 58.9702 151.506C58.8982 151.382 58.8709 151.238 58.8932 151.098L60.0885 145.651C60.107 145.578 60.1009 145.5 60.0713 145.431C60.0418 145.361 59.9902 145.303 59.9246 145.265C59.8134 145.213 59.6899 145.193 59.568 145.207L55.712 145.583C55.5371 145.605 55.3701 145.669 55.2256 145.77C55.0811 145.87 54.9634 146.005 54.8829 146.162L52.82 151.695C52.641 152.047 52.349 152.329 51.9909 152.495C51.163 152.883 50.3697 153.341 49.6195 153.864C49.2917 154.076 48.9351 154.096 48.8001 153.864L46.8721 150.885C46.7371 150.673 46.419 150.722 46.1684 150.982L41.9943 155.397C41.8742 155.515 41.7823 155.659 41.7256 155.817C41.6688 155.976 41.6486 156.145 41.6665 156.313L42.8329 160.246C42.8818 160.582 42.8064 160.925 42.6209 161.21C41.914 162.28 41.2702 163.39 40.6929 164.536C40.4888 164.871 40.1648 165.115 39.7867 165.22L36.2103 166.078C36.0318 166.119 35.8655 166.202 35.7248 166.319C35.5841 166.436 35.473 166.585 35.4005 166.753L33.5978 172.807C33.5788 172.873 33.5762 172.943 33.5901 173.01C33.604 173.077 33.6341 173.14 33.6777 173.193C33.7213 173.246 33.7772 173.288 33.8405 173.315C33.9039 173.341 33.9728 173.352 34.0413 173.347L37.3092 173.539C37.3808 173.535 37.4524 173.546 37.5196 173.571C37.5868 173.596 37.6481 173.635 37.6997 173.685C37.7513 173.734 37.792 173.794 37.8194 173.86C37.8467 173.927 37.8601 173.998 37.8587 174.07C37.7672 175.115 37.7672 176.167 37.8587 177.212C37.8562 177.564 37.7338 177.904 37.5116 178.176L33.8677 182.591C33.7571 182.711 33.6787 182.857 33.64 183.016C33.6012 183.174 33.6033 183.34 33.646 183.498L35.3716 187.354C35.3964 187.403 35.4328 187.446 35.4776 187.479C35.5215 187.493 35.5687 187.493 35.6126 187.479C35.7744 187.467 35.9258 187.395 36.0367 187.276L39.8927 183.719C39.9975 183.603 40.1388 183.527 40.2931 183.502C40.4474 183.478 40.6055 183.507 40.7411 183.584C41.2396 183.991 41.7991 184.316 42.3991 184.548C42.5347 184.598 42.6485 184.694 42.7207 184.819C42.793 184.944 42.819 185.09 42.7944 185.233L41.5894 190.679C41.5754 190.75 41.5836 190.823 41.613 190.889C41.6423 190.954 41.6914 191.009 41.7533 191.046C41.8618 191.106 41.9869 191.13 42.1099 191.113L45.9659 190.737C46.1408 190.716 46.3078 190.652 46.4523 190.551C46.5968 190.45 46.7145 190.316 46.795 190.159L48.8579 184.625C49.0388 184.272 49.3299 183.988 49.687 183.816C50.1034 183.626 50.5089 183.414 50.9016 183.179C51.2776 182.958 51.6632 182.717 52.0488 182.456C52.4344 182.196 52.7236 182.225 52.8585 182.456L54.7865 185.426C54.8111 185.462 54.8442 185.492 54.8829 185.512C55.0372 185.618 55.2878 185.512 55.4902 185.329L59.6644 180.924C59.7924 180.801 59.8883 180.649 59.9438 180.481C59.9993 180.313 60.0126 180.134 59.9825 179.96L58.8257 176.017C58.7681 175.68 58.8442 175.334 59.0378 175.053C59.7503 173.983 60.3943 172.869 60.9658 171.717C61.0733 171.546 61.2139 171.398 61.3795 171.283C61.5451 171.167 61.7322 171.085 61.9298 171.043L65.4966 170.185C65.675 170.144 65.8413 170.061 65.982 169.944C66.1227 169.827 66.2338 169.678 66.3063 169.51L68.109 163.456C68.1167 163.37 68.0977 163.285 68.0545 163.21C68.0113 163.136 67.9462 163.077 67.868 163.041ZM48.8001 177.839L48.588 177.887H48.4338L48.0964 177.945H47.7011H47.3444C46.5744 177.947 45.8213 177.719 45.1822 177.289C44.543 176.86 44.0471 176.249 43.7584 175.535C43.4803 174.901 43.3046 174.228 43.2378 173.539C43.1988 173.171 43.1795 172.801 43.18 172.431C43.4134 168.379 45.085 164.544 47.8939 161.615C48.7426 160.704 49.7164 159.919 50.7859 159.282C51.0972 159.099 51.4191 158.935 51.7499 158.79C52.5942 158.396 53.5177 158.202 54.4491 158.221H54.613H54.748H54.9022C55.5622 158.323 56.1845 158.594 56.7084 159.008C57.2322 159.422 57.6396 159.965 57.8906 160.583C59.5005 164.15 57.6496 170.377 53.7551 174.494C52.4487 176.05 50.7321 177.209 48.8001 177.839Z" fill="#F5F5F5"/>
<path d="M52.7815 151.724C52.5911 152.057 52.3058 152.325 51.9621 152.495C51.143 152.883 50.3592 153.341 49.6196 153.864C49.2918 154.076 48.9351 154.095 48.8002 153.864L46.8722 150.895C46.8499 150.857 46.8162 150.826 46.7758 150.808L43.1222 148.697C43.5149 148.462 43.9204 148.25 44.3368 148.061L44.4718 147.984C44.6158 147.894 44.7485 147.787 44.867 147.666L45.0116 147.511C45.0438 147.477 45.0699 147.438 45.0888 147.396L45.1466 147.29L52.7815 151.724Z" fill="#EBEBEB"/>
<path d="M42.8715 160.39C42.878 160.684 42.7975 160.972 42.6402 161.22C41.935 162.291 41.2913 163.401 40.7122 164.545C40.6644 164.641 40.6027 164.728 40.529 164.806L32.817 160.362C32.8579 160.325 32.8935 160.283 32.9231 160.236C32.9614 160.196 32.9939 160.151 33.0195 160.101C33.5909 158.95 34.2349 157.836 34.9475 156.766C34.9855 156.711 35.0178 156.653 35.0439 156.592C35.0439 156.592 35.0439 156.515 35.0439 156.477C35.048 156.454 35.048 156.431 35.0439 156.409C35.0473 156.355 35.0473 156.3 35.0439 156.245C35.0579 156.162 35.0579 156.078 35.0439 155.995L42.8715 160.39Z" fill="#EBEBEB"/>
<path d="M43.0643 148.687L39.0733 146.374C39.0209 146.342 38.9609 146.326 38.8998 146.326C38.8154 146.332 38.7331 146.356 38.6584 146.396C38.5837 146.435 38.5182 146.49 38.466 146.557L35.9692 149.198L34.2919 150.963C34.1547 151.112 34.0526 151.289 33.993 151.483L39.8638 154.857L41.6858 155.898C41.7478 155.719 41.8463 155.555 41.975 155.416L42.0328 155.358L46.1491 151.001C46.2161 150.916 46.3062 150.851 46.4087 150.815C46.5112 150.779 46.6218 150.774 46.7275 150.799L43.0643 148.687Z" fill="#F5F5F5"/>
<path d="M59.8186 145.256C59.7178 145.204 59.6024 145.187 59.4909 145.208L55.6349 145.584C55.4005 145.611 55.181 145.712 55.0083 145.873L47.2963 141.438C47.4657 141.271 47.6864 141.166 47.9229 141.14L51.7789 140.764C51.9082 140.743 52.0408 140.767 52.1548 140.831L53.1767 141.429L53.6876 141.718L56.9459 143.646L57.746 144.109L58.3341 144.446L59.8186 145.256Z" fill="#F5F5F5"/>
<path d="M40.4808 164.844C40.2818 165.043 40.0367 165.188 39.7674 165.269L36.191 166.127C35.9301 166.189 35.6966 166.334 35.5258 166.541L27.8138 162.116C27.989 161.899 28.2288 161.744 28.4983 161.673L32.0747 160.815C32.3419 160.748 32.5833 160.604 32.7688 160.4L40.4808 164.844Z" fill="#E6E6E6"/>
<path d="M37.7623 177.656C37.6986 177.846 37.6042 178.025 37.4828 178.186L33.8389 182.601C33.7338 182.732 33.6552 182.883 33.6075 183.044L25.8955 178.6C25.9351 178.433 26.0144 178.277 26.1269 178.147L29.7708 173.732C29.8921 173.579 29.9866 173.406 30.0503 173.221L37.7623 177.656Z" fill="#E6E6E6"/>
<path d="M27.9006 169.896L28.0067 169.963L27.8717 169.876L27.6018 169.722L27.9006 169.896Z" fill="#E0E0E0"/>
<path d="M53.7454 174.629C52.4197 176.133 50.7055 177.244 48.7904 177.839L48.588 177.887H48.4338L48.0964 177.945H47.7108H47.4601C47.4222 177.955 47.3824 177.955 47.3444 177.945C46.5755 177.948 45.8232 177.721 45.1842 177.293C44.5452 176.866 44.0486 176.257 43.7584 175.545C43.4814 174.911 43.3057 174.237 43.2378 173.549C43.5366 173.414 43.8355 173.25 44.144 173.077C46.3678 171.626 48.2182 169.672 49.5448 167.372C50.8714 165.072 51.6368 162.492 51.7788 159.841C51.7788 159.475 51.7788 159.128 51.7788 158.81C52.621 158.408 53.5455 158.21 54.478 158.231H54.6419H54.7769C54.8246 158.222 54.8737 158.222 54.9215 158.231C55.5832 158.331 56.2075 158.601 56.7332 159.015C57.2588 159.429 57.6677 159.973 57.9195 160.593C59.4908 164.285 57.64 170.522 53.7454 174.629Z" fill="#E0E0E0"/>
<path d="M42.8716 160.391L35.1596 155.956C35.1689 155.909 35.1689 155.86 35.1596 155.812L33.9931 151.879C33.9559 151.75 33.9559 151.613 33.9931 151.483L39.8639 154.857L41.6858 155.899C41.6449 156.04 41.6449 156.191 41.6858 156.332L42.8523 160.265C42.8641 160.306 42.8706 160.348 42.8716 160.391Z" fill="#E0E0E0"/>
<path d="M55.0565 145.873C54.969 145.954 54.9 146.052 54.8541 146.162L52.7911 151.695L45.0791 147.251L47.171 141.708C47.2114 141.598 47.2815 141.501 47.3734 141.429L55.0565 145.873Z" fill="#E0E0E0"/>
<path d="M66.1425 148.861C66.0459 148.84 65.9453 148.846 65.8518 148.879C65.7583 148.911 65.6754 148.968 65.6123 149.044L61.7563 152.602C61.6502 152.718 61.508 152.796 61.3524 152.822C61.1968 152.849 61.0369 152.822 60.8984 152.746C60.3986 152.341 59.8393 152.016 59.2403 151.782C59.1066 151.733 58.9942 151.638 58.9221 151.515C58.8501 151.392 58.8228 151.248 58.8451 151.107L60.0404 145.661C60.0606 145.587 60.0553 145.509 60.0256 145.44C59.9958 145.37 59.9433 145.312 59.8765 145.275L58.4209 144.427C58.4653 144.417 58.5114 144.417 58.5559 144.427L58.6426 144.485L66.1425 148.861Z" fill="#E0E0E0"/>
<path d="M67.8487 163.032C67.7734 162.996 67.6913 162.976 67.6077 162.974L64.3494 162.791C64.2782 162.794 64.2072 162.782 64.1406 162.756C64.074 162.731 64.0133 162.692 63.962 162.643C63.9107 162.593 63.8699 162.534 63.842 162.468C63.8142 162.403 63.7999 162.332 63.7999 162.261C63.8481 161.74 63.877 161.229 63.877 160.728L67.8487 163.032Z" fill="#E0E0E0"/>
<path d="M27.8235 162.078C27.7707 162.148 27.7285 162.226 27.6982 162.309L27.4764 163.061L26.3004 167.013L25.9051 168.363C25.8816 168.435 25.8816 168.513 25.9051 168.585C25.9153 168.628 25.9315 168.671 25.9533 168.71C25.983 168.744 26.0152 168.777 26.0497 168.806H26.1076L26.7149 169.163L26.8788 169.25L27.3608 169.52L27.6114 169.674L27.9102 169.847L28.0163 169.915L28.3344 170.088L30.0696 171.052L33.7328 173.173C33.6594 173.126 33.6035 173.057 33.5738 172.975C33.5442 172.893 33.5425 172.803 33.5689 172.72L35.1595 167.505L35.3812 166.753C35.4146 166.662 35.4635 166.577 35.5258 166.502L27.8235 162.078Z" fill="#E0E0E0"/>
<path d="M54.8926 185.522L50.892 183.16C51.2679 182.939 51.6535 182.698 52.0391 182.437C52.4247 182.177 52.7139 182.206 52.8489 182.437L54.7769 185.416C54.8041 185.462 54.8444 185.499 54.8926 185.522Z" fill="#E0E0E0"/>
<path d="M42.8715 185.233L41.6665 190.689C41.6525 190.759 41.6608 190.833 41.6901 190.898C41.7195 190.964 41.7685 191.019 41.8304 191.055L35.6608 187.488C35.8212 187.472 35.9709 187.4 36.0849 187.286L39.9409 183.738C40.0442 183.621 40.1842 183.542 40.3382 183.514C40.4922 183.486 40.6512 183.511 40.7892 183.584C41.2857 183.994 41.8458 184.319 42.4473 184.548C42.5894 184.591 42.711 184.684 42.7891 184.81C42.8673 184.936 42.8966 185.086 42.8715 185.233Z" fill="#E0E0E0"/>
<path d="M37.8298 177.222C37.8409 177.37 37.8179 177.518 37.7623 177.656L30.0503 173.222C30.1015 173.08 30.1244 172.929 30.1178 172.778C30.1178 172.248 30.0503 171.708 30.0503 171.149L33.7135 173.27C33.7937 173.312 33.8829 173.335 33.9738 173.337L37.2417 173.52C37.3138 173.518 37.3856 173.53 37.4528 173.556C37.5201 173.582 37.5812 173.621 37.6327 173.672C37.6841 173.723 37.7247 173.783 37.752 173.85C37.7792 173.917 37.7926 173.988 37.7912 174.06C37.7114 175.113 37.7243 176.171 37.8298 177.222Z" fill="#E0E0E0"/>
<path d="M35.439 187.44L33.8774 186.534L33.5785 186.37L31.0625 184.905L30.378 184.519L27.7945 183.015C27.7713 183.005 27.7514 182.988 27.7367 182.967C27.714 182.946 27.6974 182.92 27.6885 182.89L25.9533 179.034C25.9187 178.931 25.9187 178.819 25.9533 178.716C25.9533 178.716 25.9533 178.629 25.9533 178.581L33.6653 183.025C33.6114 183.171 33.6114 183.332 33.6653 183.478L35.3908 187.334C35.3998 187.372 35.4162 187.408 35.439 187.44Z" fill="#E0E0E0"/>
<path d="M99.5933 100.815C99.4913 100.764 99.3796 100.734 99.2655 100.729L94.7829 100.478C94.6848 100.482 94.5868 100.466 94.4951 100.431C94.4034 100.395 94.3198 100.342 94.2494 100.273C94.179 100.205 94.1234 100.123 94.0858 100.032C94.0483 99.9411 94.0296 99.8436 94.031 99.7454C94.0889 99.0417 94.1274 98.3379 94.1371 97.6535C94.1344 96.9127 94.0926 96.1726 94.0117 95.4363C94.0255 94.9539 94.1983 94.4896 94.5034 94.1156L99.5065 88.0617C99.6563 87.8938 99.7627 87.6919 99.8165 87.4734C99.8703 87.255 99.8698 87.0267 99.815 86.8085L97.4339 81.5547C97.4082 81.4838 97.3565 81.4252 97.2893 81.3908C97.1527 81.353 97.008 81.3556 96.8728 81.3984C96.7376 81.4412 96.6178 81.5223 96.5278 81.6318L91.1776 86.5097C91.0322 86.6667 90.8386 86.771 90.6274 86.8059C90.4162 86.8408 90.1994 86.8044 90.0111 86.7025C89.3257 86.142 88.5542 85.696 87.7265 85.3818C87.5385 85.3089 87.3818 85.1727 87.2833 84.9968C87.1847 84.8209 87.1506 84.6162 87.1866 84.4178L88.8351 76.9371C88.8651 76.8368 88.8594 76.7291 88.819 76.6324C88.7786 76.5357 88.7059 76.456 88.6133 76.4069C88.4595 76.3262 88.2841 76.2958 88.1121 76.3202L82.8872 76.8407C82.6453 76.8669 82.4141 76.954 82.2151 77.0939C82.0162 77.2339 81.856 77.4221 81.7497 77.6409L78.8866 85.2179C78.637 85.7015 78.2333 86.0882 77.7394 86.3169C76.6135 86.8545 75.5335 87.4831 74.51 88.1967C74.0666 88.4859 73.546 88.5051 73.3821 88.1967L70.7119 84.1189C70.5191 83.8297 70.0949 83.8876 69.7479 84.2443L64.0121 90.3271C63.8458 90.4872 63.7192 90.6838 63.6422 90.9013C63.5653 91.1188 63.5401 91.3513 63.5686 91.5803L65.1592 96.998C65.2307 97.4527 65.1274 97.9177 64.87 98.2994C63.8977 99.7709 63.0157 101.3 62.2287 102.878C61.9562 103.35 61.5097 103.696 60.9851 103.842L56.0783 105.018C55.8305 105.083 55.6006 105.203 55.4067 105.37C55.2128 105.537 55.06 105.747 54.9601 105.982L52.5115 114.234C52.4871 114.325 52.4845 114.421 52.504 114.513C52.5236 114.605 52.5646 114.692 52.6238 114.765C52.683 114.838 52.7587 114.896 52.8448 114.935C52.9308 114.973 53.0247 114.991 53.1189 114.986L57.6111 115.237C57.7089 115.234 57.8063 115.251 57.8974 115.287C57.9885 115.323 58.0716 115.376 58.1417 115.445C58.2117 115.513 58.2674 115.594 58.3055 115.685C58.3435 115.775 58.3631 115.872 58.363 115.97C58.2329 117.406 58.2329 118.852 58.363 120.288C58.3595 120.771 58.1892 121.237 57.881 121.609L52.8779 127.672C52.7259 127.837 52.618 128.037 52.564 128.255C52.5101 128.472 52.512 128.7 52.5694 128.916L54.9505 134.17C54.9618 134.206 54.9805 134.239 55.0054 134.267C55.0303 134.295 55.0609 134.318 55.0951 134.334C55.1547 134.352 55.2186 134.352 55.2782 134.334C55.4976 134.318 55.7035 134.222 55.8566 134.064L61.1875 129.234C61.333 129.077 61.5265 128.973 61.7377 128.938C61.9489 128.903 62.1657 128.939 62.354 129.041C63.0441 129.597 63.8144 130.046 64.6387 130.372C64.8302 130.44 64.9905 130.575 65.0897 130.752C65.189 130.93 65.2206 131.137 65.1785 131.336L63.5397 138.816C63.5137 138.913 63.5203 139.015 63.5587 139.108C63.5971 139.2 63.665 139.277 63.7518 139.327C63.902 139.408 64.0745 139.439 64.2434 139.414L69.4683 138.903C69.7103 138.873 69.9413 138.785 70.1413 138.646C70.3412 138.506 70.504 138.32 70.6155 138.103L73.4496 130.507C73.6974 130.023 74.097 129.633 74.5871 129.398C75.1366 129.138 75.6957 128.849 76.2549 128.521C76.814 128.193 77.296 127.885 77.8262 127.557C78.3564 127.229 78.7902 127.239 78.9444 127.557L81.6243 131.644C81.6535 131.694 81.6972 131.735 81.7497 131.76C81.9714 131.895 82.2991 131.808 82.5787 131.509L88.3627 125.446C88.5277 125.285 88.6535 125.088 88.7304 124.871C88.8073 124.653 88.8332 124.421 88.8061 124.192L87.2155 118.707C87.1459 118.251 87.2528 117.786 87.5144 117.406C88.4715 115.921 89.3374 114.379 90.1075 112.788C90.2424 112.553 90.4225 112.346 90.6376 112.181C90.8527 112.015 91.0985 111.894 91.3607 111.824L96.2675 110.639C96.5162 110.579 96.7468 110.46 96.9398 110.292C97.1327 110.124 97.2824 109.913 97.3761 109.675L99.8536 101.365C99.8704 101.258 99.8546 101.148 99.8081 101.05C99.7617 100.952 99.6869 100.87 99.5933 100.815ZM73.3918 121.137L73.1026 121.204C73.0354 121.213 72.9673 121.213 72.9001 121.204L72.4374 121.281L71.8976 121.339H71.4059C70.3473 121.348 69.3105 121.038 68.4315 120.448C67.5525 119.858 66.8722 119.016 66.4799 118.032C66.0983 117.16 65.8544 116.233 65.7569 115.285C65.6968 114.783 65.6711 114.277 65.6798 113.772C65.6798 109.029 68.1476 103.168 72.1579 98.9163C73.3216 97.666 74.6553 96.5853 76.1199 95.7062C76.545 95.4529 76.9862 95.2275 77.4406 95.0314C78.5973 94.4867 79.864 94.2161 81.1423 94.2409H81.3737H81.5665H81.7689C82.6784 94.3742 83.5368 94.7446 84.2577 95.3149C84.9786 95.8852 85.5366 96.6352 85.8756 97.4896C88.0928 102.387 85.5478 110.986 80.1976 116.596C78.3959 118.714 76.0389 120.286 73.3918 121.137Z" fill="#F5F5F5"/>
<path d="M78.8673 85.2562C78.6148 85.7215 78.2194 86.0932 77.7394 86.3166C76.6156 86.8544 75.5358 87.4797 74.51 88.1868C74.0666 88.4856 73.546 88.5145 73.3821 88.1868L70.7215 84.109C70.6883 84.0525 70.6375 84.0085 70.5769 83.9837L67.9355 82.4413C68.4947 82.1232 69.0441 81.8244 69.5936 81.5737L69.7864 81.4677C69.9845 81.3472 70.166 81.2014 70.3263 81.0339C70.4012 80.9671 70.4691 80.8928 70.5287 80.8122C70.5702 80.7687 70.6058 80.7201 70.6347 80.6676L70.7119 80.5229L78.8673 85.2562Z" fill="#EBEBEB"/>
<path d="M65.1882 97.1617C65.1974 97.561 65.0866 97.9539 64.8701 98.2896C63.9012 99.7632 63.0193 101.292 62.2287 102.869C62.1603 102.997 62.0725 103.114 61.9684 103.216L53.7648 98.4824C53.8237 98.4317 53.8756 98.3734 53.919 98.3089C53.9651 98.2509 54.007 98.1897 54.0443 98.1257C54.8195 96.5305 55.6986 94.988 56.6761 93.5082C56.7291 93.4377 56.7713 93.3597 56.8014 93.2768C56.8354 93.2241 56.8583 93.1651 56.8689 93.1033C56.8741 93.0746 56.8741 93.0452 56.8689 93.0165C56.8689 92.9394 56.8689 92.8623 56.8689 92.7948C56.8922 92.6803 56.8922 92.5623 56.8689 92.4478L65.1882 97.1617Z" fill="#EBEBEB"/>
<path d="M67.9355 82.4417L62.4503 79.2701C62.3805 79.2276 62.3007 79.2043 62.2189 79.2026C62.0999 79.2109 61.9837 79.2434 61.8777 79.2981C61.7716 79.3528 61.6778 79.4285 61.602 79.5208L58.1701 83.1454L55.8662 85.5747C55.6786 85.7822 55.5402 86.0293 55.4613 86.2977L61.1585 89.556L63.6649 90.9924C63.7452 90.7438 63.8803 90.5165 64.0602 90.3272L64.1373 90.2501L69.796 84.2636C69.8867 84.1458 70.0097 84.0566 70.1499 84.007C70.2902 83.9574 70.4418 83.9495 70.5865 83.9841L67.9355 82.4417Z" fill="#F5F5F5"/>
<path d="M88.5458 76.3683C88.404 76.3042 88.2471 76.2808 88.0928 76.3008L82.8582 76.8214C82.539 76.8638 82.24 77.0015 82.0003 77.2166L73.7966 72.4834C74.0367 72.2615 74.34 72.1199 74.6642 72.0785L79.8988 71.5579C80.0751 71.5308 80.2554 71.5648 80.4097 71.6543L81.8171 72.4737L82.5112 72.8786L84.6223 74.1029L85.7309 74.7488C86.0105 74.8934 86.2804 75.0573 86.5311 75.2019L88.5458 76.3683Z" fill="#F5F5F5"/>
<path d="M61.9683 103.225C61.7055 103.502 61.3722 103.702 61.0043 103.804L56.0879 104.99C55.7341 105.08 55.4193 105.283 55.1914 105.568L46.9685 100.844C47.2138 100.541 47.5528 100.327 47.9325 100.237L52.8393 99.061C53.2059 98.9616 53.539 98.7651 53.8033 98.4922L61.9683 103.225Z" fill="#E6E6E6"/>
<path d="M58.2377 120.886C58.1527 121.149 58.0186 121.395 57.8424 121.609L52.8489 127.672C52.7022 127.851 52.5939 128.057 52.5308 128.279L44.3368 123.546C44.392 123.32 44.4975 123.109 44.6453 122.929L49.6581 116.866C49.8261 116.653 49.9536 116.411 50.034 116.152L58.2377 120.886Z" fill="#E6E6E6"/>
<path d="M47.0456 111.583L47.1999 111.68L47.0071 111.564L46.6407 111.352L47.0456 111.583Z" fill="#E0E0E0"/>
<path d="M80.1879 116.731C78.3839 118.789 76.0499 120.313 73.4399 121.137L73.1507 121.204C73.0835 121.213 73.0155 121.213 72.9483 121.204L72.4856 121.281C72.3068 121.31 72.1266 121.329 71.9457 121.339H71.4445C70.3869 121.349 69.351 121.039 68.4734 120.448C67.5958 119.858 66.9176 119.016 66.5281 118.033C66.1453 117.16 65.9014 116.233 65.8051 115.285C66.2099 115.102 66.6245 114.88 67.0486 114.649C72.8326 111.294 77.5466 103.158 77.5466 96.4582C77.5466 95.957 77.5466 95.4942 77.4887 95.0315C78.646 94.4894 79.9129 94.2222 81.1905 94.2507H81.4219H81.605C81.6722 94.2413 81.7403 94.2413 81.8075 94.2507C82.7169 94.3833 83.5757 94.7523 84.298 95.3207C85.0203 95.889 85.5809 96.6369 85.9237 97.4897C88.0927 102.512 85.5478 111.082 80.1879 116.731Z" fill="#E0E0E0"/>
<path d="M65.1882 97.1616L56.9845 92.438C56.9943 92.3742 56.9943 92.3091 56.9845 92.2452L55.4036 86.8372C55.3521 86.6609 55.3521 86.4736 55.4036 86.2974L61.1008 89.5557L63.6072 90.992C63.5333 91.1822 63.5133 91.389 63.5493 91.5897L65.1496 96.9881C65.1727 97.0432 65.1857 97.102 65.1882 97.1616Z" fill="#E0E0E0"/>
<path d="M82.0002 77.2166C81.8776 77.3287 81.7821 77.4671 81.7207 77.6215L78.8865 85.2178L70.6829 80.4846C70.6829 80.4846 70.6829 80.4846 70.6829 80.4267L73.517 72.8304C73.5738 72.6816 73.6665 72.5491 73.7869 72.4448L82.0002 77.2166Z" fill="#E0E0E0"/>
<path d="M97.2315 81.3235C97.0958 81.2941 96.9547 81.3029 96.8236 81.3488C96.6926 81.3948 96.5769 81.4761 96.4892 81.5838L91.1583 86.4616C91.0123 86.6209 90.8169 86.7266 90.6037 86.7615C90.3904 86.7965 90.1715 86.7588 89.9822 86.6544C89.2969 86.0939 88.5253 85.6479 87.6976 85.3337C87.5096 85.2608 87.3529 85.1247 87.2544 84.9488C87.1558 84.7729 87.1217 84.5681 87.1577 84.3697L88.8062 76.8987C88.8336 76.7972 88.8256 76.6894 88.7836 76.593C88.7415 76.4967 88.6679 76.4175 88.5748 76.3685L86.5311 75.1925C86.5979 75.1787 86.6668 75.1787 86.7336 75.1925L86.8492 75.2599L97.2315 81.3235Z" fill="#E0E0E0"/>
<path d="M99.5739 100.796C99.4728 100.744 99.3602 100.717 99.2462 100.719L94.7636 100.468C94.6649 100.471 94.5668 100.454 94.475 100.417C94.3833 100.381 94.2998 100.327 94.2295 100.257C94.1593 100.188 94.1038 100.105 94.0664 100.014C94.0289 99.9227 94.0103 99.8248 94.0117 99.7262C94.0695 99.0224 94.1081 98.3187 94.1081 97.6343L99.5739 100.796Z" fill="#E0E0E0"/>
<path d="M53.919 98.3281C53.8756 98.3926 53.8237 98.451 53.7648 98.5016L53.919 98.3281Z" fill="#E0E0E0"/>
<path d="M46.9492 100.844C46.8488 100.952 46.7731 101.08 46.7275 101.22L46.4672 102.184L44.8573 107.612L44.3078 109.472C44.274 109.569 44.274 109.674 44.3078 109.771C44.3157 109.83 44.339 109.887 44.3753 109.935C44.4092 109.986 44.4515 110.032 44.5006 110.07C44.5259 110.094 44.5553 110.114 44.5874 110.128L45.4068 110.61L45.6381 110.735L46.2937 111.111L46.6503 111.323L47.0552 111.554L47.2095 111.651L47.6433 111.892L50.034 113.27L52.7043 114.813C52.6027 114.748 52.5257 114.651 52.4855 114.537C52.4453 114.424 52.4443 114.3 52.4825 114.186L54.6515 106.889L54.96 105.867C54.9969 105.736 55.0666 105.616 55.1625 105.52L46.9492 100.844Z" fill="#E0E0E0"/>
<path d="M81.769 131.683L76.2742 128.492C76.7851 128.193 77.3249 127.856 77.8455 127.528C78.366 127.2 78.8095 127.21 78.9637 127.528L81.634 131.615C81.6752 131.645 81.7207 131.667 81.769 131.683Z" fill="#E0E0E0"/>
<path d="M65.1881 131.297L63.5397 138.816C63.5145 138.914 63.5226 139.017 63.5628 139.11C63.6029 139.202 63.6728 139.279 63.7614 139.327C63.424 139.144 58.257 136.146 55.2782 134.42C55.4961 134.399 55.7 134.303 55.8566 134.15L61.1875 129.234C61.3317 129.075 61.5248 128.969 61.736 128.933C61.9473 128.896 62.1647 128.931 62.354 129.032C63.039 129.598 63.8103 130.05 64.6386 130.372C64.8242 130.437 64.981 130.565 65.0814 130.734C65.1819 130.904 65.2196 131.103 65.1881 131.297Z" fill="#E0E0E0"/>
<path d="M58.2955 120.288C58.3065 120.492 58.2736 120.696 58.1991 120.886L49.9955 116.153C50.0719 115.959 50.1079 115.753 50.1015 115.545C50.0304 114.805 49.9982 114.062 50.0051 113.318L52.6754 114.861C52.7851 114.922 52.9069 114.958 53.0321 114.967L57.5243 115.217C57.6221 115.215 57.7195 115.232 57.8106 115.268C57.9017 115.303 57.9848 115.357 58.0549 115.425C58.125 115.493 58.1807 115.575 58.2187 115.665C58.2567 115.755 58.2763 115.852 58.2762 115.95C58.1514 117.394 58.1579 118.846 58.2955 120.288Z" fill="#E0E0E0"/>
<path d="M55.0468 134.334L52.8971 133.09L52.4922 132.849L49.0314 130.854C48.7037 130.661 48.3952 130.478 48.0674 130.314L46.8817 129.61C46.8493 129.592 46.82 129.57 46.795 129.543C46.7658 129.512 46.7429 129.476 46.7275 129.437L44.3464 124.173C44.3014 124.032 44.3014 123.88 44.3464 123.739C44.3425 123.678 44.3425 123.617 44.3464 123.556L52.5404 128.289C52.4684 128.495 52.4684 128.72 52.5404 128.926L54.9118 134.179C54.9445 134.24 54.9906 134.293 55.0468 134.334Z" fill="#E0E0E0"/>
<path d="M394.5 105.423C395.818 106.932 397.531 108.044 399.446 108.633H399.658H399.802L400.14 108.691H400.535H400.776C400.814 108.701 400.854 108.701 400.892 108.691C401.661 108.694 402.413 108.467 403.052 108.039C403.691 107.612 404.187 107.003 404.478 106.291C404.756 105.657 404.931 104.984 404.998 104.295C404.709 104.16 404.401 103.996 404.102 103.823C401.875 102.375 400.022 100.421 398.693 98.1208C397.365 95.8207 396.599 93.2393 396.457 90.587C396.457 90.2206 396.457 89.8832 396.457 89.5555C395.615 89.1543 394.691 88.9562 393.758 88.9771H393.594H393.459H393.315C392.653 89.0768 392.028 89.3469 391.503 89.761C390.977 90.1751 390.568 90.7189 390.317 91.3389C388.745 95.0792 390.596 101.316 394.5 105.423Z" fill="#F5EF0D"/>
<path d="M380.175 94.3177L381.978 100.372C382.05 100.54 382.161 100.689 382.302 100.806C382.443 100.923 382.609 101.005 382.788 101.046L386.364 101.904C386.743 102.002 387.068 102.244 387.27 102.579C387.845 103.729 388.489 104.843 389.198 105.915C389.39 106.197 389.466 106.542 389.41 106.879L388.253 110.812C388.223 110.986 388.237 111.165 388.292 111.333C388.348 111.502 388.444 111.653 388.572 111.776L392.755 116.181C392.958 116.403 393.199 116.47 393.353 116.374C393.392 116.353 393.425 116.324 393.449 116.287L395.377 113.309C395.512 113.096 395.879 113.116 396.197 113.309C396.515 113.501 396.958 113.819 397.344 114.041C397.73 114.263 398.154 114.485 398.549 114.677C398.907 114.844 399.199 115.126 399.378 115.478L401.441 121.011C401.522 121.169 401.641 121.304 401.788 121.405C401.934 121.506 402.103 121.569 402.28 121.589L406.078 121.965C406.201 121.982 406.326 121.958 406.434 121.898C406.497 121.862 406.546 121.807 406.573 121.741C406.601 121.674 406.607 121.601 406.589 121.531L405.384 116.085C405.361 115.943 405.388 115.797 405.46 115.672C405.532 115.548 405.644 115.452 405.779 115.4C406.382 115.169 406.945 114.843 407.447 114.436C407.584 114.362 407.742 114.335 407.896 114.361C408.05 114.388 408.19 114.465 408.295 114.581L412.151 118.129C412.263 118.245 412.414 118.317 412.575 118.331C412.62 118.341 412.666 118.341 412.71 118.331C412.76 118.304 412.797 118.259 412.816 118.206L414.542 114.35C414.584 114.192 414.587 114.026 414.548 113.868C414.509 113.709 414.431 113.563 414.32 113.443L410.686 109.028C410.457 108.759 410.331 108.418 410.329 108.064C410.425 107.019 410.425 105.967 410.329 104.922C410.329 104.85 410.343 104.78 410.371 104.714C410.399 104.649 410.44 104.589 410.491 104.54C410.542 104.49 410.603 104.452 410.67 104.426C410.736 104.401 410.807 104.389 410.879 104.392L414.146 104.208C414.215 104.212 414.284 104.2 414.348 104.172C414.411 104.144 414.466 104.102 414.51 104.048C414.553 103.994 414.583 103.931 414.597 103.863C414.611 103.795 414.608 103.725 414.59 103.659L412.787 97.605C412.715 97.4368 412.604 97.2881 412.463 97.1709C412.322 97.0537 412.156 96.9712 411.977 96.9302L408.411 96.0722C408.032 95.9736 407.707 95.7316 407.505 95.3974C406.929 94.248 406.285 93.1342 405.577 92.062C405.388 91.7782 405.313 91.4345 405.364 91.098L406.531 87.1552C406.551 86.9876 406.532 86.8176 406.475 86.6587C406.418 86.4998 406.325 86.3562 406.203 86.2394L402.029 81.8243C401.778 81.564 401.47 81.5255 401.325 81.7375L399.397 84.7067C399.262 84.9187 398.906 84.8995 398.588 84.7067C397.838 84.1882 397.048 83.7304 396.226 83.3378C395.868 83.1714 395.576 82.8896 395.397 82.5377L393.334 77.0043C393.255 76.8465 393.137 76.7109 392.993 76.6099C392.848 76.5089 392.68 76.4457 392.505 76.4259L388.707 76.0499C388.581 76.0366 388.455 76.0565 388.34 76.1078C388.275 76.1454 388.223 76.2034 388.194 76.2731C388.164 76.3427 388.158 76.42 388.176 76.4934L389.42 81.94C389.443 82.0809 389.418 82.2256 389.348 82.3501C389.278 82.4746 389.167 82.5714 389.034 82.6244C388.43 82.8541 387.867 83.1796 387.367 83.5884C387.229 83.6632 387.071 83.6897 386.917 83.6635C386.763 83.6372 386.623 83.5598 386.518 83.4438L382.662 79.8963C382.46 79.7131 382.248 79.6456 382.103 79.7228C382.061 79.7518 382.028 79.7918 382.007 79.8385L380.272 83.6945C380.229 83.8519 380.227 84.0176 380.265 84.1761C380.304 84.3346 380.383 84.4807 380.493 84.6006L384.128 88.9482C384.348 89.2223 384.473 89.5607 384.484 89.9122C384.429 90.4503 384.403 90.9909 384.407 91.5318C384.407 92.0234 384.407 92.4958 384.484 93.0549C384.484 93.1262 384.47 93.1967 384.442 93.2623C384.414 93.328 384.373 93.3873 384.322 93.4368C384.271 93.4863 384.21 93.5249 384.144 93.5504C384.077 93.5759 384.006 93.5877 383.935 93.5851L380.676 93.7682C380.593 93.7715 380.511 93.7912 380.435 93.8261C380.339 93.8612 380.259 93.9309 380.211 94.0218C380.162 94.1126 380.15 94.2181 380.175 94.3177ZM394.491 105.423C390.635 101.316 388.707 95.0793 390.365 91.5125C390.611 90.8906 391.017 90.3446 391.541 89.9299C392.066 89.5152 392.691 89.2464 393.353 89.1507H393.498H393.633H393.768C394.696 89.1319 395.616 89.3265 396.457 89.7195C396.775 89.8641 397.103 90.0279 397.421 90.2111C398.493 90.8485 399.467 91.6375 400.313 92.5536C403.124 95.4779 404.795 99.3108 405.027 103.36C405.037 103.731 405.018 104.101 404.969 104.469C404.902 105.157 404.727 105.831 404.449 106.464C404.16 107.178 403.664 107.789 403.025 108.219C402.386 108.648 401.633 108.876 400.863 108.874H400.516H400.12L399.783 108.816H399.638L399.426 108.758C397.503 108.127 395.794 106.972 394.491 105.423Z" fill="#F5F5F5"/>
<path d="M395.464 82.5183C395.64 82.859 395.925 83.1307 396.274 83.2895C397.096 83.6821 397.886 84.1399 398.636 84.6583C398.954 84.8704 399.31 84.8897 399.445 84.6583L401.373 81.6892C401.395 81.6481 401.429 81.6145 401.47 81.5928L405.123 79.4817C404.719 79.2503 404.314 79.0286 403.918 78.8454C403.867 78.8256 403.819 78.7997 403.774 78.7683C403.63 78.6785 403.497 78.5717 403.379 78.4502L403.234 78.2959C403.205 78.2597 403.179 78.221 403.157 78.1803L403.099 78.0742L395.464 82.5183Z" fill="#EBEBEB"/>
<path d="M405.422 91.1848C405.409 91.4744 405.486 91.7609 405.644 92.0042C406.353 93.0764 406.997 94.1902 407.572 95.3396C407.618 95.4357 407.684 95.5211 407.765 95.5903L415.477 91.1462C415.434 91.1116 415.398 91.069 415.371 91.0209C415.333 90.984 415.3 90.9418 415.274 90.8956C414.703 89.741 414.059 88.6237 413.346 87.5505C413.312 87.4991 413.283 87.4442 413.259 87.3866C413.235 87.3485 413.219 87.3059 413.211 87.2613C413.211 87.2613 413.211 87.2613 413.211 87.1938C413.207 87.1393 413.207 87.0845 413.211 87.0299C413.188 86.9481 413.188 86.8612 413.211 86.7793L405.422 91.1848Z" fill="#EBEBEB"/>
<path d="M405.172 79.4817L409.163 77.1681C409.219 77.153 409.279 77.153 409.336 77.1681C409.422 77.1741 409.506 77.1978 409.582 77.2376C409.658 77.2774 409.725 77.3325 409.78 77.3994L412.276 80.0119L413.954 81.776C414.093 81.9271 414.196 82.1086 414.252 82.3062L408.382 85.6706L406.56 86.7117C406.503 86.5303 406.404 86.3651 406.271 86.2297L406.222 86.1718L402.096 81.8146C402.03 81.7282 401.94 81.663 401.837 81.627C401.735 81.5911 401.624 81.5859 401.518 81.6121L405.172 79.4817Z" fill="#F5F5F5"/>
<path d="M388.417 76.05C388.525 76.0238 388.637 76.0238 388.745 76.05L392.553 76.4259C392.788 76.4512 393.008 76.5528 393.179 76.7151L400.891 72.2807C400.719 72.1117 400.495 72.0063 400.255 71.9819L396.447 71.6059C396.318 71.5852 396.185 71.609 396.071 71.6734L395.05 72.2711L394.548 72.5603L391.29 74.4883L390.48 74.9606L389.911 75.192L388.417 76.05Z" fill="#F5F5F5"/>
<path d="M407.765 95.5998C407.961 95.8018 408.207 95.9482 408.478 96.024L412.055 96.8819C412.31 96.9503 412.539 97.0949 412.71 97.2964L420.422 92.8717C420.246 92.6559 420.007 92.5008 419.738 92.4282L416.171 91.5703C415.902 91.5011 415.658 91.3574 415.467 91.1558L407.765 95.5998Z" fill="#E6E6E6"/>
<path d="M410.474 108.45C410.537 108.643 410.635 108.823 410.763 108.98L414.397 113.395C414.506 113.525 414.585 113.676 414.628 113.839L422.34 109.395C422.299 109.228 422.22 109.073 422.109 108.942L418.465 104.527C418.343 104.375 418.252 104.202 418.195 104.016L410.474 108.45Z" fill="#E6E6E6"/>
<path d="M420.335 100.69L420.229 100.757L420.364 100.68L420.634 100.526L420.335 100.69Z" fill="#E0E0E0"/>
<path d="M394.5 105.423C395.818 106.932 397.531 108.044 399.446 108.633H399.658H399.802L400.14 108.691H400.535H400.776C400.814 108.701 400.854 108.701 400.892 108.691C401.661 108.694 402.413 108.467 403.052 108.039C403.691 107.612 404.187 107.003 404.478 106.291C404.756 105.657 404.931 104.984 404.998 104.295C404.709 104.16 404.401 103.996 404.102 103.823C401.875 102.375 400.022 100.421 398.693 98.1208C397.365 95.8207 396.599 93.2393 396.457 90.587C396.457 90.2206 396.457 89.8832 396.457 89.5555C395.615 89.1543 394.691 88.9562 393.758 88.9771H393.594H393.459H393.315C392.653 89.0768 392.028 89.3469 391.503 89.761C390.977 90.1751 390.568 90.7189 390.317 91.3389C388.745 95.0792 390.596 101.316 394.5 105.423Z" fill="#E0E0E0"/>
<path d="M405.422 91.1848L413.134 86.7504C413.124 86.706 413.124 86.6599 413.134 86.6155L414.301 82.6727C414.338 82.5469 414.338 82.4129 414.301 82.2871L408.43 85.6515L406.608 86.6926C406.649 86.8343 406.649 86.9847 406.608 87.1264L405.451 91.0595C405.431 91.0982 405.421 91.1413 405.422 91.1848Z" fill="#E0E0E0"/>
<path d="M393.179 76.6668C393.268 76.7467 393.337 76.8456 393.382 76.956L395.445 82.4894L403.157 78.0453L401.094 72.512C401.054 72.4043 400.987 72.3082 400.901 72.2324L393.179 76.6668Z" fill="#E0E0E0"/>
<path d="M382.094 79.6553C382.192 79.6375 382.293 79.645 382.387 79.6771C382.482 79.7091 382.566 79.7647 382.633 79.8385L386.489 83.3956C386.593 83.5131 386.734 83.5916 386.888 83.6179C387.042 83.6442 387.201 83.6168 387.338 83.5402C387.838 83.1314 388.401 82.8059 389.005 82.5762C389.139 82.5247 389.251 82.4282 389.321 82.3033C389.392 82.1784 389.416 82.0329 389.391 81.8918L388.196 76.4452C388.177 76.3718 388.183 76.2945 388.213 76.2249C388.242 76.1552 388.294 76.0972 388.36 76.0596L389.912 75.192C389.864 75.1821 389.815 75.1821 389.767 75.192C389.738 75.1869 389.709 75.1869 389.68 75.192L382.094 79.6553Z" fill="#E0E0E0"/>
<path d="M380.387 93.8261C380.463 93.7899 380.545 93.7702 380.628 93.7682L383.896 93.5851C383.967 93.5877 384.038 93.5759 384.104 93.5503C384.17 93.5247 384.23 93.4859 384.28 93.4363C384.331 93.3866 384.371 93.3272 384.397 93.2616C384.424 93.196 384.437 93.1257 384.436 93.0549C384.436 92.5343 384.369 92.0234 384.369 91.5317L380.387 93.8261Z" fill="#E0E0E0"/>
<path d="M415.342 91.0308C415.369 91.0789 415.405 91.1214 415.448 91.1561L415.342 91.0308Z" fill="#E0E0E0"/>
<path d="M420.412 92.8716C420.471 92.9421 420.514 93.0243 420.538 93.1126L420.759 93.8549L421.936 97.8073L422.34 99.1665C422.36 99.2392 422.36 99.3156 422.34 99.3882C422.333 99.4298 422.316 99.4692 422.292 99.5039C422.269 99.5404 422.239 99.5729 422.205 99.6003H422.138L421.54 99.957L421.367 100.044L420.894 100.323L420.634 100.478L420.335 100.641L420.229 100.709L419.911 100.882L418.176 101.846L414.513 103.967C414.588 103.92 414.645 103.848 414.675 103.764C414.705 103.68 414.705 103.589 414.677 103.505L413.047 98.3278L412.826 97.5855C412.797 97.4895 412.747 97.4007 412.681 97.3253L420.412 92.8716Z" fill="#E0E0E0"/>
<path d="M393.343 116.316L397.344 113.993C396.978 113.771 396.582 113.53 396.206 113.27C395.83 113.01 395.532 113.039 395.397 113.27L393.469 116.249C393.434 116.282 393.39 116.305 393.343 116.316Z" fill="#E0E0E0"/>
<path d="M405.422 116.027L406.618 121.483C406.635 121.554 406.628 121.628 406.598 121.695C406.569 121.761 406.518 121.816 406.454 121.85C406.695 121.715 410.464 119.546 412.633 118.283C412.472 118.269 412.321 118.197 412.209 118.081L408.353 114.533C408.25 114.414 408.11 114.334 407.955 114.308C407.8 114.282 407.641 114.31 407.504 114.388C407.003 114.795 406.44 115.121 405.837 115.352C405.698 115.397 405.58 115.489 405.504 115.613C405.428 115.737 405.399 115.884 405.422 116.027Z" fill="#E0E0E0"/>
<path d="M410.406 108.016C410.397 108.164 410.42 108.312 410.474 108.45L418.186 104.016C418.13 103.874 418.104 103.724 418.108 103.572C418.16 103.034 418.183 102.493 418.176 101.953L414.513 104.073C414.432 104.116 414.343 104.139 414.252 104.141L410.984 104.334C410.913 104.331 410.842 104.343 410.776 104.368C410.709 104.394 410.648 104.433 410.597 104.482C410.546 104.532 410.505 104.591 410.477 104.656C410.449 104.722 410.435 104.793 410.435 104.864C410.517 105.914 410.508 106.968 410.406 108.016Z" fill="#E0E0E0"/>
<path d="M412.797 118.235L414.359 117.338L414.657 117.165L417.183 115.709L417.858 115.314L420.451 113.81C420.47 113.816 420.49 113.816 420.509 113.81L420.567 113.733L422.292 109.877C422.323 109.773 422.323 109.663 422.292 109.559V109.424L414.58 113.868C414.634 114.017 414.634 114.181 414.58 114.331L412.855 118.187C412.838 118.206 412.819 118.222 412.797 118.235Z" fill="#E0E0E0"/>
<path d="M409.49 144.986L411.968 153.305C412.063 153.542 412.213 153.753 412.406 153.921C412.598 154.088 412.828 154.208 413.076 154.269L417.983 155.455C418.511 155.599 418.962 155.945 419.236 156.419C420.018 157.998 420.897 159.527 421.868 160.998C422.124 161.38 422.231 161.843 422.167 162.299L420.567 167.707C420.54 167.936 420.566 168.168 420.642 168.385C420.719 168.603 420.845 168.799 421.01 168.96L426.746 175.024C427.025 175.323 427.363 175.419 427.585 175.284C427.636 175.253 427.678 175.21 427.71 175.159L430.39 171.071C430.573 170.782 431.074 170.802 431.508 171.071C431.942 171.341 432.559 171.766 433.079 172.035C433.6 172.305 434.188 172.652 434.737 172.903C435.228 173.141 435.63 173.529 435.885 174.012L438.719 181.608C438.826 181.828 438.988 182.017 439.188 182.157C439.389 182.297 439.622 182.384 439.866 182.408L445.091 182.929C445.26 182.949 445.431 182.918 445.582 182.842C445.671 182.794 445.741 182.717 445.781 182.625C445.821 182.532 445.829 182.429 445.804 182.331L444.156 174.85C444.114 174.652 444.145 174.444 444.244 174.267C444.344 174.09 444.504 173.954 444.696 173.886C445.522 173.564 446.292 173.115 446.98 172.556C447.169 172.454 447.385 172.418 447.597 172.453C447.808 172.487 448.001 172.592 448.147 172.749L453.487 177.636C453.642 177.793 453.847 177.892 454.066 177.916C454.13 177.915 454.193 177.898 454.249 177.868C454.316 177.833 454.368 177.775 454.393 177.704L456.774 172.45C456.828 172.233 456.827 172.007 456.774 171.79C456.72 171.574 456.614 171.373 456.466 171.206L451.463 165.143C451.155 164.768 450.985 164.298 450.981 163.813C451.111 162.376 451.111 160.93 450.981 159.494C450.981 159.396 451 159.299 451.038 159.209C451.076 159.119 451.132 159.037 451.202 158.969C451.272 158.901 451.355 158.847 451.446 158.811C451.538 158.776 451.635 158.759 451.733 158.761L456.215 158.511C456.311 158.519 456.407 158.504 456.496 158.467C456.584 158.43 456.662 158.372 456.723 158.298C456.784 158.224 456.826 158.136 456.845 158.042C456.864 157.948 456.859 157.851 456.832 157.759L454.384 149.42C454.283 149.191 454.131 148.99 453.938 148.831C453.746 148.672 453.519 148.56 453.275 148.504L448.368 147.318C447.841 147.173 447.391 146.827 447.115 146.354C446.332 144.776 445.453 143.247 444.483 141.775C444.223 141.395 444.116 140.93 444.185 140.474L445.785 135.066C445.813 134.837 445.787 134.605 445.71 134.387C445.633 134.17 445.507 133.973 445.341 133.813L439.606 127.749C439.259 127.393 438.825 127.325 438.642 127.614L435.962 131.702C435.779 131.991 435.287 131.972 434.843 131.702C433.813 130.994 432.73 130.365 431.604 129.822C431.113 129.593 430.713 129.206 430.467 128.723L427.633 121.127C427.526 120.908 427.366 120.72 427.167 120.58C426.968 120.44 426.737 120.353 426.495 120.326L421.261 119.806C421.092 119.791 420.923 119.821 420.769 119.893C420.678 119.944 420.607 120.024 420.565 120.119C420.523 120.215 420.514 120.321 420.538 120.423L422.186 127.904C422.227 128.101 422.196 128.306 422.099 128.483C422.001 128.66 421.844 128.796 421.656 128.868C420.827 129.183 420.055 129.632 419.371 130.198C419.181 130.301 418.962 130.337 418.748 130.3C418.535 130.264 418.34 130.156 418.195 129.995L412.855 125.118C412.766 125.007 412.646 124.925 412.51 124.884C412.374 124.843 412.229 124.843 412.093 124.886C412.033 124.929 411.983 124.985 411.948 125.05L409.577 130.314C409.52 130.529 409.518 130.756 409.57 130.973C409.622 131.19 409.727 131.391 409.876 131.557L414.879 137.611C415.193 137.984 415.367 138.454 415.371 138.941C415.303 139.664 415.274 140.407 415.274 141.168C415.274 141.93 415.323 142.547 415.38 143.26C415.382 143.358 415.363 143.455 415.325 143.545C415.288 143.636 415.232 143.717 415.162 143.785C415.091 143.853 415.007 143.905 414.916 143.939C414.824 143.973 414.726 143.988 414.628 143.983L410.146 144.243C410.032 144.241 409.919 144.268 409.818 144.32C409.692 144.372 409.588 144.468 409.528 144.591C409.468 144.713 409.454 144.854 409.49 144.986ZM429.156 160.246C423.806 154.597 421.261 146.036 423.478 141.13C423.819 140.276 424.377 139.527 425.098 138.957C425.818 138.387 426.676 138.016 427.585 137.881H427.787H427.98H428.211C429.489 137.852 430.756 138.12 431.913 138.662C432.365 138.862 432.806 139.087 433.234 139.337C434.697 140.214 436.028 141.294 437.186 142.547C441.206 146.788 443.645 152.659 443.674 157.402C443.679 157.911 443.65 158.42 443.587 158.925C443.494 159.869 443.253 160.793 442.874 161.663C442.484 162.648 441.804 163.491 440.924 164.081C440.045 164.672 439.007 164.981 437.948 164.969H437.456L436.916 164.921L436.453 164.844L436.241 164.796L435.952 164.719C433.318 163.882 430.966 162.334 429.156 160.246Z" fill="#F5F5F5"/>
<path d="M430.486 128.771C430.735 129.236 431.127 129.608 431.605 129.832C432.733 130.371 433.816 130.999 434.844 131.711C435.277 132.01 435.808 132.03 435.962 131.711L438.632 127.624C438.667 127.573 438.713 127.53 438.767 127.499H438.815L441.466 125.956C440.907 125.629 440.348 125.339 439.808 125.089L439.606 124.973C439.409 124.851 439.228 124.705 439.066 124.539C438.997 124.473 438.932 124.402 438.873 124.327C438.83 124.281 438.795 124.229 438.767 124.173L438.69 124.028L430.486 128.771Z" fill="#EBEBEB"/>
<path d="M444.165 140.677C444.157 141.079 444.268 141.475 444.484 141.814C445.451 143.286 446.333 144.811 447.125 146.384C447.191 146.513 447.279 146.631 447.385 146.731L455.589 141.997C455.53 141.947 455.478 141.888 455.435 141.824C455.387 141.771 455.345 141.713 455.309 141.65C454.528 140.068 453.649 138.535 452.678 137.062C452.623 136.989 452.58 136.907 452.552 136.821C452.516 136.773 452.493 136.716 452.485 136.657C452.479 136.625 452.479 136.592 452.485 136.56C452.485 136.56 452.485 136.406 452.437 136.339C452.413 136.224 452.413 136.106 452.437 135.992L444.165 140.677Z" fill="#EBEBEB"/>
<path d="M441.466 125.966L446.951 122.785C447.021 122.742 447.101 122.719 447.183 122.717C447.301 122.728 447.416 122.763 447.52 122.819C447.624 122.875 447.716 122.952 447.79 123.045L451.222 126.67L453.526 129.099C453.713 129.303 453.852 129.547 453.931 129.812L448.224 133.08L445.727 134.517C445.645 134.269 445.511 134.042 445.332 133.851L445.255 133.774L439.596 127.788C439.508 127.667 439.385 127.576 439.244 127.526C439.103 127.476 438.95 127.47 438.806 127.508L441.466 125.966Z" fill="#F5F5F5"/>
<path d="M420.808 119.883C420.951 119.824 421.106 119.801 421.261 119.816L426.486 120.346C426.811 120.378 427.116 120.517 427.353 120.741L435.557 116.008C435.32 115.78 435.016 115.634 434.689 115.593L429.455 115.073C429.278 115.049 429.099 115.083 428.944 115.169L427.527 115.988L426.842 116.393L424.721 117.627L423.623 118.264C423.343 118.418 423.073 118.582 422.813 118.717L420.808 119.883Z" fill="#F5F5F5"/>
<path d="M447.385 146.74C447.65 147.016 447.982 147.219 448.349 147.328L453.256 148.504C453.61 148.6 453.926 148.802 454.162 149.083L462.385 144.359C462.137 144.061 461.799 143.851 461.421 143.761L456.514 142.576C456.148 142.476 455.815 142.28 455.55 142.007L447.385 146.74Z" fill="#E6E6E6"/>
<path d="M451.106 164.401C451.197 164.665 451.33 164.912 451.501 165.133L456.505 171.197C456.652 171.375 456.76 171.582 456.823 171.804L465.017 167.071C464.96 166.841 464.851 166.626 464.699 166.444L459.695 160.381C459.524 160.169 459.393 159.927 459.31 159.667L451.106 164.401Z" fill="#E6E6E6"/>
<path d="M462.298 155.098L462.154 155.195L462.346 155.089L462.713 154.876L462.298 155.098Z" fill="#E0E0E0"/>
<path d="M429.156 160.245C430.975 162.316 433.33 163.844 435.962 164.661L436.241 164.728L436.444 164.776L436.916 164.853L437.456 164.902H437.794C437.844 164.911 437.897 164.911 437.948 164.902C439.007 164.914 440.045 164.604 440.924 164.014C441.804 163.423 442.484 162.58 442.874 161.595C443.255 160.726 443.499 159.802 443.597 158.857C443.192 158.665 442.777 158.452 442.353 158.211C436.569 154.857 431.855 146.73 431.855 140.03C431.855 139.519 431.855 139.066 431.913 138.604C430.755 138.054 429.484 137.784 428.202 137.813H427.98H427.787H427.585C426.676 137.948 425.818 138.319 425.098 138.889C424.377 139.46 423.819 140.209 423.478 141.062C421.261 146.036 423.806 154.596 429.156 160.245Z" fill="#E0E0E0"/>
<path d="M444.165 140.676L452.359 135.953C452.345 135.889 452.345 135.823 452.359 135.76L453.96 130.352C454.016 130.176 454.016 129.988 453.96 129.812L448.253 133.08L445.756 134.516C445.817 134.708 445.817 134.913 445.756 135.104L444.165 140.512C444.155 140.566 444.155 140.622 444.165 140.676Z" fill="#E0E0E0"/>
<path d="M427.353 120.741C427.475 120.85 427.57 120.985 427.633 121.136L430.467 128.742L438.671 124.009L435.836 116.403C435.778 116.257 435.686 116.128 435.567 116.027L427.353 120.741Z" fill="#E0E0E0"/>
<path d="M412.083 124.848C412.217 124.817 412.356 124.824 412.486 124.868C412.615 124.913 412.73 124.992 412.816 125.098L418.157 129.976C418.303 130.136 418.498 130.241 418.711 130.276C418.925 130.311 419.143 130.273 419.333 130.169C420.018 129.614 420.786 129.169 421.608 128.848C421.799 128.78 421.96 128.645 422.059 128.468C422.158 128.291 422.19 128.083 422.148 127.884L420.509 120.404C420.481 120.303 420.487 120.196 420.527 120.1C420.568 120.004 420.639 119.924 420.731 119.874L422.736 118.707C422.672 118.693 422.606 118.693 422.543 118.707L422.427 118.784L412.083 124.848Z" fill="#E0E0E0"/>
<path d="M409.78 144.311C409.882 144.263 409.994 144.236 410.107 144.234L414.59 143.983C414.786 143.983 414.974 143.907 415.115 143.77C415.255 143.633 415.337 143.447 415.342 143.25C415.284 142.537 415.236 141.833 415.236 141.149L409.78 144.311Z" fill="#E0E0E0"/>
<path d="M455.464 141.833C455.507 141.898 455.559 141.956 455.618 142.007L455.464 141.833Z" fill="#E0E0E0"/>
<path d="M462.404 144.359C462.484 144.455 462.543 144.567 462.578 144.687L462.886 145.718L464.496 151.145L465.046 153.006C465.079 153.106 465.079 153.214 465.046 153.314C465.033 153.37 465.01 153.422 464.978 153.469C464.95 153.524 464.906 153.571 464.853 153.604L464.766 153.661L463.937 154.143L463.715 154.278L463.05 154.664L462.703 154.876L462.289 155.098L462.144 155.194L461.71 155.435L459.32 156.814L456.649 158.366C456.753 158.302 456.831 158.206 456.873 158.093C456.915 157.979 456.918 157.854 456.881 157.739L454.712 150.432L454.403 149.41C454.364 149.28 454.295 149.161 454.201 149.063L462.404 144.359Z" fill="#E0E0E0"/>
<path d="M427.575 175.207L433.079 172.016C432.559 171.708 432.029 171.37 431.508 171.052C430.987 170.734 430.544 170.734 430.39 171.052L427.71 175.139C427.67 175.17 427.624 175.193 427.575 175.207Z" fill="#E0E0E0"/>
<path d="M444.165 174.821L445.814 182.312C445.837 182.408 445.827 182.509 445.787 182.6C445.747 182.69 445.679 182.765 445.592 182.813C445.92 182.63 451.097 179.641 454.075 177.906C453.854 177.887 453.646 177.791 453.487 177.636L448.156 172.758C448.012 172.6 447.819 172.494 447.608 172.457C447.397 172.42 447.179 172.455 446.99 172.556C446.3 173.118 445.526 173.567 444.696 173.886C444.512 173.955 444.358 174.087 444.261 174.258C444.164 174.429 444.13 174.628 444.165 174.821Z" fill="#E0E0E0"/>
<path d="M451.02 163.803C451.004 164.006 451.033 164.21 451.106 164.4L459.31 159.667C459.235 159.474 459.202 159.267 459.214 159.06C459.282 158.32 459.311 157.576 459.3 156.833L456.63 158.385C456.522 158.451 456.399 158.487 456.273 158.491L451.781 158.742C451.683 158.738 451.585 158.754 451.493 158.789C451.402 158.824 451.318 158.878 451.248 158.946C451.177 159.015 451.122 159.097 451.084 159.188C451.046 159.279 451.028 159.376 451.029 159.474C451.157 160.914 451.153 162.363 451.02 163.803Z" fill="#E0E0E0"/>
<path d="M454.297 177.848C454.471 177.752 455.319 177.27 456.456 176.605L456.861 176.374L460.322 174.368L461.286 173.829L462.481 173.135C462.516 173.12 462.546 173.097 462.568 173.067C462.594 173.037 462.616 173.005 462.636 172.971L465.007 167.736C465.053 167.592 465.053 167.437 465.007 167.293V167.119L456.813 171.852C456.885 172.058 456.885 172.283 456.813 172.489L454.432 177.733C454.4 177.785 454.353 177.825 454.297 177.848Z" fill="#E0E0E0"/>
<path d="M300.101 86.4032V310.601C300.17 311.854 300.532 313.074 301.158 314.162C301.784 315.251 302.657 316.177 303.706 316.867L403.123 374.254C405.109 375.41 406.729 374.466 406.729 372.162V147.974C406.659 146.72 406.297 145.5 405.671 144.412C405.045 143.324 404.172 142.398 403.123 141.708L303.706 84.321C301.72 83.1642 300.101 84.0993 300.101 86.4032ZM305.297 113.164C305.297 111.236 306.685 110.388 308.401 111.38L398.785 163.552C399.688 164.143 400.439 164.937 400.979 165.872C401.518 166.806 401.83 167.854 401.889 168.931V344.543C401.889 346.529 400.492 347.319 398.785 346.336L308.401 294.155C306.685 293.191 305.297 291.909 305.297 289.942V113.164Z" fill="#F5EF0D"/>
<path opacity="0.5" d="M300.101 86.4032V310.601C300.17 311.854 300.532 313.074 301.158 314.162C301.784 315.251 302.657 316.177 303.706 316.867L403.123 374.254C405.109 375.41 406.729 374.466 406.729 372.162V147.974C406.659 146.72 406.297 145.5 405.671 144.412C405.045 143.324 404.172 142.398 403.123 141.708L303.706 84.321C301.72 83.1642 300.101 84.0993 300.101 86.4032ZM305.297 113.164C305.297 111.236 306.685 110.388 308.401 111.38L398.785 163.552C399.688 164.143 400.439 164.937 400.979 165.872C401.518 166.806 401.83 167.854 401.889 168.931V344.543C401.889 346.529 400.492 347.319 398.785 346.336L308.401 294.155C306.685 293.191 305.297 291.909 305.297 289.942V113.164Z" fill="black"/>
<path d="M403.567 374.475C404.641 374.929 405.8 375.144 406.965 375.105C408.13 375.067 409.273 374.777 410.315 374.254L414.45 371.863C415.506 371.179 416.386 370.255 417.016 369.166C417.646 368.077 418.009 366.854 418.075 365.597V141.419C418.055 140.485 417.842 139.566 417.448 138.72C417.322 138.423 417.181 138.133 417.024 137.852L405.649 144.417C405.889 144.845 406.098 145.29 406.275 145.747C406.546 146.463 406.692 147.219 406.709 147.984V372.172C406.729 374.292 405.35 375.256 403.567 374.475Z" fill="#F5EF0D"/>
<path opacity="0.7" d="M403.567 374.475C404.641 374.929 405.8 375.144 406.965 375.105C408.13 375.067 409.273 374.777 410.315 374.254L414.45 371.863C415.506 371.179 416.386 370.255 417.016 369.166C417.646 368.077 418.009 366.854 418.075 365.597V141.419C418.055 140.485 417.842 139.566 417.448 138.72C417.322 138.423 417.181 138.133 417.024 137.852L405.649 144.417C405.889 144.845 406.098 145.29 406.275 145.747C406.546 146.463 406.692 147.219 406.709 147.984V372.172C406.729 374.292 405.35 375.256 403.567 374.475Z" fill="black"/>
<path d="M352.552 325.832C349.4 324.02 346.845 325.495 346.845 329.129C346.952 331.11 347.524 333.038 348.516 334.757C349.507 336.475 350.89 337.936 352.552 339.019C355.704 340.832 358.259 339.357 358.259 335.723C358.152 333.741 357.58 331.813 356.588 330.095C355.596 328.376 354.214 326.916 352.552 325.832Z" stroke="#E6E6E6" stroke-miterlimit="10"/>
<path d="M353.371 117.849C352.041 117.078 350.952 117.704 350.952 119.247C350.999 120.088 351.243 120.906 351.663 121.635C352.083 122.365 352.668 122.987 353.371 123.45C354.711 124.221 355.801 123.595 355.801 122.042C355.754 121.202 355.51 120.384 355.088 119.655C354.666 118.926 354.078 118.308 353.371 117.849Z" fill="black"/>
<path d="M362.77 132.588L344.059 121.782C342.941 121.146 342.035 121.599 342.035 122.804C342.084 123.484 342.293 124.143 342.644 124.728C342.996 125.313 343.481 125.806 344.059 126.168L362.77 136.965C363.889 137.611 364.795 137.158 364.795 135.943C364.744 135.264 364.535 134.607 364.183 134.024C363.831 133.441 363.347 132.949 362.77 132.588Z" fill="black"/>
<path d="M305.297 289.942C305.297 291.87 306.685 293.172 308.401 294.155L398.785 346.336C400.491 347.3 401.889 346.529 401.889 344.543V168.931C401.83 167.854 401.518 166.806 400.978 165.872C400.439 164.937 399.688 164.143 398.785 163.552L308.401 111.381C306.685 110.417 305.297 111.188 305.297 113.164V289.942Z" fill="#F5EF0D"/>
<path opacity="0.5" d="M305.297 289.942C305.297 291.87 306.685 293.172 308.401 294.155L398.785 346.336C400.491 347.3 401.889 346.529 401.889 344.543V168.931C401.83 167.854 401.518 166.806 400.978 165.872C400.439 164.937 399.688 164.143 398.785 163.552L308.401 111.381C306.685 110.417 305.297 111.188 305.297 113.164V289.942Z" fill="white"/>
<path d="M311.341 126.448V124.799C311.341 124.443 311.485 124.231 311.659 124.327L311.746 124.385C311.856 124.49 311.941 124.617 311.996 124.759C312.051 124.901 312.074 125.053 312.064 125.204V126.853C312.064 127.209 311.919 127.421 311.746 127.315H311.659C311.543 127.205 311.455 127.069 311.399 126.918C311.344 126.768 311.324 126.607 311.341 126.448Z" fill="#455A64"/>
<path d="M312.777 127.248V124.356C312.777 123.999 312.912 123.787 313.086 123.893H313.172C313.282 124 313.368 124.13 313.422 124.273C313.477 124.416 313.501 124.569 313.491 124.722V127.566C313.491 127.923 313.346 128.125 313.172 128.029L313.086 127.98C312.893 127.785 312.782 127.523 312.777 127.248Z" fill="#455A64"/>
<path d="M314.204 128.096V124.047C314.204 123.691 314.349 123.488 314.522 123.585L314.609 123.633C314.718 123.74 314.803 123.87 314.858 124.013C314.913 124.156 314.936 124.309 314.927 124.462V128.511C314.927 128.867 314.782 129.07 314.609 128.973H314.522C314.406 128.861 314.317 128.723 314.262 128.571C314.207 128.419 314.187 128.257 314.204 128.096Z" fill="#455A64"/>
<path d="M315.64 128.916V121.936C315.64 121.58 315.775 121.368 315.949 121.474H316.036C316.145 121.581 316.23 121.711 316.285 121.854C316.34 121.997 316.363 122.15 316.354 122.303V129.282C316.354 129.639 316.209 129.851 316.036 129.745H315.949C315.84 129.637 315.756 129.507 315.703 129.364C315.65 129.221 315.628 129.068 315.64 128.916Z" fill="#455A64"/>
<path d="M319.516 131.634C319.482 131.552 319.466 131.463 319.467 131.374V130.352L317.867 129.388C317.826 129.366 317.791 129.336 317.763 129.3C317.734 129.263 317.714 129.221 317.703 129.176V128.81C317.696 128.749 317.696 128.687 317.703 128.626C317.717 128.581 317.733 128.535 317.751 128.492L319.458 125.802C319.458 125.802 319.516 125.725 319.544 125.715C319.573 125.706 319.602 125.715 319.65 125.715L319.872 125.85C319.942 125.884 319.997 125.942 320.026 126.014C320.043 126.103 320.043 126.195 320.026 126.284V129.87L320.383 130.072C320.445 130.109 320.496 130.162 320.528 130.227C320.545 130.319 320.545 130.414 320.528 130.506V130.747C320.548 130.817 320.548 130.89 320.528 130.959C320.528 130.959 320.451 130.959 320.383 130.959L320.026 130.757V131.779C320.047 131.848 320.047 131.922 320.026 131.991C320.026 131.991 319.949 131.991 319.872 131.991L319.602 131.837C319.552 131.78 319.522 131.709 319.516 131.634ZM319.573 129.542V126.988L318.407 128.916L319.573 129.542Z" fill="#455A64"/>
<path d="M321.415 132.116C321.083 131.276 320.923 130.378 320.942 129.475C320.871 128.745 321.036 128.011 321.415 127.383C321.736 127.016 322.179 126.997 322.745 127.325C323.22 127.594 323.613 127.987 323.882 128.462C323.897 128.51 323.897 128.56 323.882 128.607C323.886 128.639 323.886 128.671 323.882 128.703L323.738 129.07C323.738 129.07 323.738 129.128 323.68 129.118C323.651 129.095 323.628 129.065 323.613 129.031C323.408 128.7 323.127 128.422 322.793 128.221C322.408 128 322.099 128.009 321.887 128.27C321.616 128.746 321.502 129.296 321.559 129.841C321.539 130.498 321.647 131.153 321.877 131.769C322.038 132.215 322.344 132.595 322.745 132.849C322.868 132.925 323.001 132.983 323.14 133.022C323.244 133.05 323.354 133.05 323.458 133.022V131.393L322.793 131.007C322.728 130.97 322.677 130.913 322.649 130.844C322.631 130.754 322.631 130.663 322.649 130.574V130.342C322.649 130.227 322.649 130.159 322.649 130.13C322.649 130.101 322.726 130.13 322.793 130.13L323.854 130.747C323.93 130.789 323.988 130.858 324.017 130.94C324.051 131.043 324.067 131.15 324.066 131.258V133.629C324.074 133.694 324.074 133.758 324.066 133.822C324.058 133.857 324.037 133.888 324.008 133.909C323.795 133.984 323.567 134.003 323.344 133.966C323.122 133.929 322.912 133.837 322.735 133.697C322.135 133.327 321.672 132.772 321.415 132.116Z" fill="#455A64"/>
<path d="M394.573 167.736C394.472 167.353 394.248 167.015 393.936 166.772L389.116 163.995C388.702 163.754 388.384 164.227 388.384 165.075V168.7C388.389 169.2 388.48 169.696 388.654 170.165C388.723 170.353 388.81 170.534 388.914 170.705C389.009 170.865 389.137 171.003 389.29 171.11L394.11 173.886C394.524 174.117 394.852 173.645 394.852 172.797V169.201C394.843 168.7 394.749 168.205 394.573 167.736ZM388.846 169.905C388.773 169.701 388.737 169.485 388.74 169.268V165.673C388.74 165.046 389.001 164.661 389.3 164.844L394.12 167.62C394.203 167.67 394.273 167.739 394.322 167.822C394.353 167.878 394.379 167.936 394.399 167.996C394.473 168.203 394.508 168.422 394.505 168.642V172.228C394.505 172.855 394.245 173.24 393.946 173.057L389.126 170.281C388.984 170.187 388.884 170.042 388.846 169.876V169.905Z" fill="#455A64"/>
<path d="M391.873 166.945V171.197L389.29 169.664L389.203 169.596C389.209 169.548 389.209 169.5 389.203 169.452V166.222C389.203 165.769 389.406 165.48 389.627 165.606L391.873 166.945Z" fill="#455A64"/>
<path d="M395.084 169.336C395.267 169.432 395.411 170.117 395.411 170.849V171.515C395.411 172.257 395.267 172.787 395.084 172.7L394.756 172.546V169.153L395.084 169.336Z" fill="#455A64"/>
<path d="M383.159 166.203C383.159 166.994 382.744 167.398 382.195 167.1C381.893 166.867 381.649 166.567 381.482 166.224C381.314 165.882 381.228 165.505 381.231 165.123C381.231 164.333 381.645 163.938 382.195 164.227C382.498 164.459 382.743 164.758 382.91 165.101C383.077 165.444 383.163 165.821 383.159 166.203Z" fill="#455A64"/>
<path d="M382.224 161.884C382.042 161.754 381.831 161.669 381.609 161.636C381.387 161.604 381.161 161.626 380.949 161.7C380.737 161.774 380.546 161.897 380.392 162.06C380.238 162.223 380.126 162.421 380.064 162.636C380.027 162.763 380.017 162.896 380.034 163.027C380.05 163.158 380.093 163.284 380.161 163.398C380.334 163.706 380.595 163.783 380.701 163.533C380.739 163.378 380.816 163.234 380.924 163.116C381.032 162.998 381.168 162.909 381.319 162.856C381.47 162.804 381.632 162.789 381.79 162.815C381.948 162.841 382.097 162.905 382.224 163.003C382.997 163.554 383.539 164.371 383.747 165.297C383.853 165.663 384.113 165.895 384.296 165.779C384.373 165.69 384.423 165.581 384.44 165.465C384.457 165.349 384.441 165.231 384.393 165.123C384.082 163.819 383.312 162.669 382.224 161.884Z" fill="#455A64"/>
<path d="M382.224 159.59C381.957 159.395 381.65 159.262 381.325 159.201C381 159.141 380.665 159.154 380.346 159.24C380.027 159.326 379.731 159.483 379.48 159.699C379.23 159.914 379.031 160.184 378.898 160.486C378.853 160.618 378.836 160.757 378.849 160.895C378.862 161.033 378.905 161.167 378.975 161.287C379.139 161.595 379.39 161.672 379.505 161.45C379.612 161.203 379.774 160.983 379.978 160.806C380.182 160.63 380.423 160.501 380.683 160.431C380.943 160.361 381.216 160.35 381.481 160.399C381.746 160.449 381.997 160.558 382.214 160.718C383.538 161.652 384.498 163.014 384.933 164.574C385.048 164.921 385.299 165.143 385.463 165.027C385.617 164.931 385.646 164.622 385.54 164.314C385.006 162.407 383.836 160.74 382.224 159.59Z" fill="#455A64"/>
<path d="M300.13 85.7959C300.39 83.8679 301.894 83.2317 303.706 84.2825L403.123 141.708C404.192 142.374 405.072 143.303 405.678 144.407L417.053 137.842C416.441 136.743 415.558 135.817 414.489 135.153L315.091 77.7562C313.969 77.1856 312.729 76.8882 311.471 76.8882C310.213 76.8882 308.973 77.1856 307.851 77.7562L303.706 80.1373C302.741 80.771 301.922 81.6038 301.306 82.5797C300.689 83.5557 300.288 84.6523 300.13 85.7959Z" fill="#F5EF0D"/>
<path opacity="0.2" d="M300.13 85.7959C300.39 83.8679 301.894 83.2317 303.706 84.2825L403.123 141.708C404.192 142.374 405.072 143.303 405.678 144.407L417.053 137.842C416.441 136.743 415.558 135.817 414.489 135.153L315.091 77.7562C313.969 77.1856 312.729 76.8882 311.471 76.8882C310.213 76.8882 308.973 77.1856 307.851 77.7562L303.706 80.1373C302.741 80.771 301.922 81.6038 301.306 82.5797C300.689 83.5557 300.288 84.6523 300.13 85.7959Z" fill="black"/>
<path d="M187.101 84.321L87.6832 141.708C86.6343 142.398 85.7617 143.324 85.1356 144.412C84.5094 145.5 84.1472 146.72 84.0779 147.974V372.162C84.0779 374.466 85.6974 375.41 87.6832 374.254L187.101 316.867C188.15 316.177 189.022 315.251 189.648 314.162C190.274 313.074 190.637 311.854 190.706 310.601V86.4032C190.706 84.0993 189.086 83.1642 187.101 84.321ZM185.51 289.942C185.51 291.87 184.122 293.172 182.406 294.155L92.0212 346.336C90.315 347.3 88.9172 346.529 88.9172 344.543V168.931C88.9768 167.854 89.2888 166.806 89.828 165.872C90.3672 164.937 91.1185 164.143 92.0212 163.552L182.406 111.38C184.122 110.416 185.51 111.188 185.51 113.164V289.942Z" fill="#F5EF0D"/>
<path opacity="0.5" d="M187.101 84.321L87.6832 141.708C86.6343 142.398 85.7617 143.324 85.1356 144.412C84.5094 145.5 84.1472 146.72 84.0779 147.974V372.162C84.0779 374.466 85.6974 375.41 87.6832 374.254L187.101 316.867C188.15 316.177 189.022 315.251 189.648 314.162C190.274 313.074 190.637 311.854 190.706 310.601V86.4032C190.706 84.0993 189.086 83.1642 187.101 84.321ZM185.51 289.942C185.51 291.87 184.122 293.172 182.406 294.155L92.0212 346.336C90.315 347.3 88.9172 346.529 88.9172 344.543V168.931C88.9768 167.854 89.2888 166.806 89.828 165.872C90.3672 164.937 91.1185 164.143 92.0212 163.552L182.406 111.38C184.122 110.416 185.51 111.188 185.51 113.164V289.942Z" fill="black"/>
<path d="M87.2398 374.475C86.1659 374.929 85.0064 375.144 83.8414 375.105C82.6764 375.067 81.5336 374.777 80.4918 374.254L76.3562 371.863C75.2999 371.179 74.4207 370.255 73.7907 369.166C73.1606 368.077 72.7977 366.854 72.7316 365.597V141.419C72.7515 140.485 72.9648 139.566 73.3582 138.72C73.484 138.423 73.6256 138.133 73.7823 137.852L85.1575 144.417C84.9176 144.845 84.7082 145.29 84.5309 145.747C84.2606 146.463 84.1139 147.219 84.0971 147.984V372.172C84.0778 374.292 85.4564 375.256 87.2398 374.475Z" fill="#F5EF0D"/>
<path opacity="0.7" d="M87.2398 374.475C86.1659 374.929 85.0064 375.144 83.8414 375.105C82.6764 375.067 81.5336 374.777 80.4918 374.254L76.3562 371.863C75.2999 371.179 74.4207 370.255 73.7907 369.166C73.1606 368.077 72.7977 366.854 72.7316 365.597V141.419C72.7515 140.485 72.9648 139.566 73.3582 138.72C73.484 138.423 73.6256 138.133 73.7823 137.852L85.1575 144.417C84.9176 144.845 84.7082 145.29 84.5309 145.747C84.2606 146.463 84.1139 147.219 84.0971 147.984V372.172C84.0778 374.292 85.4564 375.256 87.2398 374.475Z" fill="black"/>
<path d="M138.255 325.832C141.407 324.02 143.962 325.495 143.962 329.129C143.855 331.11 143.282 333.038 142.291 334.757C141.299 336.475 139.916 337.936 138.255 339.019C135.102 340.832 132.548 339.357 132.548 335.723C132.654 333.741 133.227 331.813 134.218 330.095C135.21 328.376 136.593 326.916 138.255 325.832Z" stroke="#E6E6E6" stroke-miterlimit="10"/>
<path d="M137.435 117.849C138.766 117.077 139.855 117.704 139.855 119.246C139.807 120.087 139.564 120.905 139.144 121.635C138.723 122.365 138.138 122.986 137.435 123.449C136.095 124.221 135.006 123.594 135.006 122.042C135.052 121.201 135.296 120.383 135.719 119.654C136.141 118.926 136.729 118.307 137.435 117.849Z" fill="black"/>
<path d="M128.036 132.588L146.747 121.782C147.866 121.146 148.772 121.599 148.772 122.804C148.723 123.484 148.514 124.143 148.162 124.728C147.81 125.313 147.326 125.806 146.747 126.168L128.036 136.965C126.918 137.611 126.012 137.158 126.012 135.943C126.062 135.264 126.272 134.607 126.624 134.024C126.975 133.441 127.459 132.949 128.036 132.588Z" fill="black"/>
<path d="M185.51 289.942C185.51 291.87 184.122 293.172 182.406 294.155L92.0212 346.336C90.3149 347.3 88.9171 346.529 88.9171 344.543V168.931C88.9768 167.854 89.2888 166.806 89.828 165.872C90.3672 164.937 91.1184 164.143 92.0212 163.552L182.406 111.381C184.122 110.417 185.51 111.188 185.51 113.164V289.942Z" fill="#F5EF0D"/>
<path opacity="0.9" d="M185.51 289.942C185.51 291.87 184.122 293.172 182.406 294.155L92.0212 346.336C90.3149 347.3 88.9171 346.529 88.9171 344.543V168.931C88.9768 167.854 89.2888 166.806 89.828 165.872C90.3672 164.937 91.1184 164.143 92.0212 163.552L182.406 111.381C184.122 110.417 185.51 111.188 185.51 113.164V289.942Z" fill="white"/>
<path d="M161.988 134.546C161.988 135.346 162.403 135.741 162.952 135.442C163.25 135.216 163.492 134.925 163.659 134.59C163.826 134.256 163.914 133.888 163.916 133.514C163.916 132.724 163.502 132.319 162.952 132.618C162.655 132.844 162.413 133.135 162.246 133.469C162.079 133.804 161.99 134.172 161.988 134.546Z" fill="#455A64"/>
<path d="M160.754 133.485C160.706 133.592 160.69 133.711 160.707 133.827C160.724 133.943 160.774 134.052 160.851 134.14C161.034 134.246 161.294 134.015 161.4 133.649C161.613 132.725 162.155 131.909 162.923 131.354C163.051 131.257 163.201 131.193 163.359 131.168C163.518 131.143 163.68 131.158 163.831 131.211C163.983 131.265 164.118 131.355 164.226 131.475C164.333 131.594 164.409 131.738 164.447 131.894C164.553 132.135 164.813 132.068 164.986 131.75C165.055 131.635 165.099 131.507 165.116 131.374C165.132 131.241 165.121 131.107 165.083 130.978C165.02 130.764 164.907 130.567 164.752 130.405C164.598 130.243 164.407 130.121 164.195 130.048C163.984 129.975 163.758 129.954 163.536 129.987C163.315 130.02 163.105 130.105 162.923 130.236C161.833 131.023 161.063 132.176 160.754 133.485Z" fill="#455A64"/>
<path d="M159.607 132.675C159.501 132.983 159.53 133.292 159.684 133.388C159.848 133.494 160.099 133.282 160.215 132.935C160.654 131.377 161.614 130.017 162.933 129.079C163.151 128.92 163.402 128.811 163.668 128.762C163.933 128.713 164.206 128.725 164.467 128.796C164.727 128.868 164.968 128.997 165.172 129.174C165.375 129.352 165.536 129.573 165.642 129.822C165.758 130.034 166.008 129.966 166.172 129.658C166.24 129.537 166.281 129.403 166.293 129.265C166.305 129.127 166.287 128.988 166.24 128.858C166.107 128.556 165.909 128.287 165.658 128.073C165.408 127.858 165.113 127.702 164.795 127.617C164.476 127.532 164.143 127.519 163.819 127.581C163.495 127.642 163.189 127.775 162.923 127.971C161.315 129.116 160.145 130.775 159.607 132.675Z" fill="#455A64"/>
<path d="M94.6337 174.291V172.864C94.6303 172.717 94.6606 172.571 94.7225 172.437C94.7843 172.303 94.8759 172.186 94.9904 172.093L95.0964 172.035C95.2892 171.919 95.4531 172.035 95.4531 172.382V173.809C95.4565 173.956 95.4261 174.102 95.3643 174.236C95.3025 174.37 95.2108 174.487 95.0964 174.58L94.9904 174.638C94.7879 174.754 94.6337 174.599 94.6337 174.291Z" fill="#455A64"/>
<path d="M96.2821 173.337V170.869C96.2787 170.722 96.3091 170.576 96.3709 170.442C96.4327 170.308 96.5244 170.191 96.6388 170.098L96.7448 170.04C96.9473 169.924 97.1112 170.04 97.1112 170.387V172.855C97.1134 173.003 97.0816 173.149 97.018 173.283C96.9545 173.417 96.861 173.534 96.7448 173.626L96.6388 173.684C96.446 173.8 96.2821 173.645 96.2821 173.337Z" fill="#455A64"/>
<path d="M97.9113 172.382V168.874C97.9105 168.727 97.9431 168.582 98.0065 168.45C98.07 168.318 98.1627 168.203 98.2776 168.112L98.374 168.054C98.5764 167.938 98.7403 168.054 98.7403 168.401V171.9C98.7426 172.049 98.7107 172.195 98.6472 172.329C98.5837 172.463 98.4902 172.58 98.374 172.672L98.2776 172.73C98.0944 172.845 97.9113 172.691 97.9113 172.382Z" fill="#455A64"/>
<path d="M99.5886 171.428V165.374C99.5866 165.228 99.6177 165.084 99.6795 164.952C99.7413 164.82 99.8321 164.704 99.9453 164.612L100.051 164.555C100.254 164.439 100.418 164.555 100.418 164.902V170.946C100.421 171.093 100.391 171.239 100.329 171.373C100.267 171.507 100.175 171.624 100.061 171.717L99.9549 171.775C99.7525 171.891 99.5886 171.736 99.5886 171.428Z" fill="#455A64"/>
<path d="M104.062 169.259C104.062 169.259 104.062 169.172 104.062 169.086V168.199L102.201 169.269C102.105 169.327 102.056 169.269 102.056 169.163V168.845C102.051 168.787 102.051 168.729 102.056 168.671L102.124 168.488L104.052 164.169C104.079 164.109 104.112 164.051 104.148 163.996C104.186 163.956 104.228 163.921 104.274 163.89L104.534 163.745C104.611 163.694 104.669 163.694 104.707 163.745C104.731 163.807 104.731 163.876 104.707 163.938V167.032L105.122 166.801C105.199 166.753 105.247 166.743 105.286 166.801C105.324 166.859 105.286 166.888 105.286 166.984V167.196C105.303 167.272 105.303 167.351 105.286 167.428C105.246 167.493 105.19 167.546 105.122 167.582L104.707 167.823V168.7C104.716 168.781 104.699 168.862 104.659 168.933C104.619 169.003 104.559 169.06 104.486 169.095L104.177 169.269C104.148 169.269 104.091 169.278 104.062 169.259ZM104.129 167.331V165.114L102.789 168.102L104.129 167.331Z" fill="#455A64"/>
<path d="M106.26 167.446C105.893 167.177 105.72 166.598 105.72 165.711C105.707 164.892 105.892 164.082 106.26 163.349C106.607 162.681 107.139 162.126 107.792 161.749C108.025 161.611 108.274 161.504 108.535 161.431C108.723 161.372 108.925 161.372 109.113 161.431C109.119 161.441 109.122 161.453 109.122 161.465C109.122 161.477 109.119 161.488 109.113 161.499C109.12 161.534 109.12 161.57 109.113 161.605L108.939 162.087C108.939 162.154 108.939 162.193 108.872 162.202H108.795C108.455 162.17 108.115 162.255 107.831 162.443C107.384 162.707 107.02 163.091 106.78 163.552C106.515 164.095 106.386 164.693 106.404 165.297C106.404 165.981 106.529 166.425 106.77 166.608C107.011 166.791 107.358 166.772 107.783 166.531C107.942 166.437 108.093 166.33 108.236 166.213C108.372 166.109 108.495 165.989 108.602 165.856V164.42L107.831 164.863C107.754 164.911 107.696 164.921 107.667 164.863C107.645 164.804 107.645 164.739 107.667 164.68V164.477C107.648 164.398 107.648 164.316 107.667 164.236C107.707 164.171 107.763 164.118 107.831 164.082L109.065 163.378C109.152 163.321 109.209 163.321 109.248 163.378C109.287 163.436 109.306 163.484 109.306 163.6V165.653C109.312 165.718 109.312 165.782 109.306 165.846C109.29 165.899 109.264 165.948 109.229 165.991C108.842 166.527 108.342 166.972 107.763 167.292C107.137 167.659 106.587 167.736 106.26 167.446Z" fill="#455A64"/>
<path d="M176.873 121.242C176.779 121.145 176.655 121.083 176.52 121.069C176.386 121.055 176.251 121.089 176.14 121.165L170.587 124.356C170.315 124.572 170.097 124.848 169.95 125.162C169.803 125.477 169.731 125.821 169.739 126.168V129.272C169.724 129.446 169.745 129.621 169.799 129.787C169.854 129.953 169.942 130.106 170.057 130.236C170.138 130.32 170.242 130.377 170.356 130.4C170.506 130.427 170.661 130.396 170.79 130.313L176.342 127.113C176.614 126.897 176.832 126.621 176.979 126.307C177.127 125.992 177.199 125.648 177.191 125.301V122.197C177.204 122.024 177.183 121.851 177.128 121.687C177.074 121.523 176.987 121.372 176.873 121.242ZM170.259 129.803C170.168 129.674 170.127 129.516 170.144 129.359V126.284C170.141 126.02 170.198 125.76 170.309 125.521C170.421 125.282 170.585 125.072 170.79 124.905L176.342 121.705C176.411 121.661 176.492 121.641 176.574 121.647H176.67C176.762 121.776 176.803 121.934 176.786 122.091V125.195C176.789 125.458 176.732 125.719 176.62 125.958C176.508 126.196 176.344 126.407 176.14 126.573L170.587 129.774C170.452 129.87 170.337 129.88 170.259 129.803Z" fill="#455A64"/>
<path d="M173.759 123.72V127.402L170.77 129.128H170.674C170.679 129.086 170.679 129.044 170.674 129.002V126.284C170.674 126.089 170.718 125.896 170.801 125.719C170.884 125.543 171.006 125.387 171.156 125.262L173.759 123.72Z" fill="#455A64"/>
<path d="M177.47 122.042C177.673 121.927 177.837 122.351 177.837 123.006V123.585C177.885 124.081 177.751 124.578 177.461 124.983L177.094 125.224V122.332L177.47 122.042Z" fill="#455A64"/>
<path d="M190.677 85.7958C190.417 83.8678 188.913 83.2316 187.101 84.2824L87.6832 141.708C86.6144 142.374 85.7347 143.303 85.1286 144.407L73.7534 137.852C74.366 136.752 75.2484 135.827 76.3177 135.162L175.716 77.7561C176.835 77.1856 178.074 76.8882 179.331 76.8882C180.587 76.8882 181.826 77.1856 182.946 77.7561L187.101 80.1372C188.066 80.7709 188.884 81.6037 189.501 82.5796C190.118 83.5556 190.519 84.6522 190.677 85.7958Z" fill="#F5EF0D"/>
<path opacity="0.2" d="M190.677 85.7958C190.417 83.8678 188.913 83.2316 187.101 84.2824L87.6832 141.708C86.6144 142.374 85.7347 143.303 85.1286 144.407L73.7534 137.852C74.366 136.752 75.2484 135.827 76.3177 135.162L175.716 77.7561C176.835 77.1856 178.074 76.8882 179.331 76.8882C180.587 76.8882 181.826 77.1856 182.946 77.7561L187.101 80.1372C188.066 80.7709 188.884 81.6037 189.501 82.5796C190.118 83.5556 190.519 84.6522 190.677 85.7958Z" fill="black"/>
<path d="M369.84 301.327C369.84 301.327 359.534 311.642 345.836 307.699C345.836 307.699 349.962 311.767 359.669 309.039C366.215 307.198 369.84 301.327 369.84 301.327Z" fill="#F5EF0D"/>
<path d="M390.296 238.108C390.296 238.108 395.559 251.701 386.44 262.633C386.44 262.633 391.828 260.512 393.255 250.525C394.19 243.757 390.296 238.108 390.296 238.108Z" fill="#F5EF0D"/>
<path d="M368.77 305.656C378.41 295.736 382.603 284.158 382.699 272.33C382.699 272.33 385.505 279.367 381.128 290.473C376.751 301.578 368.77 305.656 368.77 305.656Z" fill="#F5EF0D"/>
<path d="M102.831 291.312C102.831 291.312 102.706 305.887 115.122 312.895C115.122 312.895 109.338 312.799 104.518 303.969C101.192 298.011 102.831 291.312 102.831 291.312Z" fill="#F5EF0D"/>
<path d="M99.6883 297.153C97.5453 284.822 100.362 272.144 107.526 261.88C107.526 261.88 101.182 266.016 98.3676 277.622C95.5527 289.229 99.6883 297.153 99.6883 297.153Z" fill="#F5EF0D"/>
<path d="M315.615 215.936L319.692 203.742C308.953 205.67 306.032 207.135 302.861 216.013L300.759 223.089L287.9 262.671C284.853 263.471 246.93 273.921 245.609 274.085C245.609 274.085 245.551 274.181 245.513 274.229C233.125 275.02 229.125 275.569 229.125 275.569C232.605 284.669 239.131 289.798 248.144 291.649V291.437V291.504C264.098 288.786 290.271 282.616 298.783 279.792C302.369 278.644 303.902 274.605 305.377 271.231C311.402 257.456 317.697 238.889 319.837 227.716C321.225 220.988 319.191 217.623 315.615 215.936Z" fill="#B16668"/>
<path d="M319.692 203.693C319.692 203.693 309.021 202.055 304.394 211.849C301.29 218.462 291.794 246.784 291.794 246.784C291.794 246.784 298.542 255.46 313.32 255.99C313.32 255.99 327.279 223.937 326.498 222.916C325.717 221.894 319.692 203.693 319.692 203.693Z" fill="#37474F"/>
<path d="M317.735 203.491C315.142 203.742 308.568 212.533 308.433 227.495C308.25 247.536 318.073 272.07 320.541 277.362C323.009 282.655 327.809 293.018 335.965 300.711C338.596 303.178 356.565 310.167 368.143 297.153C379.923 283.918 378.063 266.527 375.71 261.08C371.768 251.961 364.798 241.347 365.049 229.346C363.574 220.727 360.749 209.574 354.31 204.899C351.659 204.224 343.31 203.154 341.681 203.375L317.735 203.491Z" fill="#FAFAFA"/>
<path d="M351.668 219.397L348.381 223.523C349.345 230.068 354.309 239.525 360.084 247.073C364.586 252.963 373.744 259.037 377.436 269.438C377.332 266.581 376.769 263.759 375.768 261.08C371.825 251.961 364.856 241.347 365.106 229.345C364.865 227.919 364.576 226.453 364.248 224.901L361.163 222.106L351.668 219.397Z" fill="#EBEBEB"/>
<path d="M354.31 204.898C359.949 206.287 362.986 209.265 367.921 214.905C373.59 221.267 385.158 234.647 385.158 234.647C393.245 248.664 385.977 262.922 379.913 260.579C379.913 260.579 366.244 247.228 357.857 237.106C352.237 230.358 349.374 226.502 349.056 219.069C348.786 213.227 349.827 207.26 354.31 204.898Z" fill="#B16668"/>
<path d="M351.36 204.368C351.36 204.368 356.228 203.288 362.561 208.388C368.895 213.487 384.377 230.338 384.377 230.338C384.377 230.338 384.839 248.182 373.474 256.231C373.474 256.231 356.7 239.4 352.565 233.577C349.688 229.294 348.053 224.298 347.84 219.143C347.627 213.987 348.845 208.874 351.36 204.368Z" fill="#37474F"/>
<path d="M348.381 170.628C348.381 170.628 345.932 185.58 344.785 188.067C344.015 189.609 342.678 190.794 341.054 191.373L340.813 180.991L348.381 170.628Z" fill="#263238"/>
<path d="M340.428 148.929C340.428 148.929 344.467 146.895 347.234 149.468C350 152.042 350.184 160.892 348.101 172.354L341.141 171.987L340.428 148.929Z" fill="#263238"/>
<path d="M319.07 182.161C329.615 180.075 336.472 169.835 334.386 159.29C332.3 148.746 322.061 141.888 311.516 143.974C300.971 146.06 294.114 156.3 296.2 166.845C298.286 177.389 308.525 184.247 319.07 182.161Z" fill="#263238"/>
<path d="M341.006 150.442L347.031 144.909C346.687 144.496 346.263 144.157 345.784 143.913C345.306 143.669 344.782 143.524 344.246 143.488C343.71 143.452 343.172 143.525 342.665 143.703C342.157 143.881 341.692 144.16 341.295 144.523C340.495 145.283 340.018 146.322 339.965 147.425C339.911 148.527 340.284 149.608 341.006 150.442Z" fill="#263238"/>
<path d="M304.962 151.686C303.738 153.797 297.617 162.666 299.853 179.324C301.955 195.008 306.996 198.69 309.676 199.519C312.356 200.348 317.735 199.876 322.44 198.555L323.288 205.217C323.288 205.217 320.541 209.632 324.252 212.071C327.963 214.51 336.128 212.717 338.018 211.213C342.462 207.656 341.787 204.658 341.787 204.658L340.823 183.025C340.823 183.025 344.168 185.782 348.477 182.534C352.545 179.478 352.729 171.4 349.297 168.623C345.865 165.847 340.36 167.505 339.609 171.968C339.609 171.968 339.464 155.387 330.046 150.982C317.986 145.333 304.962 151.686 304.962 151.686Z" fill="#B16668"/>
<path d="M338.529 174.127C339.059 173.848 339.965 169.413 342.578 167.91C344.978 166.521 340.447 146.702 340.428 146.605C340.158 145.15 338.664 143.443 337.69 142.383C336.219 140.822 334.374 139.66 332.33 139.009C329.52 138.151 326.547 137.973 323.654 138.488C319.162 139.182 314.853 141.053 310.313 141.072C306.003 141.072 301.887 139.404 297.665 138.565C296.857 138.312 295.983 138.37 295.216 138.729C294.823 139.001 294.516 139.379 294.329 139.819C293.799 141.095 293.751 142.52 294.194 143.829C294.657 145.125 295.307 146.346 296.122 147.454C294.619 146.75 292.498 146.692 291.63 148.099C290.946 149.208 291.37 150.654 291.997 151.792C294.638 156.534 299.333 158.617 304.268 159.745C306.342 160.096 308.44 160.289 310.544 160.323C315.865 160.622 320.974 158.491 325.881 156.409C327.231 155.831 329.862 154.847 331.337 156.043C333.169 157.527 333.082 162.328 333.632 166.271C334.47 172.45 336.524 175.207 338.529 174.127Z" fill="#263238"/>
<path d="M321.534 186.052L316.164 188.453C316.306 188.815 316.521 189.145 316.794 189.423C317.067 189.701 317.393 189.921 317.753 190.069C318.113 190.218 318.5 190.292 318.889 190.288C319.279 190.283 319.663 190.2 320.02 190.043C320.736 189.7 321.293 189.093 321.575 188.35C321.857 187.607 321.842 186.785 321.534 186.052Z" fill="#9A4A4D"/>
<path d="M302.254 173.241C302.292 173.63 302.445 174 302.692 174.304C302.939 174.607 303.27 174.832 303.644 174.948C304.018 175.065 304.418 175.07 304.794 174.961C305.17 174.852 305.506 174.635 305.76 174.336C306.013 174.038 306.174 173.672 306.22 173.283C306.267 172.894 306.199 172.5 306.023 172.15C305.848 171.8 305.573 171.509 305.234 171.314C304.894 171.119 304.505 171.028 304.114 171.052C303.578 171.097 303.08 171.352 302.732 171.762C302.383 172.172 302.211 172.704 302.254 173.241Z" fill="#263238"/>
<path d="M317.735 172.286C317.774 172.676 317.926 173.045 318.174 173.349C318.421 173.653 318.752 173.877 319.126 173.994C319.5 174.111 319.9 174.115 320.276 174.006C320.652 173.897 320.988 173.68 321.241 173.382C321.495 173.083 321.655 172.717 321.702 172.328C321.749 171.939 321.681 171.545 321.505 171.195C321.33 170.845 321.055 170.554 320.716 170.359C320.376 170.164 319.987 170.073 319.596 170.098C319.33 170.118 319.07 170.191 318.833 170.313C318.595 170.434 318.383 170.601 318.21 170.805C318.037 171.008 317.906 171.244 317.825 171.498C317.743 171.752 317.713 172.02 317.735 172.286Z" fill="#263238"/>
<path d="M312.491 172.71L312.135 184.674L305.84 182.707L312.491 172.71Z" fill="#9A4A4D"/>
<path d="M322.44 198.584C326.392 197.678 334.123 194.352 335.589 191.46C335.589 191.46 335.733 193.301 333.391 196.097C331.048 198.892 322.835 201.688 322.835 201.688L322.44 198.584Z" fill="#9A4A4D"/>
<path d="M300.682 169.086L305.146 167.158C304.869 166.561 304.374 166.093 303.761 165.852C303.149 165.612 302.467 165.617 301.858 165.866C301.566 165.996 301.302 166.183 301.084 166.417C300.865 166.65 300.696 166.926 300.586 167.226C300.477 167.527 300.428 167.846 300.445 168.166C300.461 168.485 300.542 168.798 300.682 169.086Z" fill="#263238"/>
<path d="M318.94 166.204L323.201 168.517C323.505 167.934 323.57 167.255 323.38 166.625C323.191 165.994 322.764 165.463 322.189 165.143C321.908 164.99 321.599 164.897 321.28 164.868C320.962 164.839 320.641 164.875 320.337 164.974C320.032 165.073 319.752 165.234 319.512 165.445C319.272 165.656 319.077 165.914 318.94 166.204Z" fill="#263238"/>
<path d="M190.632 201.688H157.413C149.481 201.686 141.873 198.539 136.257 192.937C130.641 187.336 127.474 179.736 127.451 171.804V166.589C127.436 158.936 130.461 151.59 135.861 146.167C141.26 140.744 148.593 137.687 156.246 137.669H161.664C165.454 137.658 169.208 138.393 172.713 139.834C176.218 141.275 179.405 143.393 182.091 146.066C184.777 148.74 186.91 151.917 188.367 155.415C189.824 158.913 190.578 162.664 190.584 166.454L190.632 201.688Z" fill="#263238"/>
<path d="M163.139 203.559C175.054 202.662 182.563 208.186 182.814 219.262C182.949 224.844 178.11 247.064 178.11 247.064L163.139 203.559Z" fill="#FFA8A7"/>
<path d="M163.139 203.559C169.202 204.166 175.893 214.519 181.715 227.832C184 233.076 188.174 240.133 182.91 249.946C179.652 256.01 172.943 258.458 172.943 258.458C170.514 266.065 167.008 273.285 162.531 279.898C159.736 288.8 154.649 296.812 147.782 303.13C145.083 305.521 128.589 320.125 115.295 308.856C107.391 302.157 104.634 291.504 105.443 281.45C105.916 275.54 107.227 269.699 111.382 265.467C113.777 263.029 115.991 260.419 118.004 257.658C120.115 247.604 117.696 240.779 117.445 228.738C118.92 220.12 122.574 212.813 129.013 208.147C133.782 206.26 138.798 205.068 143.907 204.609L163.139 203.559Z" fill="#F5EF0D"/>
<path opacity="0.1" d="M162.936 279.3L162.127 272.812C162.127 272.812 134.171 228.989 132.985 227.755C132.291 227.013 125.581 222.54 120.337 219.079C118.964 222.155 117.993 225.395 117.445 228.719C117.696 240.721 120.116 247.546 118.004 257.639C118.004 257.639 116.568 259.673 114.245 262.343C118.39 263.423 125.148 258.208 125.148 258.208C125.148 258.208 138.644 277.285 144.582 284.062C150.125 290.415 153.441 291.36 157.538 291.08C159.646 287.56 161.323 283.799 162.532 279.879C162.676 279.695 162.801 279.493 162.936 279.3Z" fill="black"/>
<path opacity="0.05" d="M182.91 249.946C183.19 249.416 183.45 248.895 183.682 248.375C178.254 252.539 174.475 249.609 169.925 248.732C165.221 247.825 161.731 254.516 152.93 253.686C141.362 252.568 137.169 245.29 137.169 245.29C137.169 245.29 136.86 257.89 151.195 260.656C160.777 262.507 164.296 257.33 166.947 257.33C168.103 257.33 169.135 258.227 172.943 258.458C172.943 258.458 179.652 256.01 182.91 249.946Z" fill="black"/>
<path d="M179.662 153.276C180.857 155.339 186.795 163.948 184.626 180.114C182.583 195.336 177.686 197.813 175.083 198.623C172.48 199.433 167.265 198.96 162.695 197.659L161.664 206.817C161.664 206.817 166.098 213.121 165.221 217.267C164.344 221.412 155.485 220.882 149.932 216.11C146.59 213.176 144.448 209.112 143.917 204.696L144.881 183.681C144.881 183.681 141.632 186.361 137.448 183.209C133.505 180.239 133.322 172.402 136.658 169.713C139.993 167.023 145.334 168.623 146.057 172.952C146.057 172.952 156.391 175.342 165.539 171.024C177.213 165.548 178.919 157.614 179.662 153.276Z" fill="#FFA8A7"/>
<path d="M146.25 178.726L145.97 169.163C147.269 169.16 148.519 169.66 149.458 170.559C150.396 171.457 150.95 172.685 151.002 173.983C151.013 174.61 150.897 175.232 150.661 175.813C150.426 176.393 150.076 176.921 149.633 177.364C149.189 177.806 148.661 178.155 148.08 178.389C147.499 178.623 146.876 178.738 146.25 178.726Z" fill="#263238"/>
<path d="M167.149 187.382L172.355 189.715C172.215 190.065 172.007 190.383 171.743 190.651C171.478 190.919 171.163 191.131 170.815 191.275C170.467 191.418 170.094 191.491 169.718 191.488C169.341 191.485 168.969 191.407 168.624 191.258C167.924 190.928 167.38 190.34 167.105 189.617C166.83 188.895 166.846 188.094 167.149 187.382Z" fill="#F28F8F"/>
<path d="M182.284 174.34C182.284 174.603 182.231 174.864 182.127 175.105C182.023 175.347 181.87 175.565 181.679 175.746C181.487 175.926 181.261 176.066 181.014 176.156C180.766 176.245 180.503 176.284 180.24 176.268C179.719 176.224 179.236 175.974 178.899 175.575C178.561 175.176 178.395 174.659 178.438 174.137C178.471 173.626 178.706 173.149 179.091 172.811C179.281 172.643 179.503 172.515 179.743 172.433C179.984 172.352 180.238 172.318 180.491 172.335C180.744 172.351 180.991 172.417 181.219 172.529C181.447 172.641 181.65 172.797 181.817 172.988C181.985 173.179 182.113 173.4 182.195 173.641C182.276 173.881 182.31 174.135 182.294 174.388L182.284 174.34Z" fill="#263238"/>
<path d="M168.315 175.448C168.275 175.824 168.126 176.179 167.885 176.47C167.645 176.761 167.325 176.975 166.964 177.086C166.603 177.196 166.218 177.199 165.856 177.092C165.493 176.986 165.17 176.776 164.927 176.488C164.683 176.2 164.529 175.846 164.484 175.472C164.439 175.097 164.505 174.717 164.674 174.38C164.843 174.042 165.107 173.762 165.434 173.573C165.761 173.384 166.136 173.295 166.513 173.318C166.773 173.333 167.028 173.401 167.261 173.518C167.495 173.635 167.702 173.798 167.87 173.997C168.039 174.196 168.165 174.428 168.242 174.677C168.318 174.926 168.343 175.189 168.315 175.448Z" fill="#263238"/>
<path d="M173.907 174.214L174.254 185.831L180.365 183.922L173.907 174.214Z" fill="#F28F8F"/>
<path d="M162.695 197.62C158.839 196.743 151.359 193.514 149.932 190.708C149.932 190.708 149.797 192.502 152.072 195.21C154.347 197.919 162.358 200.589 162.358 200.589L162.695 197.62Z" fill="#F28F8F"/>
<path d="M182.901 169.163L178.572 167.293C178.842 166.714 179.324 166.262 179.917 166.029C180.511 165.795 181.172 165.799 181.763 166.04C182.047 166.165 182.303 166.346 182.515 166.573C182.727 166.8 182.891 167.067 182.998 167.359C183.104 167.651 183.15 167.961 183.133 168.271C183.117 168.581 183.038 168.884 182.901 169.163Z" fill="#263238"/>
<path d="M156.979 287.687L166.387 269.689C169.511 270.142 172.634 270.576 175.757 271.01C181.975 271.867 205.468 274.75 206.798 274.769C209.392 274.728 211.951 274.171 214.327 273.13C218.048 271.733 220.805 269.496 223.813 268.879C225.206 268.604 226.632 268.539 228.045 268.686C229.828 268.812 229.366 269.766 231.13 270.074C231.636 270.12 232.118 270.311 232.518 270.624C233.193 271.26 232.701 271.646 232.344 272.166C231.966 272.825 231.723 273.553 231.631 274.306C231.496 274.952 230.966 277.15 231.882 277.507C236.326 279.232 236.827 281.777 242.592 286.723C245.349 289.085 246.833 290.791 248.694 291.996C249.86 293.76 249.947 294.888 245.802 297.317C243.045 298.956 238.09 302.137 229.982 299.592C221.152 296.825 216.631 291.88 214.356 291.774C198.219 290.868 165.761 289.528 156.979 287.687Z" fill="#FFA8A7"/>
<path d="M166.387 269.689L142.615 230.714C142.615 230.714 138.711 208.937 129.023 208.186C129.023 208.186 120.154 210.47 118.13 215.792C115.691 222.231 115.806 228.536 123.085 242.784C128.579 253.58 143.473 273.93 149.431 280.823C151.841 283.609 154.472 286.877 156.979 287.648" fill="#FFA8A7"/>
<path d="M214.645 291.803C215.556 292.033 216.406 292.46 217.132 293.056C218.619 292.789 220.005 292.123 221.143 291.128C225.596 287.88 240.905 294.406 237.135 298.599C234.398 301.645 231.727 302.455 227.36 301.096C220.921 299.129 214.057 296.189 214.645 291.803Z" fill="#B16668"/>
<path d="M229.491 269.226C224.42 270.103 219.157 273.805 216.409 274.923C213.662 276.042 210.828 276.707 213.354 279.127C215.879 281.546 222.03 279.127 226.281 277.623C229.173 276.582 232.826 277.623 234.455 278.297C235.651 278.789 235.015 275.56 235.015 275.56C234.051 274.152 246.014 275.56 245.619 274.172C239.295 274.441 233.578 268.291 229.491 269.226Z" fill="#B16668"/>
</svg>
