<svg width="326" height="326" viewBox="0 0 326 326" fill="none" xmlns="http://www.w3.org/2000/svg">
<path d="M50.5496 116.708C50.5496 116.708 33.3954 157.647 54.918 199.466C76.4405 241.286 122.446 263.871 159.238 283.151C196.03 302.43 234.961 293.883 254.15 263.473C273.338 233.064 248.679 210.785 249.781 167.036C250.883 123.287 257.827 111.792 234.89 74.452C211.952 37.1119 153.52 28.0817 108.467 54.8398C63.4135 81.5979 50.5496 116.708 50.5496 116.708Z" fill="#F5EF0D"/>
<path opacity="0.7" d="M50.5496 116.708C50.5496 116.708 33.3954 157.647 54.918 199.466C76.4405 241.286 122.446 263.871 159.238 283.151C196.03 302.43 234.961 293.883 254.15 263.473C273.338 233.064 248.679 210.785 249.781 167.036C250.883 123.287 257.827 111.792 234.89 74.452C211.952 37.1119 153.52 28.0817 108.467 54.8398C63.4135 81.5979 50.5496 116.708 50.5496 116.708Z" fill="white"/>
<path d="M288.38 53.2422C284.839 51.2862 283.229 52.9162 281.938 51.2862C280.647 49.6562 285.478 45.4899 275.822 41.3041C275.822 41.3041 275.17 32.2869 261.98 31.9675C248.79 31.648 252.324 41.0042 248.777 43.2601C245.23 45.516 244.272 41.9561 240.731 44.2251C237.191 46.494 238.775 50.9863 235.9 51.6318C233.025 52.2773 229.139 48.7369 225.598 50.9798C222.058 53.2227 222.058 55.1656 220.448 55.1656C218.837 55.1656 215.616 53.8616 213.686 55.1656C211.757 56.4696 209.501 58.067 209.501 58.067H290.955C290.955 58.067 291.92 55.1721 288.38 53.2422Z" fill="#F5EF0D"/>
<g opacity="0.5">
<path d="M288.38 53.2422C284.839 51.2862 283.229 52.9162 281.938 51.2862C280.647 49.6562 285.478 45.4899 275.822 41.3041C275.822 41.3041 275.17 32.2869 261.98 31.9675C248.79 31.648 252.324 41.0042 248.777 43.2601C245.23 45.516 244.272 41.9561 240.731 44.2251C237.191 46.494 238.775 50.9863 235.9 51.6318C233.025 52.2773 229.139 48.7369 225.598 50.9798C222.058 53.2227 222.058 55.1656 220.448 55.1656C218.837 55.1656 215.616 53.8616 213.686 55.1656C211.757 56.4696 209.501 58.067 209.501 58.067H290.955C290.955 58.067 291.92 55.1721 288.38 53.2422Z" fill="white"/>
</g>
<path d="M243.255 93.8227C241.083 92.6426 240.099 93.6271 239.343 92.6426C238.586 91.658 241.514 89.0957 235.6 86.5333C235.6 86.5333 235.209 81.0174 227.124 80.8218C219.039 80.6262 221.217 86.3377 219.046 87.72C216.875 89.1022 216.288 86.931 214.123 88.3068C211.959 89.6825 212.943 92.447 211.17 92.8382C209.396 93.2294 207.03 91.0647 204.865 92.447C202.7 93.8292 202.694 95.0028 201.709 95.0028C200.725 95.0028 198.756 94.2204 197.576 95.0028C196.395 95.7852 195.013 96.7762 195.013 96.7762H244.826C244.826 96.7762 245.419 95.0028 243.255 93.8227Z" fill="#F5EF0D"/>
<g opacity="0.5">
<path d="M243.255 93.8227C241.083 92.6426 240.099 93.6271 239.343 92.6426C238.586 91.658 241.514 89.0957 235.6 86.5333C235.6 86.5333 235.209 81.0174 227.124 80.8218C219.039 80.6262 221.217 86.3377 219.046 87.72C216.875 89.1022 216.288 86.931 214.123 88.3068C211.959 89.6825 212.943 92.447 211.17 92.8382C209.396 93.2294 207.03 91.0647 204.865 92.447C202.7 93.8292 202.694 95.0028 201.709 95.0028C200.725 95.0028 198.756 94.2204 197.576 95.0028C196.395 95.7852 195.013 96.7762 195.013 96.7762H244.826C244.826 96.7762 245.419 95.0028 243.255 93.8227Z" fill="white"/>
</g>
<path d="M145.2 157.901C145.2 157.901 162.309 159.59 170.981 170.198C170.981 170.198 180.141 157.908 196.598 158.162C200.616 153.312 203.175 147.419 203.975 141.171C204.775 134.923 203.784 128.576 201.117 122.87C198.45 117.163 194.217 112.331 188.911 108.937C183.604 105.542 177.443 103.725 171.144 103.696C164.845 103.667 158.667 105.428 153.33 108.774C147.993 112.12 143.716 116.913 140.997 122.595C138.278 128.277 137.229 134.615 137.972 140.87C138.715 147.125 141.22 153.04 145.194 157.928L145.2 157.901Z" fill="#F5EF0D"/>
<path opacity="0.5" d="M145.2 157.901C145.2 157.901 162.309 159.59 170.981 170.198C170.981 170.198 180.141 157.908 196.598 158.162C200.616 153.312 203.175 147.419 203.975 141.171C204.775 134.923 203.784 128.576 201.117 122.87C198.45 117.163 194.217 112.331 188.911 108.937C183.604 105.542 177.443 103.725 171.144 103.696C164.845 103.667 158.667 105.428 153.33 108.774C147.993 112.12 143.716 116.913 140.997 122.595C138.278 128.277 137.229 134.615 137.972 140.87C138.715 147.125 141.22 153.04 145.194 157.928L145.2 157.901Z" fill="white"/>
<path d="M170.413 106.028L169.84 279.617H172.728L170.413 106.028Z" fill="#828282"/>
<path d="M171.281 166.964C171.281 166.964 177.057 156.565 187.457 153.39C187.457 153.39 176.477 155.998 170.994 164.943L171.281 166.964Z" fill="#828282"/>
<path d="M170.655 137.787C170.655 137.787 177.057 127.107 187.457 123.932C187.457 123.932 176.138 127.192 170.655 136.144V137.787Z" fill="#828282"/>
<path d="M170.876 152.979C170.876 152.979 177.057 141.836 187.457 138.635C187.457 138.635 176.216 141.751 170.726 150.703L170.876 152.979Z" fill="#828282"/>
<path d="M170.426 145.018C170.426 145.018 164.852 134.619 154.818 131.443C154.818 131.443 165.406 134.051 170.707 142.997L170.426 145.018Z" fill="#828282"/>
<path d="M170.426 159.453C170.426 159.453 164.852 149.06 154.818 145.885C154.818 145.885 165.406 148.493 170.707 157.432L170.426 159.453Z" fill="#828282"/>
<path d="M46.9962 132.591C46.9962 132.591 76.8774 135.544 92.0233 154.068C92.0233 154.068 108.023 132.61 136.764 133.054C143.786 124.581 148.258 114.288 149.657 103.373C151.057 92.4572 149.327 81.3689 144.669 71.3987C140.01 61.4284 132.616 52.9865 123.346 47.0559C114.076 41.1252 103.312 37.9499 92.3078 37.8995C81.3032 37.8492 70.5107 40.9259 61.187 46.7715C51.8632 52.6171 44.3919 60.991 39.6428 70.9181C34.8937 80.8453 33.0623 91.9174 34.3618 102.845C35.6613 113.773 40.0383 124.106 46.9832 132.643L46.9962 132.591Z" fill="#F5EF0D"/>
<path opacity="0.3" d="M46.9962 132.591C46.9962 132.591 76.8774 135.544 92.0233 154.068C92.0233 154.068 108.023 132.61 136.764 133.054C143.786 124.581 148.258 114.288 149.657 103.373C151.057 92.4572 149.327 81.3689 144.669 71.3987C140.01 61.4284 132.616 52.9865 123.346 47.0559C114.076 41.1252 103.312 37.9499 92.3078 37.8995C81.3032 37.8492 70.5107 40.9259 61.187 46.7715C51.8632 52.6171 44.3919 60.991 39.6428 70.9181C34.8937 80.8453 33.0623 91.9174 34.3618 102.845C35.6613 113.773 40.0383 124.106 46.9832 132.643L46.9962 132.591Z" fill="white"/>
<path d="M91.0323 42.002L90.0217 279.617H95.0682L91.0323 42.002Z" fill="#828282"/>
<path d="M92.5449 148.428C92.5449 148.428 102.631 130.27 120.79 124.721C120.79 124.721 101.627 129.285 92.0428 144.894L92.5449 148.428Z" fill="#828282"/>
<path d="M91.7886 97.9893C91.7886 97.9893 102.631 78.8205 120.79 73.272C120.79 73.272 101.445 78.5336 91.8603 94.1686L91.7886 97.9893Z" fill="#828282"/>
<path d="M92.0886 123.352C92.0886 123.352 102.631 104.542 120.777 98.9932C120.777 98.9932 101.614 103.557 92.0299 119.173L92.0886 123.352Z" fill="#828282"/>
<path d="M91.0518 110.091C91.0518 110.091 81.3175 91.9323 63.7982 86.3838C63.7982 86.3838 82.2889 90.9478 91.5343 106.563L91.0518 110.091Z" fill="#828282"/>
<path d="M91.0518 135.31C91.0518 135.31 81.3175 117.152 63.7982 111.603C63.7982 111.603 82.2889 116.167 91.5343 131.815L91.0518 135.31Z" fill="#828282"/>
<path d="M261.745 191.505C261.713 191.505 262.13 189.425 262.176 189.302C262.658 187.808 264.464 185.22 266.212 185.227C266.502 185.235 266.788 185.304 267.05 185.43C267.312 185.557 267.545 185.737 267.732 185.959C267.92 186.181 268.059 186.44 268.139 186.72C268.22 186.999 268.241 187.292 268.2 187.58C268.076 188.806 266.974 189.856 265.97 190.462C264.803 191.173 261.745 191.505 261.745 191.505Z" fill="#F5EF0D"/>
<path d="M258.355 177.487C260.005 178.074 260.82 181.126 260.767 182.703C260.767 182.834 260.454 184.94 260.422 184.927H260.389C260.526 185.409 260.663 185.924 260.8 186.492C261.048 187.541 261.315 188.734 261.524 190.045C261.76 191.458 261.915 192.884 261.987 194.316C262.08 195.917 262.025 197.523 261.824 199.114C261.824 199.114 261.824 199.153 261.824 199.173C262.039 198.703 262.684 197.426 262.749 197.334C263.604 196.03 266.009 194.003 267.718 194.465C267.996 194.55 268.254 194.693 268.474 194.883C268.694 195.074 268.871 195.309 268.994 195.573C269.117 195.837 269.183 196.124 269.188 196.415C269.192 196.706 269.136 196.995 269.022 197.263C268.578 198.417 267.235 199.134 266.114 199.453C264.842 199.818 262.019 199.388 261.798 199.355C261.557 200.97 261.209 202.567 260.754 204.135C260.5 205.054 260.207 205.967 259.907 206.88L260.318 206.084C261.178 204.78 263.578 202.752 265.292 203.222C265.571 203.307 265.828 203.449 266.048 203.64C266.268 203.831 266.445 204.066 266.568 204.329C266.691 204.593 266.757 204.88 266.762 205.171C266.767 205.462 266.71 205.751 266.596 206.019C266.146 207.166 264.81 207.89 263.682 208.21C262.554 208.529 260.128 208.21 259.489 208.125L259.137 209.175C258.557 210.844 257.977 212.513 257.449 214.162C257.266 214.743 257.11 215.323 256.947 215.903C257.123 215.551 257.273 215.251 257.305 215.251C258.159 213.947 260.565 211.92 262.274 212.382C262.552 212.467 262.81 212.61 263.029 212.8C263.249 212.991 263.427 213.226 263.55 213.49C263.673 213.754 263.739 214.041 263.743 214.332C263.748 214.623 263.692 214.912 263.578 215.18C263.134 216.334 261.791 217.051 260.67 217.37C259.548 217.69 257.351 217.409 256.588 217.305C256.438 217.905 256.288 218.505 256.177 219.092C256.106 219.496 256.008 219.874 255.956 220.285C255.903 220.695 255.845 221.087 255.793 221.484C255.714 222.247 255.623 223.036 255.564 223.786C255.525 224.308 255.493 224.803 255.454 225.299C255.63 224.718 256.001 223.59 256.047 223.499C256.664 222.271 257.584 221.221 258.72 220.448C258.786 220.309 258.862 220.176 258.948 220.05C259.106 219.806 259.314 219.598 259.558 219.439C259.802 219.281 260.077 219.176 260.364 219.131C260.652 219.086 260.945 219.102 261.226 219.179C261.507 219.255 261.768 219.39 261.993 219.574C263.297 220.715 262.991 223.858 262.378 225.299C262.345 225.383 261.85 226.257 261.53 226.805C261.765 226.511 261.993 226.224 262.241 225.924C262.73 225.331 263.232 224.751 263.773 224.125L264.588 223.238C264.855 222.932 265.181 222.645 265.475 222.352C266.179 221.7 266.916 221.048 267.679 220.396C267.163 219.965 265.331 218.44 264.81 217.377C264.288 216.314 263.91 214.854 264.458 213.745C264.578 213.481 264.753 213.244 264.971 213.052C265.189 212.859 265.444 212.715 265.722 212.627C265.999 212.54 266.292 212.512 266.58 212.545C266.869 212.578 267.148 212.672 267.398 212.819C268.878 213.745 269.028 216.901 268.644 218.413C268.644 218.511 268.22 219.567 267.992 220.141C268.454 219.763 268.911 219.378 269.393 219.007C270.776 217.937 272.21 216.901 273.638 215.851C274.075 215.538 274.505 215.199 274.942 214.886C274.753 214.736 272.542 212.93 271.956 211.776C271.434 210.733 271.056 209.259 271.604 208.151C271.717 207.886 271.884 207.648 272.094 207.452C272.305 207.255 272.553 207.104 272.825 207.009C273.097 206.914 273.385 206.877 273.672 206.899C273.959 206.922 274.238 207.004 274.492 207.14C275.972 208.073 276.122 211.222 275.737 212.741C275.737 212.852 275.137 214.371 274.968 214.749C275.926 214.045 276.865 213.328 277.772 212.585C278.994 211.585 280.151 210.507 281.234 209.357C281.149 209.285 278.828 207.401 278.228 206.228C277.706 205.184 277.328 203.711 277.876 202.602C277.997 202.338 278.171 202.102 278.389 201.909C278.607 201.716 278.862 201.572 279.139 201.484C279.416 201.396 279.709 201.367 279.998 201.399C280.286 201.431 280.565 201.524 280.816 201.67C282.296 202.602 282.446 205.758 282.062 207.271C282.062 207.369 281.599 208.529 281.377 209.077L281.462 209.129C282.522 207.943 283.474 206.665 284.305 205.308C284.774 204.571 285.178 203.835 285.556 203.118C285.094 202.811 282.948 201.416 282.296 200.392C281.644 199.369 281.129 197.986 281.547 196.826C281.639 196.547 281.79 196.292 281.989 196.075C282.188 195.859 282.43 195.688 282.699 195.572C282.969 195.456 283.26 195.399 283.554 195.404C283.847 195.408 284.137 195.475 284.402 195.6C285.98 196.363 286.469 199.512 286.254 201.031C286.254 201.116 286.032 201.957 285.863 202.57C286.032 202.244 286.208 201.918 286.358 201.585C286.939 200.392 287.389 199.271 287.786 198.267C288.001 197.693 288.19 197.171 288.36 196.682C288.06 196.148 286.86 193.983 286.743 192.77C286.626 191.558 286.815 190.097 287.728 189.263C287.934 189.058 288.182 188.899 288.455 188.796C288.727 188.694 289.018 188.65 289.309 188.668C289.599 188.686 289.883 188.765 290.14 188.9C290.398 189.035 290.625 189.223 290.805 189.452C291.848 190.853 290.851 193.846 289.944 195.124C289.866 195.235 288.445 196.819 288.432 196.787V196.754C288.282 197.23 288.106 197.739 287.91 198.286C287.538 199.297 287.108 200.438 286.554 201.651C285.974 202.958 285.321 204.231 284.598 205.465C283.788 206.849 282.856 208.158 281.814 209.377L281.775 209.422C282.212 209.155 283.457 208.438 283.555 208.399C284.996 207.779 288.119 207.434 289.279 208.751C289.465 208.975 289.601 209.236 289.679 209.516C289.757 209.797 289.775 210.09 289.732 210.378C289.689 210.666 289.585 210.942 289.429 211.187C289.272 211.432 289.066 211.642 288.823 211.802C287.812 212.513 286.3 212.376 285.185 212.024C283.933 211.62 281.807 209.709 281.644 209.559C280.553 210.774 279.381 211.913 278.137 212.969C277.419 213.621 276.67 214.195 275.913 214.788L276.696 214.351C278.137 213.739 281.26 213.387 282.427 214.71C282.612 214.934 282.747 215.195 282.825 215.475C282.902 215.755 282.919 216.049 282.876 216.336C282.832 216.623 282.728 216.898 282.571 217.143C282.414 217.387 282.207 217.596 281.964 217.755C280.953 218.472 279.441 218.329 278.326 217.977C277.211 217.625 275.359 216.021 274.877 215.597L274.003 216.249C272.601 217.325 271.193 218.394 269.843 219.509C269.367 219.893 268.917 220.285 268.461 220.682L269.113 220.304C270.547 219.685 273.677 219.339 274.838 220.656C275.022 220.881 275.157 221.142 275.235 221.422C275.312 221.702 275.33 221.996 275.287 222.283C275.244 222.571 275.141 222.846 274.985 223.091C274.829 223.337 274.623 223.547 274.381 223.708C273.371 224.418 271.858 224.281 270.743 223.929C269.628 223.577 267.952 222.13 267.379 221.621C266.922 222.039 266.466 222.456 266.075 222.88C265.794 223.18 265.501 223.447 265.234 223.76L264.432 224.666C263.949 225.259 263.441 225.872 262.978 226.459C262.652 226.87 262.326 227.268 262.045 227.665C262.515 227.274 263.447 226.537 263.532 226.485C264.836 225.657 267.907 224.836 269.243 225.97C269.46 226.165 269.633 226.402 269.751 226.668C269.87 226.934 269.931 227.221 269.931 227.512C269.931 227.803 269.87 228.091 269.751 228.356C269.633 228.622 269.46 228.86 269.243 229.054C268.35 229.908 266.831 229.999 265.677 229.823C264.412 229.621 262.111 228.122 261.824 227.933C261.322 228.585 260.839 229.237 260.396 229.889C258.851 232.027 257.644 233.866 256.816 235.163L256.732 235.294L255.649 234.72L255.819 234.466C256.679 233.162 257.938 231.336 259.548 229.211C260.057 228.559 260.611 227.828 261.185 227.111C260.595 226.456 260.042 225.768 259.529 225.051C258.296 225.533 255.734 225.553 255.401 225.553C255.349 226.381 255.304 227.183 255.278 227.946C255.167 230.554 255.173 232.784 255.199 234.322V234.498L254.026 233.931C254.026 232.399 254.084 230.332 254.241 227.894C254.293 227.052 254.365 226.153 254.443 225.233C254.117 225.149 251.457 224.464 250.453 223.662C249.449 222.86 248.575 221.752 248.608 220.519C248.606 220.228 248.666 219.94 248.783 219.674C248.9 219.407 249.071 219.168 249.286 218.972C249.501 218.776 249.755 218.628 250.031 218.536C250.308 218.444 250.6 218.411 250.89 218.44C252.624 218.661 254.084 221.465 254.365 223.004C254.365 223.095 254.456 224.099 254.495 224.731C254.528 224.353 254.56 223.988 254.599 223.603C254.678 222.841 254.776 222.078 254.88 221.256L255.075 220.063C255.134 219.665 255.238 219.248 255.323 218.837C255.532 217.885 255.793 216.933 256.08 215.975C255.428 215.91 253.035 215.629 252.018 215.043C251 214.456 249.879 213.439 249.723 212.213C249.676 211.924 249.692 211.629 249.767 211.347C249.843 211.064 249.978 210.801 250.163 210.575C250.347 210.348 250.578 210.163 250.839 210.032C251.1 209.901 251.386 209.826 251.679 209.814C253.426 209.774 255.291 212.324 255.806 213.797C255.838 213.889 256.093 214.99 256.216 215.597C256.392 215.023 256.562 214.449 256.758 213.876C257.325 212.219 257.944 210.563 258.557 208.907C258.746 208.399 258.929 207.89 259.111 207.382C258.87 207.382 256.04 207.088 254.906 206.436C253.889 205.856 252.767 204.832 252.611 203.607C252.565 203.318 252.58 203.023 252.656 202.74C252.732 202.458 252.866 202.195 253.051 201.968C253.236 201.742 253.466 201.557 253.728 201.426C253.989 201.294 254.275 201.22 254.567 201.207C256.314 201.162 258.179 203.711 258.694 205.191C258.733 205.302 259.092 206.886 259.163 207.29C259.568 206.175 259.959 205.054 260.304 203.939C260.772 202.43 261.143 200.892 261.413 199.336C261.302 199.336 258.348 199.056 257.181 198.384C256.171 197.804 255.043 196.78 254.886 195.554C254.84 195.266 254.855 194.971 254.931 194.688C255.007 194.406 255.142 194.143 255.327 193.916C255.511 193.69 255.742 193.505 256.003 193.373C256.264 193.242 256.55 193.168 256.842 193.155C258.596 193.116 260.454 195.665 260.97 197.139C261.009 197.236 261.282 198.443 261.4 199.016H261.452C261.681 197.443 261.77 195.853 261.719 194.263C261.719 193.39 261.635 192.555 261.55 191.747C260.996 191.747 258.453 191.747 257.338 191.264C256.223 190.782 255.036 189.901 254.73 188.702C254.65 188.421 254.63 188.126 254.672 187.837C254.714 187.547 254.817 187.27 254.975 187.024C255.132 186.777 255.339 186.567 255.584 186.407C255.828 186.246 256.104 186.14 256.392 186.094C258.127 185.859 260.259 188.187 260.956 189.595C260.996 189.673 261.282 190.495 261.485 191.095C261.439 190.73 261.4 190.351 261.354 189.999C261.178 188.695 260.93 187.502 260.702 186.446C260.572 185.853 260.441 185.311 260.311 184.809C259.763 184.536 257.566 183.381 256.816 182.456C256.066 181.53 255.395 180.187 255.695 178.987C255.76 178.707 255.883 178.445 256.055 178.215C256.227 177.985 256.445 177.794 256.696 177.653C256.946 177.512 257.222 177.424 257.508 177.396C257.794 177.367 258.082 177.399 258.355 177.487Z" fill="#F5EF0D"/>
<path d="M290.003 204.467C288.627 204.415 285.896 203.013 285.896 203.013C285.896 203.013 287.369 201.488 287.473 201.403C288.693 200.431 291.627 199.264 293.087 200.236C293.324 200.403 293.524 200.619 293.672 200.868C293.821 201.118 293.915 201.395 293.95 201.684C293.984 201.972 293.958 202.264 293.872 202.541C293.786 202.819 293.643 203.075 293.452 203.294C292.663 204.252 291.164 204.519 290.003 204.467Z" fill="#F5EF0D"/>
<g opacity="0.5">
<path d="M261.745 191.505C261.713 191.505 262.13 189.425 262.176 189.302C262.658 187.808 264.464 185.22 266.212 185.227C266.502 185.235 266.788 185.304 267.05 185.43C267.312 185.557 267.545 185.737 267.732 185.959C267.92 186.181 268.059 186.44 268.139 186.72C268.22 186.999 268.241 187.292 268.2 187.58C268.076 188.806 266.974 189.856 265.97 190.462C264.803 191.173 261.745 191.505 261.745 191.505Z" fill="white"/>
<path d="M258.355 177.487C260.005 178.074 260.82 181.126 260.767 182.703C260.767 182.834 260.454 184.94 260.422 184.927H260.389C260.526 185.409 260.663 185.924 260.8 186.492C261.048 187.541 261.315 188.734 261.524 190.045C261.76 191.458 261.915 192.884 261.987 194.316C262.08 195.917 262.025 197.523 261.824 199.114C261.824 199.114 261.824 199.153 261.824 199.173C262.039 198.703 262.684 197.426 262.749 197.334C263.604 196.03 266.009 194.003 267.718 194.465C267.996 194.55 268.254 194.693 268.474 194.883C268.694 195.074 268.871 195.309 268.994 195.573C269.117 195.837 269.183 196.124 269.188 196.415C269.192 196.706 269.136 196.995 269.022 197.263C268.578 198.417 267.235 199.134 266.114 199.453C264.842 199.818 262.019 199.388 261.798 199.355C261.557 200.97 261.209 202.567 260.754 204.135C260.5 205.054 260.207 205.967 259.907 206.88L260.318 206.084C261.178 204.78 263.578 202.752 265.292 203.222C265.571 203.307 265.828 203.449 266.048 203.64C266.268 203.831 266.445 204.066 266.568 204.329C266.691 204.593 266.757 204.88 266.762 205.171C266.767 205.462 266.71 205.751 266.596 206.019C266.146 207.166 264.81 207.89 263.682 208.21C262.554 208.529 260.128 208.21 259.489 208.125L259.137 209.175C258.557 210.844 257.977 212.513 257.449 214.162C257.266 214.743 257.11 215.323 256.947 215.903C257.123 215.551 257.273 215.251 257.305 215.251C258.159 213.947 260.565 211.92 262.274 212.382C262.552 212.467 262.81 212.61 263.029 212.8C263.249 212.991 263.427 213.226 263.55 213.49C263.673 213.754 263.739 214.041 263.743 214.332C263.748 214.623 263.692 214.912 263.578 215.18C263.134 216.334 261.791 217.051 260.67 217.37C259.548 217.69 257.351 217.409 256.588 217.305C256.438 217.905 256.288 218.505 256.177 219.092C256.106 219.496 256.008 219.874 255.956 220.285C255.903 220.695 255.845 221.087 255.793 221.484C255.714 222.247 255.623 223.036 255.564 223.786C255.525 224.308 255.493 224.803 255.454 225.299C255.63 224.718 256.001 223.59 256.047 223.499C256.664 222.271 257.584 221.221 258.72 220.448C258.786 220.309 258.862 220.176 258.948 220.05C259.106 219.806 259.314 219.598 259.558 219.439C259.802 219.281 260.077 219.176 260.364 219.131C260.652 219.086 260.945 219.102 261.226 219.179C261.507 219.255 261.768 219.39 261.993 219.574C263.297 220.715 262.991 223.858 262.378 225.299C262.345 225.383 261.85 226.257 261.53 226.805C261.765 226.511 261.993 226.224 262.241 225.924C262.73 225.331 263.232 224.751 263.773 224.125L264.588 223.238C264.855 222.932 265.181 222.645 265.475 222.352C266.179 221.7 266.916 221.048 267.679 220.396C267.163 219.965 265.331 218.44 264.81 217.377C264.288 216.314 263.91 214.854 264.458 213.745C264.578 213.481 264.753 213.244 264.971 213.052C265.189 212.859 265.444 212.715 265.722 212.627C265.999 212.54 266.292 212.512 266.58 212.545C266.869 212.578 267.148 212.672 267.398 212.819C268.878 213.745 269.028 216.901 268.644 218.413C268.644 218.511 268.22 219.567 267.992 220.141C268.454 219.763 268.911 219.378 269.393 219.007C270.776 217.937 272.21 216.901 273.638 215.851C274.075 215.538 274.505 215.199 274.942 214.886C274.753 214.736 272.542 212.93 271.956 211.776C271.434 210.733 271.056 209.259 271.604 208.151C271.717 207.886 271.884 207.648 272.094 207.452C272.305 207.255 272.553 207.104 272.825 207.009C273.097 206.914 273.385 206.877 273.672 206.899C273.959 206.922 274.238 207.004 274.492 207.14C275.972 208.073 276.122 211.222 275.737 212.741C275.737 212.852 275.137 214.371 274.968 214.749C275.926 214.045 276.865 213.328 277.772 212.585C278.994 211.585 280.151 210.507 281.234 209.357C281.149 209.285 278.828 207.401 278.228 206.228C277.706 205.184 277.328 203.711 277.876 202.602C277.997 202.338 278.171 202.102 278.389 201.909C278.607 201.716 278.862 201.572 279.139 201.484C279.416 201.396 279.709 201.367 279.998 201.399C280.286 201.431 280.565 201.524 280.816 201.67C282.296 202.602 282.446 205.758 282.062 207.271C282.062 207.369 281.599 208.529 281.377 209.077L281.462 209.129C282.522 207.943 283.474 206.665 284.305 205.308C284.774 204.571 285.178 203.835 285.556 203.118C285.094 202.811 282.948 201.416 282.296 200.392C281.644 199.369 281.129 197.986 281.547 196.826C281.639 196.547 281.79 196.292 281.989 196.075C282.188 195.859 282.43 195.688 282.699 195.572C282.969 195.456 283.26 195.399 283.554 195.404C283.847 195.408 284.137 195.475 284.402 195.6C285.98 196.363 286.469 199.512 286.254 201.031C286.254 201.116 286.032 201.957 285.863 202.57C286.032 202.244 286.208 201.918 286.358 201.585C286.939 200.392 287.389 199.271 287.786 198.267C288.001 197.693 288.19 197.171 288.36 196.682C288.06 196.148 286.86 193.983 286.743 192.77C286.626 191.558 286.815 190.097 287.728 189.263C287.934 189.058 288.182 188.899 288.455 188.796C288.727 188.694 289.018 188.65 289.309 188.668C289.599 188.686 289.883 188.765 290.14 188.9C290.398 189.035 290.625 189.223 290.805 189.452C291.848 190.853 290.851 193.846 289.944 195.124C289.866 195.235 288.445 196.819 288.432 196.787V196.754C288.282 197.23 288.106 197.739 287.91 198.286C287.538 199.297 287.108 200.438 286.554 201.651C285.974 202.958 285.321 204.231 284.598 205.465C283.788 206.849 282.856 208.158 281.814 209.377L281.775 209.422C282.212 209.155 283.457 208.438 283.555 208.399C284.996 207.779 288.119 207.434 289.279 208.751C289.465 208.975 289.601 209.236 289.679 209.516C289.757 209.797 289.775 210.09 289.732 210.378C289.689 210.666 289.585 210.942 289.429 211.187C289.272 211.432 289.066 211.642 288.823 211.802C287.812 212.513 286.3 212.376 285.185 212.024C283.933 211.62 281.807 209.709 281.644 209.559C280.553 210.774 279.381 211.913 278.137 212.969C277.419 213.621 276.67 214.195 275.913 214.788L276.696 214.351C278.137 213.739 281.26 213.387 282.427 214.71C282.612 214.934 282.747 215.195 282.825 215.475C282.902 215.755 282.919 216.049 282.876 216.336C282.832 216.623 282.728 216.898 282.571 217.143C282.414 217.387 282.207 217.596 281.964 217.755C280.953 218.472 279.441 218.329 278.326 217.977C277.211 217.625 275.359 216.021 274.877 215.597L274.003 216.249C272.601 217.325 271.193 218.394 269.843 219.509C269.367 219.893 268.917 220.285 268.461 220.682L269.113 220.304C270.547 219.685 273.677 219.339 274.838 220.656C275.022 220.881 275.157 221.142 275.235 221.422C275.312 221.702 275.33 221.996 275.287 222.283C275.244 222.571 275.141 222.846 274.985 223.091C274.829 223.337 274.623 223.547 274.381 223.708C273.371 224.418 271.858 224.281 270.743 223.929C269.628 223.577 267.952 222.13 267.379 221.621C266.922 222.039 266.466 222.456 266.075 222.88C265.794 223.18 265.501 223.447 265.234 223.76L264.432 224.666C263.949 225.259 263.441 225.872 262.978 226.459C262.652 226.87 262.326 227.268 262.045 227.665C262.515 227.274 263.447 226.537 263.532 226.485C264.836 225.657 267.907 224.836 269.243 225.97C269.46 226.165 269.633 226.402 269.751 226.668C269.87 226.934 269.931 227.221 269.931 227.512C269.931 227.803 269.87 228.091 269.751 228.356C269.633 228.622 269.46 228.86 269.243 229.054C268.35 229.908 266.831 229.999 265.677 229.823C264.412 229.621 262.111 228.122 261.824 227.933C261.322 228.585 260.839 229.237 260.396 229.889C258.851 232.027 257.644 233.866 256.816 235.163L256.732 235.294L255.649 234.72L255.819 234.466C256.679 233.162 257.938 231.336 259.548 229.211C260.057 228.559 260.611 227.828 261.185 227.111C260.595 226.456 260.042 225.768 259.529 225.051C258.296 225.533 255.734 225.553 255.401 225.553C255.349 226.381 255.304 227.183 255.278 227.946C255.167 230.554 255.173 232.784 255.199 234.322V234.498L254.026 233.931C254.026 232.399 254.084 230.332 254.241 227.894C254.293 227.052 254.365 226.153 254.443 225.233C254.117 225.149 251.457 224.464 250.453 223.662C249.449 222.86 248.575 221.752 248.608 220.519C248.606 220.228 248.666 219.94 248.783 219.674C248.9 219.407 249.071 219.168 249.286 218.972C249.501 218.776 249.755 218.628 250.031 218.536C250.308 218.444 250.6 218.411 250.89 218.44C252.624 218.661 254.084 221.465 254.365 223.004C254.365 223.095 254.456 224.099 254.495 224.731C254.528 224.353 254.56 223.988 254.599 223.603C254.678 222.841 254.776 222.078 254.88 221.256L255.075 220.063C255.134 219.665 255.238 219.248 255.323 218.837C255.532 217.885 255.793 216.933 256.08 215.975C255.428 215.91 253.035 215.629 252.018 215.043C251 214.456 249.879 213.439 249.723 212.213C249.676 211.924 249.692 211.629 249.767 211.347C249.843 211.064 249.978 210.801 250.163 210.575C250.347 210.348 250.578 210.163 250.839 210.032C251.1 209.901 251.386 209.826 251.679 209.814C253.426 209.774 255.291 212.324 255.806 213.797C255.838 213.889 256.093 214.99 256.216 215.597C256.392 215.023 256.562 214.449 256.758 213.876C257.325 212.219 257.944 210.563 258.557 208.907C258.746 208.399 258.929 207.89 259.111 207.382C258.87 207.382 256.04 207.088 254.906 206.436C253.889 205.856 252.767 204.832 252.611 203.607C252.565 203.318 252.58 203.023 252.656 202.74C252.732 202.458 252.866 202.195 253.051 201.968C253.236 201.742 253.466 201.557 253.728 201.426C253.989 201.294 254.275 201.22 254.567 201.207C256.314 201.162 258.179 203.711 258.694 205.191C258.733 205.302 259.092 206.886 259.163 207.29C259.568 206.175 259.959 205.054 260.304 203.939C260.772 202.43 261.143 200.892 261.413 199.336C261.302 199.336 258.348 199.056 257.181 198.384C256.171 197.804 255.043 196.78 254.886 195.554C254.84 195.266 254.855 194.971 254.931 194.688C255.007 194.406 255.142 194.143 255.327 193.916C255.511 193.69 255.742 193.505 256.003 193.373C256.264 193.242 256.55 193.168 256.842 193.155C258.596 193.116 260.454 195.665 260.97 197.139C261.009 197.236 261.282 198.443 261.4 199.016H261.452C261.681 197.443 261.77 195.853 261.719 194.263C261.719 193.39 261.635 192.555 261.55 191.747C260.996 191.747 258.453 191.747 257.338 191.264C256.223 190.782 255.036 189.901 254.73 188.702C254.65 188.421 254.63 188.126 254.672 187.837C254.714 187.547 254.817 187.27 254.975 187.024C255.132 186.777 255.339 186.567 255.584 186.407C255.828 186.246 256.104 186.14 256.392 186.094C258.127 185.859 260.259 188.187 260.956 189.595C260.996 189.673 261.282 190.495 261.485 191.095C261.439 190.73 261.4 190.351 261.354 189.999C261.178 188.695 260.93 187.502 260.702 186.446C260.572 185.853 260.441 185.311 260.311 184.809C259.763 184.536 257.566 183.381 256.816 182.456C256.066 181.53 255.395 180.187 255.695 178.987C255.76 178.707 255.883 178.445 256.055 178.215C256.227 177.985 256.445 177.794 256.696 177.653C256.946 177.512 257.222 177.424 257.508 177.396C257.794 177.367 258.082 177.399 258.355 177.487Z" fill="white"/>
<path d="M290.003 204.467C288.627 204.415 285.896 203.013 285.896 203.013C285.896 203.013 287.369 201.488 287.473 201.403C288.693 200.431 291.627 199.264 293.087 200.236C293.324 200.403 293.524 200.619 293.672 200.868C293.821 201.118 293.915 201.395 293.95 201.684C293.984 201.972 293.958 202.264 293.872 202.541C293.786 202.819 293.643 203.075 293.452 203.294C292.663 204.252 291.164 204.519 290.003 204.467Z" fill="white"/>
</g>
<path d="M274.029 238.723C274.029 238.723 265.729 218.713 261.08 219.587C256.432 220.461 269.048 251.483 269.048 251.483C269.048 251.483 254.443 223.936 244.48 223.936C234.518 223.936 248.132 254.384 260.748 264.536C260.748 264.536 240.829 243.072 229.211 247.714C217.592 252.356 252.448 274.107 252.448 274.107C252.448 274.107 232.197 267.724 234.524 272.653C236.852 277.582 243.15 278.456 243.15 278.456L220.246 279.617H299.92L281.997 277.876C281.997 277.876 300.585 268.598 295.604 264.836C290.622 261.074 279.669 269.191 279.669 269.191C279.669 269.191 298.577 248.327 294.939 240.503C291.301 232.679 275.02 254.717 275.02 254.717C275.02 254.717 288.301 226.583 285.648 221.654C282.994 216.725 274.029 238.723 274.029 238.723Z" fill="#F5EF0D"/>
<path opacity="0.4" d="M274.029 238.723C274.029 238.723 265.729 218.713 261.08 219.587C256.432 220.461 269.048 251.483 269.048 251.483C269.048 251.483 254.443 223.936 244.48 223.936C234.518 223.936 248.132 254.384 260.748 264.536C260.748 264.536 240.829 243.072 229.211 247.714C217.592 252.356 252.448 274.107 252.448 274.107C252.448 274.107 232.197 267.724 234.524 272.653C236.852 277.582 243.15 278.456 243.15 278.456L220.246 279.617H299.92L281.997 277.876C281.997 277.876 300.585 268.598 295.604 264.836C290.622 261.074 279.669 269.191 279.669 269.191C279.669 269.191 298.577 248.327 294.939 240.503C291.301 232.679 275.02 254.717 275.02 254.717C275.02 254.717 288.301 226.583 285.648 221.654C282.994 216.725 274.029 238.723 274.029 238.723Z" fill="white"/>
<path d="M276.683 239.779C269.38 261.36 269.38 276.63 269.38 276.63C269.38 276.63 278.013 276.963 286.984 270.319" stroke="#787878" stroke-width="1.15613" stroke-linecap="round" stroke-linejoin="round"/>
<path d="M273.032 251.398C271.525 244.952 269.526 238.631 267.053 232.49" stroke="#787878" stroke-width="1.15613" stroke-linecap="round" stroke-linejoin="round"/>
<path d="M251.45 238.782L270.045 266.335C270.045 266.335 282.655 255.714 286.997 249.735" stroke="#787878" stroke-width="1.15613" stroke-linecap="round" stroke-linejoin="round"/>
<path d="M269.713 272.979C269.713 272.979 250.153 263.682 242.159 258.368" stroke="#787878" stroke-width="1.15613" stroke-linecap="round" stroke-linejoin="round"/>
<path d="M251.607 218.629C251.607 218.629 251.17 233.853 253.061 240.797C254.952 247.74 259.001 263.121 259.724 266.309C260.448 269.498 259.437 274.57 259.437 274.57C259.437 274.57 252.331 277.765 251.463 278.052C250.596 278.339 251.607 279.212 253.204 279.499C254.802 279.786 266.244 280.373 266.831 278.919C267.418 277.465 267.261 272.399 267.842 269.791C268.422 267.183 272.34 258.055 270.45 251.535C268.559 245.015 267.842 239.212 268.415 236.604C268.989 233.996 270.88 227.326 271.46 226.603C272.041 225.879 275.085 223.851 276.246 221.817C276.988 220.375 277.432 218.798 277.55 217.181C277.55 217.181 260.598 220.513 251.607 218.629Z" fill="white" stroke="#263238" stroke-width="1.15613" stroke-linecap="round" stroke-linejoin="round"/>
<path d="M276.252 221.817C276.995 220.375 277.438 218.798 277.556 217.181C277.556 217.181 260.604 220.513 251.607 218.629C251.607 218.629 251.17 233.853 253.061 240.797C254.952 247.74 259.001 263.121 259.724 266.309C259.873 267.02 259.956 267.742 259.972 268.467C262.544 269.428 265.332 269.654 268.024 269.119C268.963 265.859 272.204 257.579 270.456 251.515C268.572 244.995 267.848 239.193 268.422 236.585C268.996 233.977 270.886 227.307 271.467 226.583C272.047 225.859 275.092 223.851 276.252 221.817Z" fill="#263238" stroke="#263238" stroke-width="1.15613" stroke-linecap="round" stroke-linejoin="round"/>
<path d="M261.758 276.618L259.437 274.583C259.437 274.583 252.331 277.778 251.463 278.065C250.596 278.352 251.607 279.226 253.204 279.513C254.802 279.799 266.244 280.386 266.831 278.932C267.121 277.814 267.276 276.665 267.294 275.509L261.758 276.618Z" fill="#F5EF0D" stroke="#263238" stroke-width="1.15613" stroke-linecap="round" stroke-linejoin="round"/>
<path d="M254.795 162.237C255.908 164.059 256.32 166.224 255.956 168.327C255.375 171.952 251.17 177.748 247.982 180.65C244.793 183.551 244.937 188.474 246.678 190.938C248.419 193.403 249.286 193.403 249.286 193.403L243.783 218.922C243.783 218.922 253.348 220.806 260.305 220.806C267.261 220.806 269.296 220.656 272.771 219.789C276.246 218.922 282.316 217.468 282.316 217.468C282.316 217.468 277.1 196.885 277.1 191.388C277.1 185.892 277.68 180.226 277.68 180.226C277.68 180.226 278.697 174.717 273.912 166.599C269.126 158.482 261.452 157.745 258.42 158.469C257.529 158.705 256.719 159.181 256.08 159.845C255.441 160.51 254.996 161.337 254.795 162.237Z" fill="#F5EF0D" stroke="#263238" stroke-width="1.15613" stroke-linecap="round" stroke-linejoin="round"/>
<path d="M249.286 193.403C249.286 193.403 253.061 195.144 256.829 193.553" stroke="#263238" stroke-width="1.15613" stroke-linecap="round" stroke-linejoin="round"/>
<path d="M253.348 194.707V200.947" stroke="#263238" stroke-width="1.15613" stroke-linecap="round" stroke-linejoin="round"/>
<path d="M251.75 194.276L250.596 209.931" stroke="#263238" stroke-width="1.15613" stroke-linecap="round" stroke-linejoin="round"/>
<path d="M273.931 166.586C269.152 158.469 261.465 157.745 258.42 158.469C257.529 158.705 256.719 159.181 256.08 159.845C255.441 160.51 254.996 161.337 254.795 162.237C255.908 164.059 256.32 166.224 255.956 168.327C255.467 171.378 252.409 175.969 249.547 179.079C250.59 179.307 252.435 179.079 254.945 176.301C259.001 171.802 262.189 169.194 265.957 168.034C268.696 167.193 272.197 168.568 274.433 167.44C274.251 167.154 274.101 166.912 273.931 166.586Z" fill="white" stroke="#263238" stroke-width="1.15613" stroke-linecap="round" stroke-linejoin="round"/>
<path d="M249.436 144.092C249.436 144.092 248.419 146.987 248.562 148.728C248.705 150.469 249.286 151.336 248.419 152.933C247.551 154.531 245.954 155.541 246.391 156.265C246.828 156.989 248.999 157.569 248.999 157.569C248.999 157.569 249.866 162.928 250.883 163.509C251.9 164.089 258.277 161.188 259.581 160.757C260.885 160.327 262.626 156.552 261.609 150.749C260.591 144.946 253.628 141.654 249.436 144.092Z" fill="white" stroke="#263238" stroke-width="1.15613" stroke-linecap="round" stroke-linejoin="round"/>
<path d="M251.463 152.568C251.463 153.09 251.235 153.514 250.955 153.514C250.674 153.514 250.446 153.09 250.446 152.568C250.446 152.047 250.674 151.629 250.955 151.629C251.235 151.629 251.463 152.079 251.463 152.568Z" fill="#263238"/>
<path d="M250.016 150.208C250.016 150.208 251.75 149.047 252.624 150.932" stroke="#263238" stroke-width="1.15613" stroke-linecap="round" stroke-linejoin="round"/>
<path d="M247.03 142.403C246.84 142.634 246.741 142.926 246.753 143.224C246.765 143.523 246.887 143.806 247.095 144.02C248.232 145.219 249.553 146.229 251.007 147.013C253.615 148.317 257.097 150.495 257.097 152.959C257.097 155.424 255.649 162.524 257.097 164.989C258.544 167.453 262.463 169.774 264.784 170.068C267.105 170.361 270.437 172.819 271.304 176.881C272.171 180.943 273.501 186.159 278.404 185.168C283.307 184.177 284.344 177.194 282.316 174.006C280.288 170.818 278.404 170.674 279.995 167.192C281.586 163.711 280.575 159.075 277.094 156.174C273.612 153.272 270.86 154.87 270.574 151.388C270.287 147.906 269.074 143.062 266.512 139.652C263.597 135.701 253.224 134.755 247.03 142.403Z" fill="#263238" stroke="#263238" stroke-width="1.15613" stroke-linecap="round" stroke-linejoin="round"/>
<path d="M260.448 212.976C260.448 212.976 259.724 221.093 259.144 221.961C258.564 222.828 256.099 225.005 255.669 226.023C255.238 227.04 256.236 230.808 256.236 230.808C256.236 230.808 257.103 231.675 257.827 231.389C258.551 231.102 258.264 230.515 258.264 230.515C258.264 230.515 257.827 229.648 258.264 229.354C258.701 229.061 260.435 228.631 261.015 227.183C261.403 226.149 261.696 225.082 261.889 223.995L265.514 214.28L260.448 212.976Z" fill="white" stroke="#263238" stroke-width="1.15613" stroke-linecap="round" stroke-linejoin="round"/>
<path d="M257.84 179.952C257.84 179.952 257.553 187.339 257.983 190.384C258.414 193.429 258.714 202.42 257.84 205.895C256.966 209.37 257.553 214.019 257.553 214.019C257.553 214.019 262.189 216.19 264.51 215.903C266.831 215.617 268.422 215.323 268.422 215.323C268.422 215.323 271.03 204.011 271.467 198.938C271.904 193.866 270.886 177.918 270.886 177.918" fill="#F5EF0D"/>
<path d="M257.84 179.952C257.84 179.952 257.553 187.339 257.983 190.384C258.414 193.429 258.714 202.42 257.84 205.895C256.966 209.37 257.553 214.019 257.553 214.019C257.553 214.019 262.189 216.19 264.51 215.903C266.831 215.617 268.422 215.323 268.422 215.323C268.422 215.323 271.03 204.011 271.467 198.938C271.904 193.866 270.886 177.918 270.886 177.918" stroke="#263238" stroke-width="1.15613" stroke-linecap="round" stroke-linejoin="round"/>
<path d="M199.323 174.136H182.201V192.998H199.323V174.136Z" fill="#F5EF0D" stroke="#263238" stroke-width="1.15613" stroke-linecap="round" stroke-linejoin="round"/>
<path d="M192.319 190.21C195.673 189.421 197.753 186.062 196.965 182.708C196.176 179.353 192.817 177.273 189.463 178.062C186.108 178.85 184.028 182.209 184.817 185.564C185.605 188.918 188.964 190.998 192.319 190.21Z" fill="white"/>
<path d="M186.87 180.969C188.306 181.666 189.848 182.12 191.434 182.312C194.042 182.618 195.228 182.253 195.228 182.253C194.916 183.728 194.757 185.231 194.752 186.739C194.805 187.945 190.84 188.193 188.741 187.391C187.811 187.045 186.933 186.571 186.133 185.983C186.133 185.983 186.257 182.436 186.87 180.969Z" fill="white" stroke="#263238" stroke-width="1.15613" stroke-linecap="round" stroke-linejoin="round"/>
<path d="M186.687 182.312C186.687 182.312 189.745 184.64 194.889 183.72" stroke="#263238" stroke-width="1.15613" stroke-linecap="round" stroke-linejoin="round"/>
<path d="M186.381 183.662C186.381 183.662 188.852 186.367 194.629 185.109" stroke="#263238" stroke-width="1.15613" stroke-linecap="round" stroke-linejoin="round"/>
<path d="M186.198 185.129C186.198 185.129 191.095 188.128 194.707 186.433" stroke="#263238" stroke-width="1.15613" stroke-linecap="round" stroke-linejoin="round"/>
<path d="M195.255 182.253C195.255 182.253 197.211 180.108 197.765 181.458C198.319 182.808 197.523 186.022 194.889 186.967" stroke="#263238" stroke-width="1.15613" stroke-linecap="round" stroke-linejoin="round"/>
<path d="M186.87 180.969C186.87 180.969 186.935 179.189 185.892 178.883C184.849 178.576 185.155 183.355 186.133 185.683" stroke="#263238" stroke-width="1.15613" stroke-linecap="round" stroke-linejoin="round"/>
<path d="M153.67 156.226C152.651 157.85 151.751 159.545 150.977 161.298C150.325 163.039 149.706 165.895 149.706 165.895L143.838 162.883L147.639 152.894L153.67 156.226Z" fill="white" stroke="#263238" stroke-width="1.15613" stroke-linecap="round" stroke-linejoin="round"/>
<path d="M159.218 141.008C159.218 141.008 161.598 141.803 162.55 138.948C163.502 136.092 159.851 133.399 154.778 131.971C149.706 130.543 141.484 135.459 139.88 139.267C138.276 143.075 139.724 147.189 137.663 150.045C135.603 152.9 128.151 153.533 127.355 161.129C126.56 168.724 131.319 171.561 130.211 174.279C129.103 176.998 124.506 178.563 125.295 184.588C126.084 190.612 134.964 193.781 138.928 191.401C142.892 189.021 144.32 183.949 143.049 177.768C141.777 171.587 141.152 165.249 144.477 162.869C147.802 160.49 151.61 155.893 151.929 153.676C152.249 151.459 151.453 150.983 153.357 150.344C155.261 149.706 158.742 145.448 159.218 141.008Z" fill="#263238" stroke="#263238" stroke-width="1.15613" stroke-linecap="round" stroke-linejoin="round"/>
<path d="M147.574 206.24C147.574 206.24 149.836 220.584 150.592 230.175C151.349 239.766 150.319 246.762 150.592 252.597C150.895 259.613 151.651 266.602 152.855 273.52C152.855 273.52 160.027 276.532 160.953 277.1C161.879 277.667 163.215 277.667 163.215 278.404C163.215 279.14 157.784 280.49 154.524 279.173C152.914 278.521 149.06 279.362 147.352 278.606C146.263 278.123 147.352 275.215 147.352 273.331C147.352 271.447 144.183 261.452 143.44 256.744C142.697 252.037 141.934 250.531 142.501 247.134C142.876 244.699 143.128 242.246 143.257 239.786C143.257 239.786 137.728 218.811 136.737 215.825C136.102 213.918 135.577 211.976 135.166 210.009" fill="#263238"/>
<path d="M147.574 206.24C147.574 206.24 149.836 220.584 150.592 230.175C151.349 239.766 150.319 246.762 150.592 252.597C150.895 259.613 151.651 266.602 152.855 273.52C152.855 273.52 160.027 276.532 160.953 277.1C161.879 277.667 163.215 277.667 163.215 278.404C163.215 279.14 157.784 280.49 154.524 279.173C152.914 278.521 149.06 279.362 147.352 278.606C146.263 278.123 147.352 275.215 147.352 273.331C147.352 271.447 144.183 261.452 143.44 256.744C142.697 252.037 141.934 250.531 142.501 247.134C142.876 244.699 143.128 242.246 143.257 239.786C143.257 239.786 137.728 218.811 136.737 215.825C136.102 213.918 135.577 211.976 135.166 210.009" stroke="#263238" stroke-width="1.15613" stroke-linecap="round" stroke-linejoin="round"/>
<path d="M160.953 277.1C160.014 276.533 152.855 273.52 152.855 273.52C152.855 273.52 152.151 269.85 151.499 264.014C149.648 265.041 147.504 265.411 145.416 265.064C146.413 268.787 147.372 272.288 147.372 273.331C147.372 275.216 146.283 278.123 147.372 278.606C149.073 279.362 152.927 278.508 154.544 279.173C157.745 280.477 163.209 279.173 163.209 278.417C163.209 277.661 161.898 277.667 160.953 277.1Z" fill="white" stroke="#263238" stroke-width="1.15613" stroke-linecap="round" stroke-linejoin="round"/>
<path d="M147.248 274.811C146.993 276.467 146.557 278.241 147.385 278.606C149.086 279.362 152.94 278.508 154.557 279.173C157.758 280.477 163.222 279.173 163.222 278.417C163.222 277.66 161.918 277.667 160.959 277.113C160.001 276.558 152.861 273.533 152.861 273.533L152.099 275.796L147.248 274.811Z" fill="white" stroke="#263238" stroke-width="1.15613" stroke-linecap="round" stroke-linejoin="round"/>
<path d="M143.212 160.027C144.27 159.833 145.357 159.875 146.397 160.149C147.437 160.423 148.404 160.922 149.23 161.611C152.242 163.991 152.881 167.955 155.417 171.919C157.954 175.883 158.266 179.365 157.315 181.588C156.363 183.812 153.357 190.938 151.766 195.378C150.175 199.818 149.549 206.951 148.597 211.678C147.645 216.405 139.724 216.751 136.711 215.799C133.699 214.847 130.556 210.883 130.237 205.654C129.918 200.425 132.617 198.064 133.256 196.793C133.895 195.521 140.513 185.363 138.928 180.291C137.344 175.218 137.976 169.207 139.091 166.188C140.206 163.169 142.26 160.503 143.212 160.027Z" fill="#263238" stroke="#263238" stroke-width="1.15613" stroke-linecap="round" stroke-linejoin="round"/>
<path d="M149.23 161.611C148.404 160.922 147.437 160.423 146.397 160.149C145.357 159.875 144.27 159.833 143.212 160.027C142.26 160.503 140.2 163.202 139.091 166.214C137.983 169.226 137.344 175.244 138.928 180.317C140.512 185.389 133.888 195.554 133.256 196.819C133.256 196.819 137.924 201.924 150.208 201.944C150.555 199.717 151.08 197.521 151.779 195.378C153.37 190.938 156.343 183.805 157.328 181.588C158.312 179.371 157.98 175.877 155.43 171.919C152.881 167.961 152.242 163.991 149.23 161.611Z" fill="#F5EF0D" stroke="#263238" stroke-width="1.15613" stroke-linecap="round" stroke-linejoin="round"/>
<path d="M179.985 187.293L156.206 189.673C156.206 189.673 154.302 189.197 153.826 188.245C153.435 187.456 145.924 174.736 143.394 170.459C142.556 169.094 142.203 167.486 142.39 165.895C142.605 164.31 143.44 162.726 145.898 162.726C149.888 162.726 152.894 168.731 153.879 170.98C154.224 171.769 154.602 172.539 155 173.302L158.912 180.793L180.95 183.486C180.95 183.486 184.594 181.269 185.227 180.949C185.859 180.63 187.919 180.48 189.034 180.297C190.149 180.115 190.932 179.189 190.932 180.141C190.932 181.093 190.143 181.249 189.667 181.406L187.287 182.201L193.155 183.636C193.323 183.67 193.471 183.77 193.566 183.913C193.661 184.055 193.696 184.23 193.664 184.399C193.653 184.484 193.626 184.566 193.584 184.641C193.541 184.716 193.484 184.781 193.416 184.834C193.349 184.887 193.271 184.926 193.188 184.948C193.105 184.971 193.019 184.977 192.933 184.966L188.715 184.562L192.699 186.485C192.842 186.562 192.951 186.689 193.006 186.842C193.06 186.995 193.055 187.163 192.992 187.313C192.929 187.44 192.826 187.544 192.699 187.607C192.572 187.671 192.428 187.691 192.288 187.665L188.082 186.752L191.219 188.552L191.923 189.204C191.688 190.221 190.658 189.641 190.097 189.38L187.535 188.187L189.732 190.612C189.029 190.6 188.346 190.373 187.776 189.96L185.377 188.245L181.386 187.072L179.985 187.293Z" fill="white" stroke="#263238" stroke-width="1.15613" stroke-linecap="round" stroke-linejoin="round"/>
<path d="M155.391 174.045L155.006 173.302C154.609 172.539 154.231 171.769 153.885 170.98C152.901 168.724 149.895 162.726 145.905 162.726C143.447 162.726 142.612 164.31 142.397 165.895C142.209 167.486 142.563 169.094 143.401 170.459L147.848 177.996L155.391 174.045Z" fill="#F5EF0D" stroke="#263238" stroke-width="1.15613" stroke-linecap="round" stroke-linejoin="round"/>
<path d="M133.256 209.07C133.256 209.07 133.256 217.735 134.006 225.272C134.755 232.809 134.951 241.292 134.195 242.615C133.438 243.939 129.676 250.531 128.92 253.732C128.164 256.933 127.616 270.312 126.468 273.331C125.321 276.35 124.962 278.417 125.719 278.795C126.475 279.173 135.57 279.59 137.526 279.825C139.482 280.06 141.862 279.453 141.914 278.678C141.966 277.902 138.491 276.598 135.662 274.603C132.832 272.607 133.054 270.123 133.054 268.239C133.054 266.355 137.389 254.671 140.969 246.195C144.548 237.719 147.75 216.607 147.75 213.217V207.564" fill="#263238"/>
<path d="M133.256 209.07C133.256 209.07 133.256 217.735 134.006 225.272C134.755 232.809 134.951 241.292 134.195 242.615C133.438 243.939 129.676 250.531 128.92 253.732C128.164 256.933 127.616 270.312 126.468 273.331C125.321 276.35 124.962 278.417 125.719 278.795C126.475 279.173 135.57 279.59 137.526 279.825C139.482 280.06 141.862 279.453 141.914 278.678C141.966 277.902 138.491 276.598 135.662 274.603C132.832 272.607 133.054 270.123 133.054 268.239C133.054 266.355 137.389 254.671 140.969 246.195C144.548 237.719 147.75 216.607 147.75 213.217V207.564" stroke="#263238" stroke-width="1.15613" stroke-linecap="round" stroke-linejoin="round"/>
<path d="M135.662 274.603C132.826 272.608 133.054 270.124 133.054 268.239C133.1 267.698 133.203 267.162 133.36 266.642C131.397 266.65 129.452 266.262 127.642 265.501C127.31 268.924 126.931 272.054 126.455 273.325C125.327 276.337 124.949 278.411 125.706 278.789C126.462 279.167 135.557 279.584 137.513 279.819C139.469 280.054 141.849 279.447 141.901 278.671C141.954 277.896 138.491 276.598 135.662 274.603Z" fill="white" stroke="#263238" stroke-width="1.15613" stroke-linecap="round" stroke-linejoin="round"/>
<path d="M141.914 278.678C141.973 277.902 138.491 276.598 135.662 274.603C134.656 273.949 133.884 272.992 133.458 271.871C133.11 271.863 132.77 271.979 132.499 272.197C131.743 272.953 131.561 275.216 131.561 275.216L126.24 273.977C125.295 276.637 125.021 278.443 125.719 278.795C126.416 279.147 135.57 279.591 137.526 279.825C139.482 280.06 141.862 279.454 141.914 278.678Z" fill="white" stroke="#263238" stroke-width="1.15613" stroke-linecap="round" stroke-linejoin="round"/>
<path d="M158.266 138.315C158.266 138.315 160.327 141.484 160.327 143.225C160.327 144.965 159.851 146.4 159.851 147.508C159.851 148.617 160.803 149.881 160.803 150.833C160.803 151.785 159.375 155.906 158.429 157.014C157.484 158.123 156.526 159.238 154.778 159.075C153.031 158.912 148.258 154.322 148.258 154.322C148.258 154.322 145.878 156.069 145.083 153.213C144.288 150.357 144.294 148.936 145.559 148.617C145.929 148.529 146.316 148.543 146.679 148.658C147.042 148.773 147.367 148.984 147.619 149.269C147.619 149.269 153.8 148.956 155.867 145.467C157.141 143.269 157.957 140.836 158.266 138.315Z" fill="white" stroke="#263238" stroke-width="1.15613" stroke-linecap="round" stroke-linejoin="round"/>
<path d="M148.284 154.322C148.284 154.322 153.037 158.918 154.804 159.075C156.571 159.231 157.504 158.129 158.456 157.015C159.407 155.9 160.829 151.799 160.829 150.834C160.718 150.113 160.498 149.414 160.177 148.76C155.026 150.064 147.678 149.249 147.678 149.249L153.07 150.997L152.118 155.117L148.284 154.322Z" fill="#F5EF0D" stroke="#263238" stroke-width="1.15613" stroke-linecap="round" stroke-linejoin="round"/>
<path d="M158.488 147.593C158.488 148.206 158.28 148.702 158.032 148.702C157.784 148.702 157.575 148.206 157.575 147.593C157.575 146.98 157.778 146.485 158.032 146.485C158.286 146.485 158.488 146.987 158.488 147.593Z" fill="#263238"/>
<path d="M156.793 145.578C156.793 145.578 157.445 143.492 159.01 145.057" stroke="#263238" stroke-width="1.15613" stroke-linecap="round" stroke-linejoin="round"/>
<path d="M218.772 272.119C218.772 272.119 211.991 275.965 210.133 276.859C208.275 277.752 207.036 278.45 210.42 279.382C213.804 280.314 223.29 279.662 224.875 279.578C226.459 279.493 227.118 279.936 227.026 278.195C226.935 276.454 227.026 272.164 227.026 272.164C227.026 272.164 219.724 272.536 218.772 272.119Z" fill="white" stroke="#263238" stroke-width="1.15613" stroke-linecap="round" stroke-linejoin="round"/>
<path d="M219.294 168.829C219.294 168.829 214.378 177.546 214.221 179.913C214.065 182.28 214.065 183.558 214.065 183.558C214.065 183.558 210.257 192.594 208.992 197.347C207.727 202.1 209.944 208.92 210.896 211.137C211.848 213.354 212.956 215.421 212.956 215.421C212.956 215.421 214.697 233.025 214.854 238.241C215.01 243.457 216.757 250.629 217.39 255.356C218.022 260.083 219.613 268.2 219.613 268.2C219.613 268.2 217.866 269.309 217.866 270.098C217.866 270.886 217.709 272.477 217.709 272.477C218.799 272.583 219.867 272.851 220.878 273.273C223.101 274.062 227.398 273.429 227.398 273.429C227.913 270.441 228.231 267.422 228.35 264.393C228.35 260.904 229.615 250.283 229.139 246.639C228.663 242.994 228.193 236.969 228.35 236.207C228.506 235.444 230.091 219.255 230.091 219.255C232.439 215.852 233.708 211.822 233.735 207.688C233.735 200.868 233.423 199.44 233.423 199.44C233.423 199.44 235.163 178.994 234.374 171.861C233.586 164.728 229.758 163 229.758 163L219.294 168.829Z" fill="#263238" stroke="#263238" stroke-width="1.15613" stroke-linecap="round" stroke-linejoin="round"/>
<path d="M234.355 171.841C233.559 164.708 229.758 162.967 229.758 162.967L219.294 168.835C219.294 168.835 214.378 177.553 214.221 179.919C214.065 182.286 214.065 183.564 214.065 183.564C214.065 183.564 210.257 192.601 208.992 197.354C208.67 198.667 208.547 200.021 208.627 201.37C210.453 202.791 214.495 204.969 221.83 204.63C228.096 204.35 231.675 202.674 233.566 201.337C233.543 200.682 233.482 200.029 233.383 199.381C233.383 199.381 235.144 178.974 234.355 171.841Z" fill="white" stroke="#263238" stroke-width="1.15613" stroke-linecap="round" stroke-linejoin="round"/>
<path d="M217.233 134.912C217.233 134.912 211.209 137.605 210.577 140.78C209.944 143.955 211.052 148.708 211.052 149.497C211.052 150.286 208.836 152.509 209.625 153.142C209.841 153.327 210.094 153.465 210.367 153.547C210.639 153.629 210.926 153.653 211.209 153.618C211.89 155.463 212.684 157.264 213.589 159.01C213.839 159.494 214.23 159.89 214.712 160.145C215.193 160.4 215.741 160.502 216.282 160.438C216.757 160.438 218.505 160.118 218.505 160.118L220.565 166.143L228.011 160.275C228.011 160.275 226.746 156.793 227.359 154.889C227.972 152.985 231.004 149.817 231.48 145.22C231.956 140.624 227.515 134.919 223.714 134.28C221.537 133.882 219.292 134.101 217.233 134.912Z" fill="white" stroke="#263238" stroke-width="1.15613" stroke-linecap="round" stroke-linejoin="round"/>
<path d="M223.734 134.273C221.542 133.874 219.283 134.1 217.214 134.925C217.214 134.925 216.679 135.166 215.91 135.577C217.214 135.029 219.457 134.436 219.9 136.666C220.552 139.834 216.418 141.882 217.051 143.323C217.683 144.764 220.063 145.227 220.695 146.967C221.328 148.708 222.123 149.504 222.756 148.715C223.388 147.926 223.075 146.335 224.184 146.015C225.292 145.696 226.896 148.069 226.896 149.96C226.896 151.851 224.836 152.659 224.836 152.659C225.131 153.114 225.528 153.494 225.996 153.768C226.463 154.043 226.988 154.206 227.528 154.244C227.567 154.24 227.607 154.24 227.646 154.244C228.604 152.288 231.069 149.328 231.493 145.207C231.975 140.617 227.548 134.912 223.734 134.273Z" fill="#B2B2B2" stroke="#263238" stroke-width="1.15613" stroke-linecap="round" stroke-linejoin="round"/>
<path d="M211.209 153.611C211.209 153.611 216.281 152.19 217.729 152.822C219.176 153.455 217.077 155.202 215.349 155.515C213.621 155.828 211.209 156.148 211.209 153.611Z" fill="#B2B2B2" stroke="#263238" stroke-width="1.15613" stroke-linecap="round" stroke-linejoin="round"/>
<path d="M213.908 148.226C213.908 148.924 213.693 149.491 213.432 149.491C213.171 149.491 212.956 148.924 212.956 148.226C212.956 147.528 213.165 146.922 213.432 146.922C213.7 146.922 213.908 147.522 213.908 148.226Z" fill="#263238"/>
<path d="M212.161 145.689C212.521 145.381 212.987 145.225 213.461 145.254C213.934 145.283 214.377 145.495 214.697 145.846" stroke="#263238" stroke-width="1.15613" stroke-linecap="round" stroke-linejoin="round"/>
<path d="M218.505 160.112C218.505 160.112 222.462 159.16 224.047 155.834" stroke="#263238" stroke-width="1.15613" stroke-linecap="round" stroke-linejoin="round"/>
<path d="M217.553 166.912L218.661 170.394L231.049 162.785L229.621 158.351C229.621 158.351 218.661 164.871 217.553 166.912Z" fill="white" stroke="#263238" stroke-width="1.15613" stroke-linecap="round" stroke-linejoin="round"/>
<path d="M222.462 191.975C222.462 191.975 209.468 192.764 206.612 192.764C204.522 192.689 202.447 192.37 200.431 191.812C200.431 191.812 198.847 189.595 198.215 188.963C197.582 188.33 196.154 188.167 194.726 188.167C193.298 188.167 192.034 187.515 192.034 188.487C192.034 189.458 192.686 189.439 193.298 189.752L195.202 190.704C195.202 190.704 190.443 190.867 189.81 190.867C189.178 190.867 187.75 189.915 187.906 191.179C188.063 192.444 189.178 192.607 190.286 192.607C191.395 192.607 195.039 194.348 196.154 194.348C197.269 194.348 200.112 194.511 200.112 194.511C200.112 194.511 206.632 195.776 210.896 197.523C215.16 199.271 225.162 199.897 226.27 199.108C227.379 198.319 227.548 191.975 227.548 191.975H222.462Z" fill="white" stroke="#263238" stroke-width="1.15613" stroke-linecap="round" stroke-linejoin="round"/>
<path d="M220.565 177.077L219.45 191.688C220.856 192.769 222.594 193.329 224.366 193.272C226.503 193.235 228.629 192.97 230.71 192.483C230.71 192.483 231.819 177.742 231.18 174.729C230.541 171.717 229.915 171.241 228.487 171.241" fill="white"/>
<path d="M220.565 177.077L219.45 191.688C220.856 192.769 222.594 193.329 224.366 193.272C226.503 193.235 228.629 192.97 230.71 192.483C230.71 192.483 231.819 177.742 231.18 174.729C230.541 171.717 229.915 171.241 228.487 171.241" stroke="#263238" stroke-width="1.15613" stroke-linecap="round" stroke-linejoin="round"/>
<path d="M77.2359 271.754C77.2359 271.754 69.5815 275.738 67.6907 276.67C65.7999 277.602 64.5415 278.346 67.9906 279.343C71.4397 280.341 81.1088 279.663 82.7193 279.578C84.3297 279.493 85.0078 279.963 84.91 278.117C84.8122 276.272 84.584 272.602 84.584 272.602C84.584 272.602 78.24 272.21 77.2359 271.754Z" fill="white" stroke="#263238" stroke-width="1.15613" stroke-linecap="round" stroke-linejoin="round"/>
<path d="M111.081 270.913C110.558 272.351 109.871 273.725 109.034 275.007C107.952 276.455 104.816 278.267 104.816 278.984V279.708H117.288C117.288 279.708 118.671 278.619 118.671 277.752C118.671 276.885 117.947 271.61 117.947 271.61L111.081 270.913Z" fill="white" stroke="#263238" stroke-width="1.15613" stroke-linecap="round" stroke-linejoin="round"/>
<path d="M85.3078 204.787C85.3078 204.787 82.778 212.741 80.4895 220.807C78.201 228.872 75.43 238.411 74.9475 242.368C74.465 246.326 77.7185 268.742 77.7185 268.742C77.4539 268.908 77.2372 269.14 77.0898 269.416C76.9423 269.691 76.8691 270.001 76.8774 270.313C76.9218 270.809 77.0427 271.295 77.236 271.754C77.236 271.754 81.3306 272.843 82.4129 272.843C83.1427 272.832 83.8697 272.751 84.584 272.602C84.584 272.602 85.1839 249.13 85.1839 246.346C85.2126 244.974 85.1319 243.603 84.9427 242.244L95.4464 217.579L97.3502 218.036C97.3502 218.036 99.1563 240.204 99.6387 242.851C100.121 245.498 110.358 268.279 110.358 268.279C110.358 268.279 109.999 270.085 110.358 270.926C110.55 271.303 110.673 271.712 110.723 272.132C111.707 272.371 112.716 272.491 113.728 272.491C115.164 272.388 116.581 272.106 117.947 271.65C117.947 271.65 117.706 269.961 117.347 268.279C116.947 266.732 116.464 265.209 115.9 263.715L110.116 240.243C110.116 240.243 112.072 210.74 111.922 207.728C111.808 205.751 111.404 203.803 110.723 201.944C110.723 201.944 95.9028 208.282 85.3078 204.787Z" fill="#263238" stroke="#263238" stroke-width="1.15613" stroke-linecap="round" stroke-linejoin="round"/>
<path d="M83.756 164.995C83.756 164.995 77.4968 164.682 74.3607 166.717C71.2245 168.751 70.9181 175.799 70.4487 176.738C69.9792 177.677 67.0061 189.889 66.6931 191.617C66.3802 193.344 69.5098 196.78 70.7616 195.998C72.0134 195.216 77.1838 181.908 77.1838 181.908C77.1838 181.908 84.6949 195.692 85.3208 197.1C85.9467 198.508 85.0078 206.026 85.0078 206.026C85.0078 206.026 86.7356 209.286 95.0356 208.999C103.336 208.712 111.336 204.304 111.336 204.304C111.336 204.304 109.927 195.692 109.614 193.97C109.301 192.249 108.362 176.901 106.641 170.948C104.92 164.995 101.471 162.805 98.8172 162.805C95.679 162.781 92.542 162.937 89.4219 163.274C87.504 163.747 85.6127 164.321 83.756 164.995Z" fill="white" stroke="#263238" stroke-width="1.15613" stroke-linecap="round" stroke-linejoin="round"/>
<path d="M80.3134 165.934C80.3134 165.934 86.2662 174.547 87.831 175.173C89.3958 175.799 91.743 165.934 91.743 165.934L90.4911 158.573C90.4911 158.573 83.756 159.669 80.9393 160.92C78.1227 162.172 80.3134 165.934 80.3134 165.934Z" fill="white" stroke="#263238" stroke-width="1.15613" stroke-linecap="round" stroke-linejoin="round"/>
<path d="M77.9662 164.995C77.9662 164.995 82.0347 170.159 84.3819 170.472C86.7291 170.785 88.2939 170.472 89.3958 167.812C90.0152 166.299 90.1782 160.451 90.1782 160.451L77.0273 163.711L77.9662 164.995Z" fill="white" stroke="#263238" stroke-width="1.15613" stroke-linecap="round" stroke-linejoin="round"/>
<path d="M77.6533 144.64C75.8974 145.876 74.4932 147.548 73.5783 149.491C72.3264 152.464 75.2995 159.199 75.2995 159.199C75.2995 159.199 74.3607 164.682 75.9515 165.152C77.5424 165.621 82.8432 165.804 86.1358 164.369C89.4284 162.935 91.2996 160.457 91.4561 159.805C91.6126 159.153 91.1431 154.485 91.1431 154.485C91.1431 154.485 90.6281 149.308 88.1439 145.396C87.179 143.916 80.1569 142.599 77.6533 144.64Z" fill="#263238" stroke="#263238" stroke-width="1.15613" stroke-linecap="round" stroke-linejoin="round"/>
<path d="M80.0005 146.987C80.0005 146.987 78.7487 147.3 76.7405 149.803C74.7323 152.307 74.6997 156.226 74.6997 156.226L74.3151 156.493C74.8236 158.045 75.3257 159.199 75.3257 159.199C75.3257 159.199 74.3868 164.682 75.9777 165.152C77.5685 165.621 82.8693 165.804 86.1619 164.369C89.4545 162.935 91.3257 160.457 91.4822 159.805C91.6387 159.153 91.1693 154.485 91.1693 154.485C86.8921 147.3 80.0005 146.987 80.0005 146.987Z" fill="white" stroke="#263238" stroke-width="1.15613" stroke-linecap="round" stroke-linejoin="round"/>
<path d="M91.4299 159.825C91.5864 159.173 91.117 154.505 91.117 154.505C91.117 154.505 91.117 154.459 91.117 154.387C83.619 161.409 75.3125 159.199 75.3125 159.199C75.3125 159.199 74.3736 164.682 75.9645 165.152C77.5554 165.621 82.8561 165.804 86.1487 164.369C89.4413 162.935 91.28 160.451 91.4299 159.825Z" fill="#263238" stroke="#263238" stroke-width="1.15613" stroke-linecap="round" stroke-linejoin="round"/>
<path d="M69.1121 181.406C68.1015 185.364 66.8692 190.534 66.6736 191.617C66.3541 193.338 69.4902 196.78 70.7421 195.998C71.5375 195.502 73.9043 189.96 75.5343 185.977L69.1121 181.406Z" fill="white" stroke="#263238" stroke-width="1.15613" stroke-linecap="round" stroke-linejoin="round"/>
<path d="M66.8496 189.889C66.8496 189.889 65.5912 196.154 65.7477 198.815C65.9042 201.475 74.8301 214.945 74.8301 214.945L75.6125 211.685C75.6125 211.685 72.7958 198.997 72.4829 196.65C72.289 195.136 72.1845 193.612 72.1699 192.086" fill="white"/>
<path d="M66.8496 189.889C66.8496 189.889 65.5912 196.154 65.7477 198.815C65.9042 201.475 74.8301 214.945 74.8301 214.945L75.6125 211.685C75.6125 211.685 72.7958 198.997 72.4829 196.65C72.289 195.136 72.1845 193.612 72.1699 192.086" stroke="#263238" stroke-width="1.15613" stroke-linecap="round" stroke-linejoin="round"/>
<path d="M73.5457 220.031C73.4426 220.646 73.529 221.278 73.7935 221.843C74.2303 222.587 76.7927 223.336 76.8513 222.9C76.91 222.463 76.9165 221.028 76.9165 221.028L73.5457 220.031Z" fill="white" stroke="#263238" stroke-width="1.15613" stroke-linecap="round" stroke-linejoin="round"/>
<path d="M73.3565 218.844C73.2575 219.46 73.3461 220.091 73.6108 220.656C74.0476 221.406 76.6035 222.149 76.6687 221.713C76.7339 221.276 76.7274 219.841 76.7274 219.841L73.3565 218.844Z" fill="white" stroke="#263238" stroke-width="1.15613" stroke-linecap="round" stroke-linejoin="round"/>
<path d="M73.1088 217.221C73.0057 217.836 73.0922 218.468 73.3566 219.033C73.7934 219.783 76.3558 220.533 76.4144 220.096C76.4731 219.659 76.4796 218.218 76.4796 218.218L73.1088 217.221Z" fill="white" stroke="#263238" stroke-width="1.15613" stroke-linecap="round" stroke-linejoin="round"/>
<path d="M75.2995 210.877C75.2995 210.877 72.9523 216.041 72.9523 216.823C72.9523 217.605 76.2123 219.17 76.2123 219.17L76.3687 209.149L75.2995 210.877Z" fill="white" stroke="#263238" stroke-width="1.15613" stroke-linecap="round" stroke-linejoin="round"/>
<path d="M107.971 208.51H75.2865V237.85H107.971V208.51Z" fill="#F5EF0D" stroke="#263238" stroke-width="1.15613" stroke-linecap="round" stroke-linejoin="round"/>
<path d="M93.5133 234.513C98.5793 233.31 101.711 228.227 100.508 223.161C99.3044 218.095 94.2223 214.964 89.1563 216.167C84.0903 217.37 80.9589 222.452 82.162 227.518C83.3652 232.584 88.4473 235.716 93.5133 234.513Z" fill="white"/>
<path d="M85.236 220.598C87.4181 221.66 89.7632 222.347 92.1733 222.632C96.1505 223.095 97.9109 222.541 97.9109 222.541C97.4383 224.768 97.1958 227.038 97.1872 229.315C97.2589 231.14 91.2474 231.512 88.1048 230.306C86.6777 229.801 85.3314 229.092 84.108 228.2C84.108 228.2 84.3167 222.814 85.236 220.598Z" fill="white" stroke="#263238" stroke-width="1.15613" stroke-linecap="round" stroke-linejoin="round"/>
<path d="M84.9622 222.632C84.9622 222.632 89.5848 226.146 97.3502 224.757" stroke="#263238" stroke-width="1.15613" stroke-linecap="round" stroke-linejoin="round"/>
<path d="M84.4993 224.667C84.4993 224.667 88.2352 228.761 96.9525 226.851" stroke="#263238" stroke-width="1.15613" stroke-linecap="round" stroke-linejoin="round"/>
<path d="M84.2189 226.896C84.2189 226.896 91.6191 231.427 97.0763 228.852" stroke="#263238" stroke-width="1.15613" stroke-linecap="round" stroke-linejoin="round"/>
<path d="M97.9109 222.541C97.9109 222.541 100.871 219.281 101.699 221.335C102.527 223.389 101.327 228.272 97.3567 229.661" stroke="#263238" stroke-width="1.15613" stroke-linecap="round" stroke-linejoin="round"/>
<path d="M85.236 220.598C85.236 220.598 85.3338 217.918 83.7559 217.455C82.1781 216.992 82.6475 224.204 84.1276 227.718" stroke="#263238" stroke-width="1.15613" stroke-linecap="round" stroke-linejoin="round"/>
<path d="M94.0707 208.51H89.1807V213.654H94.0707V208.51Z" fill="white" stroke="#263238" stroke-width="1.15613" stroke-linecap="round" stroke-linejoin="round"/>
<path d="M97.311 212.656L110.064 194.59C110.506 194.224 110.833 193.738 111.006 193.191C111.178 192.644 111.188 192.059 111.036 191.506C110.716 190.534 104.992 167.616 104.992 167.616C104.992 167.616 101.797 162.185 98.4194 165.504C95.681 168.203 97.6696 174.358 98.5107 176.588C98.8041 177.364 99.0714 178.146 99.3126 178.942L102.364 192.014L93.6924 211.574C93.6924 211.574 90.0542 213.491 89.4805 213.856C88.9067 214.221 87.7527 215.851 87.0746 216.692C86.3965 217.533 85.2164 217.716 85.9988 218.185C86.7812 218.655 87.3028 218.075 87.6744 217.762L89.5066 216.19L87.7788 221.771C87.7291 221.928 87.7404 222.098 87.8105 222.247C87.8807 222.395 88.0044 222.512 88.1569 222.573C88.3113 222.636 88.4839 222.637 88.6391 222.576C88.7943 222.516 88.9204 222.398 88.9915 222.247L90.7388 218.557L90.3607 222.802C90.3478 222.958 90.3964 223.114 90.4961 223.236C90.5959 223.357 90.739 223.435 90.8953 223.454C91.0346 223.47 91.1753 223.438 91.294 223.363C91.4126 223.289 91.502 223.176 91.5473 223.043L92.8513 219.131L92.7861 222.606L92.9556 223.499C93.9141 223.812 93.9467 222.671 94.0054 222.078L94.2857 219.372L95.205 222.384C95.5615 221.797 95.7235 221.113 95.668 220.428L95.4332 217.599L96.4373 213.719L97.311 212.656Z" fill="white" stroke="#263238" stroke-width="1.15613" stroke-linecap="round" stroke-linejoin="round"/>
<path d="M99.5474 179.691L99.3127 178.922C99.0715 178.127 98.8041 177.344 98.5107 176.568C97.6697 174.358 95.6811 168.203 98.4195 165.484C101.797 162.166 104.992 167.597 104.992 167.597C104.992 167.597 106.165 172.343 107.404 177.298L99.5474 179.691Z" fill="white" stroke="#263238" stroke-width="1.15613" stroke-linecap="round" stroke-linejoin="round"/>
<path d="M114.524 237.915H68.0753V279.61H114.524V237.915Z" fill="#F5EF0D" stroke="#263238" stroke-width="1.15613" stroke-linecap="round" stroke-linejoin="round"/>
<path d="M90.6085 273.253C97.6014 273.253 103.27 267.584 103.27 260.592C103.27 253.599 97.6014 247.93 90.6085 247.93C83.6156 247.93 77.9467 253.599 77.9467 260.592C77.9467 267.584 83.6156 273.253 90.6085 273.253Z" fill="white"/>
<path d="M82.439 254.202C85.3696 255.629 88.519 256.555 91.756 256.94C97.1024 257.559 99.4627 256.816 99.4627 256.816C99.4627 256.816 98.3347 262.032 98.4912 265.944C98.589 268.396 90.5172 268.891 86.2923 267.248C84.3834 266.56 82.5846 265.598 80.9524 264.392C80.9524 264.392 81.2002 257.188 82.439 254.202Z" fill="white" stroke="#263238" stroke-width="1.15613" stroke-linecap="round" stroke-linejoin="round"/>
<path d="M82.0673 256.94C82.0673 256.94 88.2808 261.66 98.7128 259.796" stroke="#263238" stroke-width="1.15613" stroke-linecap="round" stroke-linejoin="round"/>
<path d="M81.4479 259.672C81.4479 259.672 86.4683 265.168 98.1782 262.606" stroke="#263238" stroke-width="1.15613" stroke-linecap="round" stroke-linejoin="round"/>
<path d="M81.0763 262.652C81.0763 262.652 91.0128 268.742 98.3413 265.26" stroke="#263238" stroke-width="1.15613" stroke-linecap="round" stroke-linejoin="round"/>
<path d="M99.4626 256.816C99.4626 256.816 103.433 252.467 104.555 255.199C105.676 257.931 104.059 264.516 98.6868 266.381" stroke="#263238" stroke-width="1.15613" stroke-linecap="round" stroke-linejoin="round"/>
<path d="M82.4389 254.202C82.4389 254.202 82.5693 250.603 80.4829 249.983C78.3965 249.364 78.9898 259.053 80.9784 263.773" stroke="#263238" stroke-width="1.15613" stroke-linecap="round" stroke-linejoin="round"/>
<path d="M94.0772 237.915H89.9565V244.826H94.0772V237.915Z" fill="white" stroke="#263238" stroke-width="1.15613" stroke-linecap="round" stroke-linejoin="round"/>
<path d="M71.4332 220.617H38.7484V249.957H71.4332V220.617Z" fill="#F5EF0D" stroke="#263238" stroke-width="1.15613" stroke-linecap="round" stroke-linejoin="round"/>
<path d="M57.3304 246.635C62.3874 245.395 65.4816 240.29 64.2413 235.233C63.001 230.176 57.8961 227.082 52.8391 228.322C47.782 229.562 44.6879 234.667 45.9282 239.724C47.1684 244.781 52.2734 247.876 57.3304 246.635Z" fill="white"/>
<path d="M49.0044 232.718C51.1852 233.784 53.5309 234.471 55.9417 234.752C59.9189 235.215 61.6793 234.661 61.6793 234.661C61.2063 236.891 60.9638 239.163 60.9556 241.442C61.0273 243.261 55.0158 243.633 51.8732 242.433C50.4518 241.92 49.1121 241.204 47.896 240.308C47.896 240.308 48.0851 234.942 49.0044 232.718Z" fill="white" stroke="#263238" stroke-width="1.15613" stroke-linecap="round" stroke-linejoin="round"/>
<path d="M48.7306 234.752C48.7306 234.752 53.3533 238.267 61.1186 236.884" stroke="#263238" stroke-width="1.15613" stroke-linecap="round" stroke-linejoin="round"/>
<path d="M48.248 236.793C48.248 236.793 51.984 240.888 60.7078 238.978" stroke="#263238" stroke-width="1.15613" stroke-linecap="round" stroke-linejoin="round"/>
<path d="M47.9873 239.01C47.9873 239.01 55.3875 243.542 60.8447 240.966" stroke="#263238" stroke-width="1.15613" stroke-linecap="round" stroke-linejoin="round"/>
<path d="M61.6792 234.661C61.6792 234.661 64.6393 231.401 65.4673 233.462C66.2954 235.522 65.1022 240.399 61.125 241.788" stroke="#263238" stroke-width="1.15613" stroke-linecap="round" stroke-linejoin="round"/>
<path d="M49.0044 232.718C49.0044 232.718 49.1022 230.038 47.5308 229.575C45.9595 229.113 46.4159 236.33 47.896 239.844" stroke="#263238" stroke-width="1.15613" stroke-linecap="round" stroke-linejoin="round"/>
<path d="M57.5326 220.617H52.6426V225.761H57.5326V220.617Z" fill="white" stroke="#263238" stroke-width="1.15613" stroke-linecap="round" stroke-linejoin="round"/>
<path d="M71.4332 250.27H38.7484V279.61H71.4332V250.27Z" fill="#F5EF0D" stroke="#263238" stroke-width="1.15613" stroke-linecap="round" stroke-linejoin="round"/>
<path d="M61.4683 274.064C65.3011 270.54 65.5511 264.576 62.0267 260.743C58.5022 256.91 52.538 256.66 48.7052 260.184C44.8725 263.709 44.6225 269.673 48.1469 273.506C51.6713 277.339 57.6355 277.589 61.4683 274.064Z" fill="white"/>
<path d="M49.0044 262.371C51.1865 263.433 53.5316 264.121 55.9417 264.405C59.9189 264.868 61.6793 264.314 61.6793 264.314C61.2067 266.541 60.9642 268.811 60.9556 271.088C61.0273 272.914 55.0158 273.286 51.8732 272.079C50.4518 271.567 49.1121 270.851 47.896 269.954C47.896 269.954 48.0851 264.588 49.0044 262.371Z" fill="white" stroke="#263238" stroke-width="1.15613" stroke-linecap="round" stroke-linejoin="round"/>
<path d="M48.7306 264.405C48.7306 264.405 53.3533 267.92 61.1186 266.531" stroke="#263238" stroke-width="1.15613" stroke-linecap="round" stroke-linejoin="round"/>
<path d="M48.248 266.44C48.248 266.44 51.984 270.535 60.7078 268.624" stroke="#263238" stroke-width="1.15613" stroke-linecap="round" stroke-linejoin="round"/>
<path d="M47.9873 268.657C47.9873 268.657 55.4201 273.188 60.8447 270.58" stroke="#263238" stroke-width="1.15613" stroke-linecap="round" stroke-linejoin="round"/>
<path d="M61.6792 264.314C61.6792 264.314 64.6393 261.054 65.4673 263.108C66.2954 265.162 65.1022 270.046 61.125 271.434" stroke="#263238" stroke-width="1.15613" stroke-linecap="round" stroke-linejoin="round"/>
<path d="M49.0044 262.371C49.0044 262.371 49.1022 259.692 47.5308 259.229C45.9595 258.766 46.4159 265.977 47.896 269.491" stroke="#263238" stroke-width="1.15613" stroke-linecap="round" stroke-linejoin="round"/>
<path d="M57.5326 250.27H52.6426V255.414H57.5326V250.27Z" fill="white" stroke="#263238" stroke-width="1.15613" stroke-linecap="round" stroke-linejoin="round"/>
<path d="M24.2087 279.877H298.342" stroke="#263238" stroke-width="1.15613" stroke-linecap="round" stroke-linejoin="round"/>
</svg>
