<svg width="299" height="268" viewBox="0 0 299 268" fill="none" xmlns="http://www.w3.org/2000/svg">
<path d="M63.3874 69.1643L58.7177 103.388L112.683 110.751L117.353 76.528L63.3874 69.1643Z" fill="#EBEBEB"/>
<path d="M63.3879 69.1577C65.2836 71.5497 67.2331 73.8401 69.1467 76.1902C71.0603 78.5403 73.0337 80.8127 74.9951 83.0971C77.0343 85.4891 79.0914 87.8811 81.1426 90.2193C81.2083 90.291 81.2622 90.3688 81.3279 90.4465C83.1498 92.5276 84.9777 94.6066 86.8116 96.6837L87.0807 96.9827L87.4156 96.7674C89.7358 95.2564 92.0521 93.7375 94.3643 92.2106C94.4468 92.163 94.5266 92.1111 94.6035 92.0551C97.2308 90.3329 99.846 88.5927 102.449 86.8346C104.937 85.1602 107.437 83.4559 109.918 81.7516C112.4 80.0473 114.888 78.3071 117.351 76.5191C114.792 77.9902 112.257 79.551 109.715 81.0699C107.174 82.5888 104.638 84.1735 102.108 85.7642C99.2939 87.5143 96.4793 89.2944 93.6647 91.1043C91.5557 92.4438 89.4468 93.7913 87.3378 95.1468C85.6814 93.281 84.013 91.4033 82.3386 89.5555C80.114 87.0758 77.8795 84.608 75.635 82.1523C73.6177 79.9516 71.5945 77.7589 69.5653 75.5743C67.4783 73.4454 65.457 71.2627 63.3879 69.1577Z" fill="white"/>
<path d="M93.4674 91.876C93.4888 91.8965 93.5088 91.9185 93.5272 91.9418L94.2807 92.779C95.4767 94.1065 96.7145 95.3862 97.9763 96.642C99.5192 98.1849 101.104 99.6859 102.701 101.175C104.297 102.664 105.924 104.099 107.592 105.51C109.261 106.922 110.941 108.321 112.699 109.625C111.258 107.968 109.709 106.401 108.196 104.841C106.683 103.28 105.063 101.797 103.478 100.314C101.893 98.8307 100.243 97.3776 98.5803 95.9603C97.2587 94.8301 95.9072 93.7178 94.5139 92.6534C94.195 92.4022 93.872 92.157 93.5451 91.9178L93.4674 91.876Z" fill="white"/>
<path d="M58.9927 102.305C61.0438 101.515 63.0471 100.624 65.0205 99.7095C66.9939 98.7946 68.9494 97.8139 70.8989 96.8331C72.8483 95.8524 74.7679 94.8119 76.6636 93.7355C78.2124 92.8624 79.7433 91.9415 81.2443 91.0086C81.5732 90.8053 81.8901 90.602 82.207 90.4106L82.2788 90.3628C82.2494 90.3704 82.2185 90.3704 82.1891 90.3628L81.0529 90.8232C79.4323 91.4751 77.8416 92.1927 76.2689 92.9222C74.2895 93.8432 72.34 94.8119 70.3965 95.8046C68.453 96.7973 66.5335 97.8258 64.6318 98.9082C62.7302 99.9906 60.8285 101.091 58.9927 102.305Z" fill="white"/>
<path d="M77.1402 19.6392L32.509 30.9658L39.6919 59.2689L84.323 47.9424L77.1402 19.6392Z" fill="#EBEBEB"/>
<path d="M32.5073 30.9633C34.7498 32.2311 37.0043 33.4151 39.2528 34.647C41.5012 35.8789 43.7617 37.039 46.0221 38.235C48.3782 39.4669 50.7403 40.6689 53.1024 41.8709L53.3177 41.9904L59.5907 45.1419L59.8957 45.2914L60.0931 45.0163C61.4326 43.0968 62.7601 41.1712 64.0937 39.2456C64.143 39.1803 64.1889 39.1124 64.2312 39.0423C65.7462 36.8656 67.2451 34.6729 68.7282 32.4643C70.1514 30.3653 71.5687 28.2365 72.974 26.1136C74.3793 23.9907 75.7786 21.8379 77.16 19.6611C75.6171 21.6226 74.1281 23.6498 72.6152 25.6411C71.1022 27.6325 69.6252 29.6836 68.1421 31.7288C66.4917 33.9972 64.8472 36.2855 63.2086 38.5938C61.9847 40.3121 60.7588 42.0363 59.5309 43.7665C57.6173 42.8097 55.7157 41.8828 53.82 40.9619C51.2845 39.7181 48.749 38.4902 46.2135 37.2782C43.9411 36.1958 41.6627 35.1194 39.3843 34.067C37.1059 33.0145 34.8036 31.956 32.5073 30.9633Z" fill="white"/>
<path d="M63.2924 39.2217C63.313 39.2359 63.335 39.2479 63.3581 39.2576L64.2133 39.6762C65.5727 40.334 66.9461 40.9519 68.3335 41.53C70.0318 42.2595 71.7481 42.9293 73.4703 43.5871C75.1926 44.2449 76.9268 44.8608 78.6789 45.4409C80.431 46.0209 82.1951 46.5831 83.9891 47.0495C82.3327 46.2063 80.6463 45.4588 78.954 44.7352C77.2616 44.0117 75.5274 43.3419 73.8112 42.6841C72.0949 42.0263 70.3488 41.4044 68.5966 40.8243C67.2033 40.3579 65.792 39.9094 64.3628 39.5147C64.0339 39.419 63.705 39.3353 63.3701 39.2456L63.2924 39.2217Z" fill="white"/>
<path d="M39.5697 58.3578C40.9272 57.096 42.2129 55.7625 43.4687 54.411C44.7245 53.0595 45.9563 51.6841 47.1703 50.3027C48.3842 48.9213 49.5623 47.4861 50.7045 46.045C51.6433 44.849 52.5642 43.653 53.4373 42.457L53.9935 41.6736C53.9935 41.6736 53.9935 41.6317 54.0353 41.6138L53.9755 41.6676C53.7244 41.9068 53.4732 42.14 53.228 42.3852C52.1636 43.4078 51.141 44.4722 50.1304 45.5546C48.8686 46.9001 47.6487 48.2815 46.4407 49.6688C45.2328 51.0562 44.0487 52.4794 42.9065 53.9266C41.7644 55.3737 40.6222 56.803 39.5697 58.3578Z" fill="white"/>
<path d="M262.101 142.382L216.368 147.747L219.77 176.748L265.502 171.384L262.101 142.382Z" fill="#EBEBEB"/>
<path d="M216.362 147.759C218.42 149.308 220.501 150.779 222.564 152.304C224.627 153.829 226.72 155.264 228.807 156.723C230.894 158.182 233.166 159.755 235.349 161.256L235.546 161.399C237.472 162.719 239.405 164.037 241.347 165.352L241.634 165.538L241.861 165.292C243.456 163.566 245.031 161.834 246.585 160.096C246.646 160.04 246.702 159.98 246.753 159.916C248.535 157.955 250.309 155.978 252.075 153.984C253.761 152.095 255.442 150.169 257.116 148.249C258.791 146.33 260.459 144.38 262.097 142.395C260.303 144.141 258.569 145.983 256.805 147.735C255.041 149.487 253.307 151.323 251.567 153.183C249.633 155.208 247.706 157.259 245.784 159.336C244.343 160.879 242.908 162.434 241.466 163.983C239.708 162.787 237.95 161.621 236.192 160.461C233.848 158.894 231.496 157.343 229.136 155.808C227.031 154.433 224.916 153.073 222.791 151.73C220.62 150.408 218.503 149.045 216.362 147.759Z" fill="white"/>
<path d="M245.778 160.018L245.838 160.06C246.101 160.239 246.37 160.419 246.633 160.586C247.895 161.423 249.175 162.213 250.478 162.978C252.063 163.917 253.678 164.808 255.298 165.693C256.919 166.578 258.557 167.403 260.22 168.211C261.882 169.018 263.551 169.807 265.267 170.501C263.742 169.449 262.163 168.486 260.578 167.553C258.994 166.62 257.367 165.717 255.753 164.838C254.138 163.959 252.488 163.116 250.831 162.308C249.509 161.663 248.164 161.035 246.801 160.455C246.49 160.319 246.173 160.188 245.85 160.06L245.778 160.018Z" fill="white"/>
<path d="M219.765 175.823C221.278 174.746 222.755 173.592 224.148 172.426C225.542 171.26 226.971 170.034 228.334 168.838C229.698 167.642 231.073 166.368 232.401 165.083C233.483 164.042 234.548 162.984 235.576 161.883L236.234 161.178C236.251 161.161 236.267 161.143 236.282 161.124C236.263 161.142 236.24 161.156 236.216 161.166L235.385 161.764C234.189 162.643 233.041 163.558 231.892 164.497C230.463 165.693 229.076 166.889 227.706 168.085C226.337 169.281 224.968 170.554 223.64 171.84C222.313 173.126 221.009 174.441 219.765 175.823Z" fill="white"/>
<path d="M226.122 81.4525L218.27 81.62L214.287 81.6858C212.954 81.7157 211.614 81.6858 210.281 81.7216H210.018V81.4525L209.982 74.7609V74.4619H210.281L218.198 74.4978C220.835 74.4978 223.479 74.5696 226.116 74.5995H226.283V74.7609C226.283 75.8971 226.235 77.0273 226.205 78.1396L226.122 81.4525ZM226.122 81.4525L226.044 78.0918C226.014 76.9735 225.978 75.8732 225.966 74.7789L226.128 74.9403C223.491 74.9702 220.847 75.036 218.21 75.042L210.293 75.0779L210.592 74.7789V81.4705L210.323 81.2014C211.626 81.2014 212.93 81.2014 214.239 81.2373L218.174 81.303L226.122 81.4525Z" fill="#EBEBEB"/>
<path d="M217.289 89.8905L209.438 90.058L205.455 90.1237C204.127 90.1237 202.788 90.1237 201.454 90.1596H201.191V89.8905L201.161 83.1989V82.876H201.46L209.378 82.9119C212.015 82.9119 214.658 82.9836 217.295 83.0135H217.463V83.175C217.463 84.3112 217.415 85.4414 217.385 86.5537L217.289 89.8905ZM217.289 89.8905L217.206 86.5118C217.176 85.3936 217.14 84.2932 217.128 83.1989L217.289 83.3604C214.652 83.3903 212.009 83.456 209.372 83.462L201.454 83.4979L201.753 83.1989L201.717 89.8905L201.454 89.6214C202.758 89.6214 204.062 89.6214 205.365 89.6573L209.3 89.7231L217.289 89.8905Z" fill="#EBEBEB"/>
<path d="M234.954 89.8905L227.108 90.058L223.126 90.1237C221.792 90.1237 220.453 90.1237 219.119 90.1596H218.868V89.8905L218.832 83.1989V82.876H219.131L227.049 82.9119C229.692 82.9119 232.329 82.9836 234.966 83.0135H235.134V83.175C235.134 84.3112 235.08 85.4414 235.05 86.5537L234.954 89.8905ZM234.954 89.8905L234.871 86.5118C234.871 85.3936 234.805 84.2932 234.793 83.1989L234.954 83.3604C232.317 83.3903 229.68 83.456 227.037 83.462L219.119 83.4979L219.418 83.1989L219.388 89.8905L219.119 89.6214C220.423 89.6214 221.726 89.6214 223.036 89.6573L226.971 89.7231L234.954 89.8905Z" fill="#EBEBEB"/>
<path d="M265.123 20.8573L257.272 21.0248L253.289 21.0905C251.955 21.0905 250.622 21.0905 249.288 21.1264H249.019V20.8573L248.989 14.1657V13.8667H249.294L257.212 13.9026C259.849 13.9026 262.486 13.9743 265.129 14.0042H265.291V14.1657C265.291 15.3019 265.237 16.4321 265.213 17.5444L265.123 20.8573ZM265.123 20.8573L265.034 17.4786C265.034 16.3604 264.968 15.26 264.956 14.1657L265.123 14.3272C262.48 14.3571 259.843 14.4228 257.206 14.4288L249.288 14.4647L249.581 14.1657L249.551 20.8573L249.288 20.5882C250.592 20.5882 251.89 20.5882 253.199 20.6241L257.14 20.6839L265.123 20.8573Z" fill="#EBEBEB"/>
<path d="M273.956 29.2953L266.11 29.4627L262.127 29.5285C260.8 29.5285 259.46 29.5285 258.127 29.5644H257.858V29.2953L257.828 22.6037V22.3047H258.127L266.044 22.3406C268.681 22.3406 271.319 22.4123 273.962 22.4422H274.123V22.6037C274.123 23.7399 274.069 24.8701 274.045 25.9824L273.956 29.2953ZM273.956 29.2953L273.884 25.9166C273.854 24.7983 273.812 23.698 273.8 22.6037L273.968 22.7651C271.325 22.795 268.687 22.8608 266.05 22.8668L258.133 22.9027L258.432 22.6037L258.396 29.2953L258.133 29.0262C259.436 29.0262 260.734 29.0262 262.044 29.0621L265.978 29.1279L273.956 29.2953Z" fill="#EBEBEB"/>
<path d="M40.8793 20.8637L33.0335 21.0311L29.0508 21.0969C27.7173 21.1268 26.3778 21.0969 25.0442 21.1328H24.7811V20.8637L24.7452 14.172V13.873H25.0442L32.9618 13.9149C35.6049 13.9149 38.2421 13.9807 40.8793 14.0106H41.0467V14.172C41.0467 15.3082 40.9929 16.4385 40.963 17.5567L40.8793 20.8637ZM40.8793 20.8637L40.7956 17.485C40.7956 16.3727 40.7298 15.2664 40.7178 14.172L40.8793 14.3395C38.2421 14.3395 35.6049 14.4292 32.9618 14.4352L25.0442 14.471L25.3432 14.172L25.3133 20.8637L25.0442 20.6005C26.3479 20.6005 27.6515 20.6005 28.9611 20.6005L32.89 20.6843L40.8793 20.8637Z" fill="#EBEBEB"/>
<path d="M258.121 176.469L265.966 176.301L269.949 176.236C271.283 176.206 272.622 176.236 273.956 176.2H274.219V176.469L274.255 183.16V183.459H273.956L266.038 183.418C263.395 183.418 260.758 183.352 258.121 183.322H257.953V183.16C257.953 182.024 258.007 180.894 258.031 179.776L258.121 176.469ZM258.121 176.469L258.204 179.848C258.204 180.96 258.27 182.066 258.282 183.16L258.121 182.993C260.758 182.963 263.395 182.903 266.038 182.897L273.956 182.861L273.657 183.16L273.687 176.469L273.956 176.732C272.652 176.732 271.348 176.732 270.039 176.702L266.104 176.636L258.121 176.469Z" fill="#EBEBEB"/>
<path d="M25.0443 176.469L32.89 176.301L36.8727 176.236C38.2003 176.206 39.5398 176.236 40.8733 176.2H41.1424V176.469V183.16V183.459H40.8434L32.9259 183.418C30.2887 183.418 27.6515 183.352 25.0084 183.322H24.8469V183.16C24.8469 182.024 24.9007 180.894 24.9247 179.776L25.0443 176.469ZM25.0443 176.469L25.128 179.848C25.128 180.96 25.1997 182.066 25.2117 183.16L25.0443 182.993C27.6874 182.963 30.3246 182.903 32.9618 182.897L40.8793 182.861L40.5803 183.16L40.6162 176.469L40.8793 176.732C39.5757 176.732 38.278 176.732 36.9684 176.702L33.0335 176.636L25.0443 176.469Z" fill="#EBEBEB"/>
<path d="M33.8767 168.031L41.7284 167.864L45.7111 167.798C47.0446 167.768 48.3782 167.798 49.7117 167.762H49.9808V168.031V174.723V175.022H49.6758L41.7942 174.968C39.157 174.968 36.5198 174.902 33.8767 174.872H33.7152V174.711C33.7152 173.575 33.769 172.445 33.7929 171.326L33.8767 168.031ZM33.8767 168.031L33.9664 171.41C33.9664 172.522 34.0321 173.629 34.0441 174.723L33.8767 174.555C36.5198 174.526 39.157 174.466 41.7942 174.46L49.7117 174.424L49.4187 174.723V168.031L49.6818 168.294C48.3782 168.294 47.0805 168.294 45.7709 168.294L41.86 168.199L33.8767 168.031Z" fill="#EBEBEB"/>
<path d="M193.614 67.4536L275.092 67.4536V62.6158L193.614 62.6158V67.4536Z" fill="#EBEBEB"/>
<path d="M268.909 67.4536H264.071V83.4561H268.909V67.4536Z" fill="#EBEBEB"/>
<path d="M268.909 67.4536H264.071V72.3991H268.909V67.4536Z" fill="#DBDBDB"/>
<path d="M204.636 67.4536H199.798V83.4561H204.636V67.4536Z" fill="#EBEBEB"/>
<path d="M204.636 67.4536H199.798V72.3991H204.636V67.4536Z" fill="#DBDBDB"/>
<path d="M254.503 62.6156V31.7827H246.741V62.6156H254.503Z" fill="#C7C7C7"/>
<path d="M254.509 33.5289V30.1382H246.747V33.5289H254.509Z" fill="#DBDBDB"/>
<path d="M254.503 39.1201V37.8643H246.741V39.1201H254.503Z" fill="#DBDBDB"/>
<path d="M254.509 58.5791V55.1885H245.778V58.5791H254.509Z" fill="#DBDBDB"/>
<path d="M246.741 62.6216V26.6519H241.317V62.6216H246.741Z" fill="#DBDBDB"/>
<path d="M245.682 43.8625V30.0308H242.423V43.8625H245.682Z" fill="#EBEBEB"/>
<path d="M206.527 62.6405L232.107 37.353L228.294 33.4958L202.713 58.7833L206.527 62.6405Z" fill="#C7C7C7"/>
<path d="M211.755 55.9203L221.592 46.1963L219.3 43.8785L209.464 53.6025L211.755 55.9203Z" fill="#DBDBDB"/>
<path d="M241.317 62.6278V35.3052H232.102V62.6278H241.317Z" fill="#A6A6A6"/>
<path d="M241.311 59.7272V57.1797H232.096V59.7272H241.311Z" fill="#C7C7C7"/>
<path d="M241.311 55.5116V54.5249H232.096V55.5116H241.311Z" fill="#C7C7C7"/>
<path d="M260.871 62.6278V36.9497H254.503V62.6278H260.871Z" fill="#A6A6A6"/>
<path d="M260.871 59.9008V57.5088H254.503V59.9008H260.871Z" fill="#C7C7C7"/>
<path d="M260.865 44.6278V42.2358H254.497V44.6278H260.865Z" fill="#C7C7C7"/>
<path d="M260.871 47.1994V46.2725H254.503V47.1994H260.871Z" fill="#C7C7C7"/>
<path d="M23.9021 254.221L55.3031 254.077L86.7041 254.024L149.5 253.922L212.296 254.024L243.697 254.077L275.098 254.221L243.697 254.37L212.296 254.418L149.5 254.52L86.7041 254.418L55.3031 254.364L23.9021 254.221Z" fill="#263238"/>
<path d="M244.66 201.382C253.373 209.909 254.826 223.107 252.996 234.666C252.948 234.929 252.541 234.858 252.541 234.612C252.541 231.981 252.625 229.374 252.613 226.773C252.565 226.653 252.529 226.539 252.482 226.42C250.209 224.769 248.116 222.904 246.819 220.338C245.365 217.48 244.791 214.251 243.679 211.261C243.577 210.973 243.882 211.057 244.08 211.207C249.384 215.118 251.07 219.322 252.589 224.961C252.558 222.02 252.25 219.089 251.668 216.206C250.526 210.872 248.26 205.585 244.427 201.627C244.394 201.596 244.375 201.553 244.374 201.508C244.373 201.464 244.39 201.42 244.421 201.388C244.451 201.355 244.494 201.336 244.539 201.335C244.584 201.334 244.627 201.351 244.66 201.382Z" fill="#263238"/>
<path d="M243.021 202.374C241.52 202.428 240.581 204.82 239.433 205.52C239.311 205.619 239.168 205.692 239.016 205.733C238.863 205.774 238.704 205.783 238.548 205.759C238.392 205.735 238.243 205.678 238.11 205.593C237.977 205.507 237.864 205.395 237.777 205.263C236.617 203.642 238.207 201.675 239.702 200.539C238.632 200.975 237.747 201.735 236.593 201.968C236.445 202.015 236.29 202.031 236.136 202.013C235.982 201.996 235.834 201.945 235.701 201.865C235.568 201.785 235.454 201.678 235.367 201.55C235.279 201.422 235.22 201.277 235.193 201.125C234.685 198.924 237.448 197.943 239.344 197.895C238.423 197.262 235.791 195.503 237.191 194.666C238.59 193.829 241.7 196.293 242.71 197.112C244.187 198.308 245.957 200.102 246.023 201.992C246.095 204.186 244.175 202.835 243.021 202.374Z" fill="#F5EF0D"/>
<path opacity="0.1" d="M243.021 202.374C241.52 202.428 240.581 204.82 239.433 205.52C239.311 205.619 239.168 205.692 239.016 205.733C238.863 205.774 238.704 205.783 238.548 205.759C238.392 205.735 238.243 205.678 238.11 205.593C237.977 205.507 237.864 205.395 237.777 205.263C236.617 203.642 238.207 201.675 239.702 200.539C238.632 200.975 237.747 201.735 236.593 201.968C236.445 202.015 236.29 202.031 236.136 202.013C235.982 201.996 235.834 201.945 235.701 201.865C235.568 201.785 235.454 201.678 235.367 201.55C235.279 201.422 235.22 201.277 235.193 201.125C234.685 198.924 237.448 197.943 239.344 197.895C238.423 197.262 235.791 195.503 237.191 194.666C238.59 193.829 241.7 196.293 242.71 197.112C244.187 198.308 245.957 200.102 246.023 201.992C246.095 204.186 244.175 202.835 243.021 202.374Z" fill="black"/>
<path d="M243.452 202.745C241.538 201.872 237.854 203.128 237.544 202.404C236.91 200.927 239.852 199.911 241.436 199.719C239.977 199.319 237.173 198.691 237.25 197.279C237.358 195.557 241.55 197.04 243.673 198.667C246.346 200.718 246.328 202.691 245.886 203.092C245.288 203.63 243.769 202.889 243.452 202.745Z" fill="#F5EF0D"/>
<path d="M264.501 200.539C255.472 208.731 253.504 221.863 254.904 233.483C254.939 233.746 255.346 233.692 255.358 233.441C255.454 230.815 255.478 228.202 255.585 225.607L255.729 225.26C258.067 223.699 260.226 221.911 261.619 219.4C263.18 216.595 263.874 213.39 265.099 210.43C265.219 210.149 264.908 210.22 264.705 210.358C259.257 214.065 257.409 218.204 255.675 223.765C255.821 220.828 256.242 217.911 256.931 215.052C258.276 209.766 260.74 204.569 264.705 200.76C264.872 200.628 264.657 200.389 264.501 200.539Z" fill="#263238"/>
<path d="M266.11 201.591C267.605 201.699 268.454 204.127 269.596 204.874C269.715 204.978 269.854 205.057 270.005 205.104C270.156 205.15 270.315 205.165 270.472 205.147C270.629 205.128 270.78 205.076 270.915 204.995C271.051 204.915 271.168 204.806 271.259 204.677C272.455 203.104 270.966 201.053 269.519 199.893C270.565 200.371 271.42 201.178 272.562 201.442C272.708 201.496 272.864 201.518 273.019 201.506C273.174 201.495 273.324 201.45 273.461 201.375C273.597 201.3 273.715 201.197 273.808 201.072C273.901 200.947 273.965 200.804 273.998 200.652C274.596 198.475 271.863 197.387 269.973 197.267C270.918 196.669 273.615 195.031 272.246 194.122C270.876 193.213 267.683 195.575 266.642 196.359C265.117 197.501 263.282 199.229 263.144 201.107C262.959 203.283 264.914 202.01 266.11 201.591Z" fill="#F5EF0D"/>
<path opacity="0.1" d="M266.11 201.591C267.605 201.699 268.454 204.127 269.596 204.874C269.715 204.978 269.854 205.057 270.005 205.104C270.156 205.15 270.315 205.165 270.472 205.147C270.629 205.128 270.78 205.076 270.915 204.995C271.051 204.915 271.168 204.806 271.259 204.677C272.455 203.104 270.966 201.053 269.519 199.893C270.565 200.371 271.42 201.178 272.562 201.442C272.708 201.496 272.864 201.518 273.019 201.506C273.174 201.495 273.324 201.45 273.461 201.375C273.597 201.3 273.715 201.197 273.808 201.072C273.901 200.947 273.965 200.804 273.998 200.652C274.596 198.475 271.863 197.387 269.973 197.267C270.918 196.669 273.615 195.031 272.246 194.122C270.876 193.213 267.683 195.575 266.642 196.359C265.117 197.501 263.282 199.229 263.144 201.107C262.959 203.283 264.914 202.01 266.11 201.591Z" fill="black"/>
<path d="M265.65 201.944C267.599 201.149 271.229 202.542 271.57 201.83C272.263 200.377 269.363 199.253 267.778 198.996C269.255 198.655 272.084 198.129 272.048 196.717C272.012 194.995 267.766 196.317 265.584 197.86C262.833 199.809 262.773 201.783 263.192 202.195C263.784 202.763 265.333 202.076 265.65 201.944Z" fill="#F5EF0D"/>
<path d="M255.268 222.174C254.655 226.555 253.718 230.885 252.464 235.127C252.455 235.169 252.439 235.208 252.415 235.244C252.392 235.279 252.362 235.309 252.326 235.333C252.291 235.356 252.252 235.373 252.21 235.381C252.168 235.389 252.126 235.389 252.084 235.381C252.042 235.373 252.003 235.357 251.967 235.333C251.932 235.309 251.902 235.279 251.878 235.244C251.855 235.209 251.838 235.169 251.83 235.128C251.822 235.086 251.821 235.043 251.83 235.001C252.428 231.007 253.504 227.09 254.096 223.095C254.745 219.057 254.978 214.963 254.79 210.878C254.413 204.151 252.583 196.999 248.212 191.742C248.116 191.622 248.319 191.443 248.421 191.557C257.206 201.806 255.812 214.37 255.8 215.477C257.044 211.237 258.33 206.375 263.036 202.052C263.24 201.866 263.395 201.956 263.365 202.273C262.522 210.143 260.333 214.233 255.771 218.455C255.627 219.705 255.466 220.948 255.268 222.174Z" fill="#263238"/>
<path d="M248.116 192.908C246.537 192.202 244.355 194.218 242.788 194.355C242.611 194.397 242.426 194.401 242.247 194.366C242.068 194.332 241.898 194.26 241.749 194.156C241.599 194.052 241.473 193.917 241.379 193.761C241.285 193.604 241.225 193.43 241.203 193.249C240.815 190.994 243.47 189.721 245.581 189.32C244.247 189.236 242.944 189.589 241.64 189.236C241.463 189.213 241.293 189.152 241.141 189.057C240.99 188.962 240.861 188.836 240.763 188.687C240.665 188.537 240.6 188.369 240.573 188.192C240.545 188.016 240.557 187.835 240.605 187.664C241.203 185.122 244.546 185.493 246.537 186.402C245.904 185.278 244.044 182.144 245.939 181.965C247.835 181.785 249.803 185.923 250.436 187.281C251.369 189.272 252.296 192.023 251.417 194.008C250.395 196.335 249.079 193.966 248.116 192.908Z" fill="#F5EF0D"/>
<path opacity="0.1" d="M248.116 192.908C246.537 192.202 244.355 194.218 242.788 194.355C242.611 194.397 242.426 194.401 242.247 194.366C242.068 194.332 241.898 194.26 241.749 194.156C241.599 194.052 241.473 193.917 241.379 193.761C241.285 193.604 241.225 193.43 241.203 193.249C240.815 190.994 243.47 189.721 245.581 189.32C244.247 189.236 242.944 189.589 241.64 189.236C241.463 189.213 241.293 189.152 241.141 189.057C240.99 188.962 240.861 188.836 240.763 188.687C240.665 188.537 240.6 188.369 240.573 188.192C240.545 188.016 240.557 187.835 240.605 187.664C241.203 185.122 244.546 185.493 246.537 186.402C245.904 185.278 244.044 182.144 245.939 181.965C247.835 181.785 249.803 185.923 250.436 187.281C251.369 189.272 252.296 192.023 251.417 194.008C250.395 196.335 249.079 193.966 248.116 192.908Z" fill="black"/>
<path d="M248.379 193.506C246.83 191.64 242.399 191.084 242.399 190.175C242.483 188.327 246.047 188.752 247.781 189.35C246.466 188.202 243.876 186.139 244.672 184.716C245.652 182.981 249.252 186.629 250.652 189.386C252.392 192.86 251.375 194.905 250.717 195.091C249.832 195.36 248.636 193.823 248.379 193.506Z" fill="#F5EF0D"/>
<path d="M261.045 224.542L264.914 254.155H241.341C241.825 251.53 246.215 224.506 246.215 224.506L261.045 224.542Z" fill="#F5EF0D"/>
<path d="M224.047 20.8633H121.005C119.623 20.8758 118.258 21.1605 116.986 21.701C115.714 22.2416 114.561 23.0275 113.593 24.0138C112.625 25.0001 111.861 26.1675 111.344 27.4492C110.828 28.7309 110.569 30.1019 110.582 31.4838V243.6C110.558 246.39 111.642 249.076 113.597 251.067C115.551 253.058 118.215 254.192 121.005 254.221H224.047C226.838 254.194 229.505 253.061 231.461 251.069C233.418 249.078 234.504 246.392 234.482 243.6V31.4838C234.494 30.1011 234.234 28.7295 233.717 27.4474C233.199 26.1652 232.434 24.9976 231.465 24.0114C230.496 23.0251 229.342 22.2394 228.069 21.6992C226.796 21.1591 225.429 20.875 224.047 20.8633ZM227.964 237.04C227.964 242.626 223.778 247.141 218.623 247.141H126.441C121.274 247.141 117.088 242.626 117.088 237.04V39.5209C117.088 28.1589 121.274 27.5609 126.441 27.5609H144.907C145.984 27.5609 146.863 28.7569 146.863 30.2937V30.9456C146.863 34.4857 148.8 34.4977 151.174 34.4977H193.878C196.27 34.4977 198.207 34.4977 198.207 30.9456V30.3236C198.207 28.8107 199.074 27.5908 200.163 27.5908H218.623C223.784 27.5908 227.964 29.1037 227.964 39.5508V237.04Z" fill="#263238"/>
<path d="M227.97 39.521V237.04C227.97 242.626 223.784 247.141 218.629 247.141H126.447C121.28 247.141 117.094 242.626 117.094 237.04V39.521C117.094 28.159 121.28 27.561 126.447 27.561H144.913C145.99 27.561 146.869 28.757 146.869 30.2939V30.9457C146.869 34.4859 148.806 34.4978 151.18 34.4978H193.884C196.276 34.4978 198.213 34.4978 198.213 30.9457V30.3238C198.213 28.8109 199.08 27.5909 200.169 27.5909H218.629C223.79 27.5909 227.97 29.1039 227.97 39.521Z" fill="white"/>
<path d="M227.97 39.5269V57.4669H117.094V39.5269C117.094 28.1649 121.28 27.5669 126.447 27.5669H144.913C145.99 27.5669 146.869 28.7629 146.869 30.2998V30.9516C146.869 34.4917 148.806 34.5037 151.18 34.5037H193.884C196.276 34.5037 198.213 34.5037 198.213 30.9516V30.3297C198.213 28.8167 199.08 27.5968 200.169 27.5968H218.629C223.79 27.5968 227.97 29.1097 227.97 39.5269Z" fill="#F5EF0D"/>
<path d="M178.353 29.9348H166.704C166.514 29.9333 166.331 29.8563 166.197 29.7208C166.062 29.5853 165.987 29.4021 165.987 29.2113C165.987 29.117 166.005 29.0237 166.041 28.9366C166.077 28.8496 166.13 28.7705 166.197 28.7038C166.264 28.6372 166.343 28.5843 166.43 28.5483C166.517 28.5122 166.61 28.4937 166.704 28.4937H178.353C178.448 28.4937 178.541 28.5122 178.628 28.5483C178.715 28.5843 178.794 28.6372 178.861 28.7038C178.928 28.7705 178.98 28.8496 179.016 28.9366C179.052 29.0237 179.071 29.117 179.071 29.2113C179.072 29.306 179.054 29.3999 179.018 29.4877C178.982 29.5755 178.93 29.6553 178.863 29.7225C178.796 29.7898 178.717 29.8432 178.629 29.8796C178.542 29.9161 178.448 29.9348 178.353 29.9348Z" fill="white"/>
<path d="M133.946 44.4844H124.324V50.584H133.946V44.4844Z" fill="white"/>
<path d="M133.952 44.4844C133.563 44.8551 133.169 45.2139 132.756 45.5787L131.56 46.6491L130.364 47.7495L130.328 47.7853L129.168 48.7481L129.114 48.79L129.06 48.7481L127.972 47.7794H127.936C127.518 47.4146 127.099 47.0498 126.686 46.679L125.49 45.6086C125.102 45.2438 124.707 44.885 124.294 44.5143C124.707 44.8372 125.114 45.1661 125.49 45.495C125.867 45.8239 126.304 46.1588 126.686 46.4996C127.069 46.8405 127.589 47.2531 128.038 47.6358L129.042 48.497L130.053 47.6358L131.399 46.4996L132.595 45.501L133.952 44.4844Z" fill="#F5EF0D"/>
<path d="M128.133 47.7432L127.978 47.8687C127.739 48.0721 127.488 48.2694 127.236 48.4667C126.985 48.6641 126.638 48.9212 126.304 49.1425C125.969 49.3637 125.67 49.579 125.347 49.7883C125.024 49.9976 124.689 50.2009 124.354 50.3863C124.641 50.1292 124.952 49.89 125.251 49.6568C125.55 49.4235 125.849 49.2023 126.19 48.981C126.531 48.7598 126.824 48.5445 127.147 48.3352C127.47 48.1259 127.673 48.0063 127.942 47.8508C128.002 47.8134 128.064 47.7794 128.128 47.7491L128.133 47.7432Z" fill="#F5EF0D"/>
<path d="M133.952 50.3927C133.611 50.2073 133.282 50.004 132.959 49.7947C132.636 49.5854 132.313 49.3701 131.997 49.1488C131.68 48.9276 131.369 48.7063 131.064 48.4731C130.759 48.2399 130.567 48.0904 130.328 47.8751L130.173 47.7495L130.358 47.8572C130.629 48.0126 130.892 48.1741 131.147 48.3415C131.476 48.5508 131.793 48.7661 132.11 48.9874C132.427 49.2086 132.738 49.4299 133.043 49.6631C133.348 49.8963 133.629 50.1355 133.952 50.3927Z" fill="#F5EF0D"/>
<path d="M136.009 44.4845C136.009 44.8928 135.888 45.2919 135.661 45.6313C135.434 45.9707 135.111 46.2351 134.734 46.3911C134.357 46.5471 133.942 46.5876 133.541 46.5075C133.141 46.4274 132.773 46.2303 132.485 45.9412C132.197 45.6521 132.001 45.2839 131.922 44.8833C131.843 44.4827 131.885 44.0677 132.042 43.6908C132.199 43.314 132.464 42.9922 132.804 42.7662C133.144 42.5402 133.544 42.4202 133.952 42.4214C134.498 42.423 135.021 42.641 135.407 43.0278C135.793 43.4145 136.009 43.9384 136.009 44.4845Z" fill="#455A64"/>
<path d="M134.628 44.8967C134.626 44.9401 134.608 44.9812 134.577 45.0113C134.545 45.0414 134.504 45.0582 134.46 45.0582V45.2854C134.453 45.3237 134.433 45.3582 134.403 45.383C134.372 45.4078 134.335 45.4214 134.296 45.4214C134.257 45.4214 134.219 45.4078 134.189 45.383C134.159 45.3582 134.139 45.3237 134.131 45.2854V45.0582H133.198C133.18 45.0597 133.161 45.0573 133.144 45.0511C133.126 45.045 133.11 45.0351 133.097 45.0223C133.081 45.0078 133.069 44.9902 133.06 44.9706C133.052 44.9511 133.047 44.93 133.047 44.9087C133.047 44.8874 133.052 44.8663 133.06 44.8468C133.069 44.8272 133.081 44.8096 133.097 44.7951L134.137 43.4077H134.185H134.281V44.6037C134.32 44.5577 134.375 44.529 134.435 44.524C134.495 44.519 134.555 44.5379 134.601 44.5768C134.647 44.6157 134.675 44.6712 134.681 44.7312C134.686 44.7912 134.667 44.8507 134.628 44.8967ZM134.101 43.9997L133.503 44.7353H134.101V43.9997Z" fill="white"/>
<path d="M141.726 31.8547L141.547 32.0341L141.445 32.1357C140.989 31.6804 140.37 31.4246 139.726 31.4246C139.081 31.4246 138.463 31.6804 138.006 32.1357L137.911 32.0341C137.851 31.9743 137.791 31.9204 137.737 31.8606L137.965 31.6573C138.124 31.5264 138.298 31.4159 138.485 31.3284C138.704 31.2179 138.937 31.1394 139.178 31.0952C139.292 31.0952 139.406 31.0952 139.519 31.0474H139.824H140.058C140.275 31.0715 140.488 31.1238 140.691 31.2028C140.84 31.2564 140.984 31.3224 141.122 31.4002C141.267 31.4849 141.405 31.5808 141.535 31.6872L141.72 31.8606L141.726 31.8547Z" fill="white"/>
<path d="M138.569 32.6978L138.287 32.4168C138.59 32.0941 138.992 31.8833 139.43 31.8188C139.744 31.7746 140.065 31.8058 140.366 31.9098C140.666 32.0137 140.938 32.1875 141.158 32.4168L140.877 32.6978C140.57 32.3938 140.155 32.224 139.723 32.2254C139.509 32.2237 139.296 32.2646 139.098 32.3457C138.9 32.4268 138.72 32.5465 138.569 32.6978Z" fill="white"/>
<path d="M140.596 32.9787C140.5 33.0684 140.404 33.1641 140.315 33.2598C140.237 33.1805 140.144 33.1179 140.041 33.0757C139.938 33.0336 139.828 33.0128 139.717 33.0146C139.606 33.0121 139.495 33.0326 139.392 33.0748C139.289 33.1169 139.196 33.1799 139.119 33.2598L138.838 32.9787C138.952 32.8619 139.089 32.7692 139.24 32.7058C139.391 32.6425 139.553 32.6099 139.717 32.6099C139.88 32.6099 140.042 32.6425 140.193 32.7058C140.344 32.7692 140.481 32.8619 140.596 32.9787Z" fill="white"/>
<path d="M139.974 33.511C139.975 33.5623 139.961 33.6129 139.933 33.6561C139.905 33.6992 139.865 33.7331 139.818 33.7533C139.771 33.7735 139.718 33.7791 139.668 33.7694C139.618 33.7597 139.571 33.735 139.535 33.6987C139.499 33.6624 139.474 33.6161 139.464 33.5656C139.455 33.5152 139.46 33.463 139.48 33.4158C139.501 33.3686 139.534 33.3285 139.578 33.3007C139.621 33.2729 139.671 33.2587 139.723 33.2598C139.789 33.2598 139.853 33.2863 139.9 33.3334C139.947 33.3805 139.974 33.4444 139.974 33.511Z" fill="white"/>
<path d="M124.324 32.3928C124.324 32.2473 124.367 32.1051 124.448 31.9841C124.529 31.8632 124.644 31.7689 124.778 31.7132C124.913 31.6575 125.061 31.643 125.203 31.6714C125.346 31.6997 125.477 31.7698 125.58 31.8727C125.683 31.9755 125.753 32.1066 125.781 32.2493C125.81 32.392 125.795 32.5398 125.739 32.6742C125.684 32.8086 125.589 32.9235 125.468 33.0043C125.347 33.0852 125.205 33.1283 125.06 33.1283C124.963 33.1283 124.868 33.1093 124.778 33.0723C124.689 33.0354 124.608 32.9812 124.54 32.9129C124.471 32.8446 124.417 32.7635 124.38 32.6742C124.343 32.585 124.324 32.4894 124.324 32.3928Z" fill="white"/>
<path d="M126.638 32.3928C126.638 32.2473 126.682 32.1051 126.762 31.9841C126.843 31.8632 126.958 31.7689 127.092 31.7132C127.227 31.6575 127.375 31.643 127.517 31.6714C127.66 31.6997 127.791 31.7698 127.894 31.8727C127.997 31.9755 128.067 32.1066 128.095 32.2493C128.124 32.392 128.109 32.5398 128.054 32.6742C127.998 32.8086 127.904 32.9235 127.783 33.0043C127.662 33.0852 127.519 33.1283 127.374 33.1283C127.179 33.1283 126.992 33.0508 126.854 32.9129C126.716 32.7749 126.638 32.5878 126.638 32.3928Z" fill="white"/>
<path d="M128.953 32.3928C128.953 32.2473 128.996 32.1051 129.077 31.9841C129.158 31.8632 129.272 31.7689 129.407 31.7132C129.541 31.6575 129.689 31.643 129.832 31.6714C129.974 31.6997 130.106 31.7698 130.208 31.8727C130.311 31.9755 130.381 32.1066 130.41 32.2493C130.438 32.392 130.424 32.5398 130.368 32.6742C130.312 32.8086 130.218 32.9235 130.097 33.0043C129.976 33.0852 129.834 33.1283 129.688 33.1283C129.493 33.1283 129.306 33.0508 129.168 32.9129C129.03 32.7749 128.953 32.5878 128.953 32.3928Z" fill="white"/>
<path d="M131.267 32.3928C131.267 32.2473 131.31 32.1051 131.391 31.9841C131.472 31.8632 131.587 31.7689 131.721 31.7132C131.855 31.6575 132.003 31.643 132.146 31.6714C132.289 31.6997 132.42 31.7698 132.523 31.8727C132.625 31.9755 132.696 32.1066 132.724 32.2493C132.752 32.392 132.738 32.5398 132.682 32.6742C132.626 32.8086 132.532 32.9235 132.411 33.0043C132.29 33.0852 132.148 33.1283 132.003 33.1283C131.906 33.1283 131.81 33.1093 131.721 33.0723C131.632 33.0354 131.551 32.9812 131.482 32.9129C131.414 32.8446 131.36 32.7635 131.323 32.6742C131.286 32.585 131.267 32.4894 131.267 32.3928Z" fill="white"/>
<path d="M133.581 32.3928C133.581 32.2473 133.624 32.1051 133.705 31.9841C133.786 31.8632 133.901 31.7689 134.035 31.7132C134.17 31.6575 134.318 31.643 134.46 31.6714C134.603 31.6997 134.734 31.7698 134.837 31.8727C134.94 31.9755 135.01 32.1066 135.038 32.2493C135.067 32.392 135.052 32.5398 134.996 32.6742C134.941 32.8086 134.846 32.9235 134.725 33.0043C134.605 33.0852 134.462 33.1283 134.317 33.1283C134.22 33.1283 134.125 33.1093 134.035 33.0723C133.946 33.0354 133.865 32.9812 133.797 32.9129C133.728 32.8446 133.674 32.7635 133.637 32.6742C133.6 32.585 133.581 32.4894 133.581 32.3928Z" fill="white"/>
<path d="M219.645 34.0013H213.665V31.2266H219.645V34.0013ZM213.97 33.6963H219.352V31.5315H213.97V33.6963Z" fill="white"/>
<path d="M218.019 31.6992H214.162V33.5291H218.019V31.6992Z" fill="white"/>
<path d="M220.184 31.8726H219.651V33.3556H220.184V31.8726Z" fill="white"/>
<path d="M162.991 45.6684C162.99 45.6211 162.999 45.5741 163.017 45.5302C163.034 45.4863 163.061 45.4464 163.094 45.4129C163.128 45.3794 163.168 45.353 163.211 45.3353C163.255 45.3175 163.302 45.3088 163.35 45.3096C163.397 45.3088 163.445 45.3175 163.489 45.3352C163.533 45.3529 163.573 45.3792 163.607 45.4126C163.641 45.446 163.668 45.4858 163.687 45.5297C163.705 45.5736 163.714 45.6208 163.714 45.6684V49.5016C163.714 49.5492 163.705 49.5964 163.687 49.6403C163.668 49.6842 163.641 49.7241 163.607 49.7574C163.573 49.7908 163.533 49.8172 163.489 49.8348C163.445 49.8525 163.397 49.8612 163.35 49.8604C163.302 49.8612 163.255 49.8525 163.211 49.8347C163.168 49.817 163.128 49.7906 163.094 49.7571C163.061 49.7236 163.034 49.6838 163.017 49.6399C162.999 49.596 162.99 49.5489 162.991 49.5016V45.6684Z" fill="white"/>
<path d="M165.646 49.5013C165.646 49.5955 165.609 49.6858 165.543 49.753C165.477 49.8201 165.387 49.8586 165.293 49.8601C165.246 49.8602 165.2 49.8508 165.157 49.8327C165.114 49.8146 165.074 49.7881 165.042 49.7547C165.009 49.7213 164.983 49.6817 164.965 49.6382C164.948 49.5947 164.94 49.5482 164.94 49.5013V45.722C164.936 45.6646 164.947 45.6071 164.971 45.5548C164.995 45.5025 165.032 45.4572 165.078 45.423C165.155 45.3699 165.249 45.3483 165.342 45.3628C165.434 45.3773 165.517 45.4266 165.574 45.5007L167.673 48.407V45.722C167.675 45.6295 167.713 45.5412 167.779 45.4764C167.845 45.4115 167.933 45.3751 168.026 45.3751C168.119 45.3751 168.209 45.4113 168.276 45.476C168.343 45.5407 168.382 45.6289 168.385 45.722V49.5013C168.385 49.5965 168.347 49.6878 168.28 49.7551C168.212 49.8223 168.121 49.8601 168.026 49.8601C167.974 49.8585 167.924 49.8459 167.877 49.8233C167.831 49.8006 167.79 49.7683 167.757 49.7286V49.6927L165.646 46.8044V49.5013Z" fill="white"/>
<path d="M169.946 49.5016V45.6684C169.946 45.5732 169.983 45.4819 170.051 45.4147C170.118 45.3474 170.209 45.3096 170.304 45.3096H171.225C171.553 45.3096 171.867 45.4392 172.099 45.67C172.331 45.9009 172.462 46.2142 172.463 46.5414C172.465 46.8098 172.377 47.071 172.212 47.283C172.469 47.4424 172.667 47.6813 172.777 47.9633C172.886 48.2454 172.901 48.5554 172.818 48.8465C172.736 49.1376 172.561 49.394 172.32 49.5769C172.079 49.7598 171.785 49.8593 171.483 49.8604H170.328C170.279 49.8636 170.23 49.8568 170.184 49.8402C170.137 49.8237 170.095 49.7978 170.059 49.7641C170.023 49.7305 169.995 49.6898 169.975 49.6446C169.956 49.5994 169.946 49.5508 169.946 49.5016ZM170.669 47.0737H171.225C171.364 47.0705 171.496 47.0129 171.592 46.9132C171.688 46.8136 171.741 46.68 171.74 46.5414C171.74 46.4742 171.726 46.4076 171.7 46.3455C171.675 46.2835 171.637 46.2272 171.589 46.1799C171.541 46.1326 171.484 46.0953 171.422 46.0701C171.359 46.0449 171.293 46.0324 171.225 46.0331H170.669V47.0737ZM170.669 49.1368H171.483C171.65 49.121 171.806 49.0433 171.919 48.9188C172.032 48.7944 172.095 48.6322 172.095 48.464C172.095 48.2958 172.032 48.1336 171.919 48.0092C171.806 47.8848 171.65 47.8071 171.483 47.7913H170.669V49.1368Z" fill="white"/>
<path d="M177.397 45.8715C177.819 46.316 178.054 46.9058 178.054 47.519C178.054 48.1322 177.819 48.7219 177.397 49.1665C177.199 49.3823 176.959 49.5552 176.691 49.6745C176.424 49.7938 176.135 49.857 175.842 49.8601C175.544 49.858 175.249 49.7955 174.975 49.6762C174.702 49.557 174.456 49.3836 174.251 49.1665C173.835 48.7186 173.604 48.1301 173.604 47.519C173.604 46.9079 173.835 46.3194 174.251 45.8715C174.457 45.6576 174.704 45.4879 174.977 45.3727C175.251 45.2576 175.545 45.1994 175.842 45.2017C176.133 45.2007 176.421 45.2597 176.689 45.3749C176.956 45.4901 177.197 45.6592 177.397 45.8715ZM177.313 47.516C177.313 47.0952 177.155 46.6898 176.87 46.3798C176.741 46.2354 176.582 46.1197 176.405 46.0404C176.228 45.9611 176.036 45.9198 175.842 45.9193C175.644 45.9184 175.448 45.9588 175.267 46.0381C175.086 46.1174 174.923 46.2338 174.789 46.3798C174.505 46.6898 174.347 47.0952 174.347 47.516C174.345 47.9372 174.503 48.3435 174.789 48.6522C174.923 48.7989 175.085 48.9163 175.266 48.9966C175.448 49.0769 175.644 49.1185 175.842 49.1186C176.036 49.117 176.228 49.0746 176.406 48.9943C176.583 48.914 176.741 48.7974 176.87 48.6522C177.157 48.3435 177.315 47.9372 177.313 47.516Z" fill="white"/>
<path d="M182.27 45.9254L181.033 47.5938L182.27 49.2801C182.325 49.3566 182.347 49.4514 182.333 49.5442C182.318 49.637 182.268 49.7204 182.193 49.7765C182.132 49.8222 182.059 49.8474 181.983 49.8482C181.926 49.8467 181.871 49.8324 181.82 49.8066C181.769 49.7807 181.725 49.7439 181.69 49.6987L180.596 48.1918L179.496 49.6928C179.462 49.7371 179.418 49.7735 179.369 49.7993C179.319 49.8252 179.264 49.8398 179.209 49.8423C179.133 49.8432 179.059 49.8179 178.999 49.7705C178.923 49.7153 178.871 49.6323 178.856 49.5395C178.84 49.4466 178.862 49.3513 178.916 49.2742L180.153 47.5878L178.916 45.9074C178.862 45.8312 178.841 45.7368 178.856 45.645C178.872 45.5531 178.923 45.4712 178.999 45.4171C179.036 45.3867 179.079 45.3645 179.124 45.3519C179.17 45.3392 179.218 45.3365 179.265 45.3439C179.312 45.3512 179.357 45.3685 179.397 45.3945C179.436 45.4205 179.47 45.4547 179.496 45.4948L180.596 46.9958L181.684 45.5008C181.71 45.4605 181.745 45.4263 181.785 45.4002C181.825 45.3741 181.871 45.3569 181.918 45.3495C181.966 45.3422 182.014 45.3449 182.06 45.3576C182.107 45.3703 182.15 45.3926 182.187 45.423C182.226 45.4499 182.259 45.4844 182.285 45.5245C182.311 45.5646 182.328 45.6094 182.336 45.6563C182.343 45.7033 182.342 45.7513 182.33 45.7975C182.319 45.8437 182.299 45.8872 182.27 45.9254Z" fill="white"/>
<path d="M212.697 49.8246L211.943 50.4226L210.55 48.5807L210.042 47.905C210.146 47.8642 210.244 47.8099 210.335 47.7435C210.503 47.6118 210.635 47.4388 210.717 47.2412L211.261 47.9528L212.697 49.8246Z" fill="white"/>
<path d="M211.214 45.4827C210.975 45.1714 210.652 44.935 210.283 44.8013C209.914 44.6676 209.514 44.6422 209.131 44.7282C208.748 44.8141 208.398 45.0078 208.122 45.2864C207.845 45.5649 207.654 45.9167 207.571 46.3003C207.488 46.6839 207.517 47.0832 207.653 47.4511C207.79 47.819 208.029 48.1402 208.342 48.3767C208.655 48.6133 209.029 48.7553 209.42 48.7861C209.812 48.8169 210.204 48.7351 210.55 48.5505C210.651 48.498 210.747 48.4359 210.837 48.3651C211.002 48.2421 211.145 48.0926 211.261 47.9226C211.515 47.564 211.647 47.1338 211.638 46.6948C211.63 46.2558 211.481 45.8311 211.214 45.4827ZM210.335 47.7133C210.244 47.7796 210.146 47.8339 210.041 47.8747C209.778 47.9797 209.487 47.9904 209.217 47.905C208.947 47.8196 208.715 47.6433 208.56 47.4061C208.406 47.1689 208.338 46.8855 208.368 46.6039C208.399 46.3224 208.526 46.0601 208.728 45.8617C208.93 45.6632 209.194 45.5408 209.477 45.5153C209.759 45.4898 210.041 45.5627 210.275 45.7217C210.51 45.8806 210.682 46.1158 210.762 46.3873C210.843 46.6588 210.827 46.9499 210.717 47.211C210.635 47.4085 210.503 47.5815 210.335 47.7133Z" fill="white"/>
<path d="M202.471 44.8013H197.005V50.267H202.471V44.8013Z" fill="white"/>
<path d="M200.037 45.8179H199.439V49.2564H200.037V45.8179Z" fill="#F5EF0D"/>
<path d="M198.016 47.235V47.833H201.454V47.235H198.016Z" fill="#F5EF0D"/>
<path d="M219.645 45.1541C219.645 45.2475 219.618 45.3388 219.566 45.4165C219.514 45.4942 219.44 45.5548 219.354 45.5905C219.267 45.6263 219.172 45.6356 219.081 45.6174C218.989 45.5992 218.905 45.5542 218.839 45.4881C218.773 45.422 218.728 45.3379 218.71 45.2462C218.691 45.1546 218.701 45.0596 218.737 44.9733C218.772 44.887 218.833 44.8132 218.911 44.7613C218.988 44.7093 219.08 44.6816 219.173 44.6816C219.235 44.6816 219.296 44.6939 219.354 44.7176C219.411 44.7413 219.463 44.7761 219.507 44.82C219.551 44.8639 219.586 44.916 219.609 44.9733C219.633 45.0306 219.645 45.092 219.645 45.1541Z" fill="white"/>
<path d="M219.645 47.594C219.645 47.7193 219.596 47.8395 219.507 47.9281C219.418 48.0167 219.298 48.0664 219.173 48.0664C219.048 48.0664 218.928 48.0167 218.839 47.9281C218.75 47.8395 218.701 47.7193 218.701 47.594C218.701 47.532 218.713 47.4705 218.737 47.4132C218.76 47.3559 218.795 47.3038 218.839 47.2599C218.883 47.2161 218.935 47.1813 218.992 47.1575C219.05 47.1338 219.111 47.1216 219.173 47.1216C219.235 47.1216 219.296 47.1338 219.354 47.1575C219.411 47.1813 219.463 47.2161 219.507 47.2599C219.551 47.3038 219.586 47.3559 219.609 47.4132C219.633 47.4705 219.645 47.532 219.645 47.594Z" fill="white"/>
<path d="M219.645 50.0579C219.645 50.1199 219.633 50.1813 219.609 50.2387C219.586 50.296 219.551 50.348 219.507 50.3919C219.463 50.4358 219.411 50.4706 219.354 50.4943C219.296 50.5181 219.235 50.5303 219.173 50.5303C219.111 50.5303 219.05 50.5181 218.992 50.4943C218.935 50.4706 218.883 50.4358 218.839 50.3919C218.795 50.348 218.76 50.296 218.737 50.2387C218.713 50.1813 218.701 50.1199 218.701 50.0579C218.701 49.9326 218.75 49.8124 218.839 49.7238C218.928 49.6352 219.048 49.5854 219.173 49.5854C219.298 49.5854 219.418 49.6352 219.507 49.7238C219.596 49.8124 219.645 49.9326 219.645 50.0579Z" fill="white"/>
<path d="M227.964 57.4429H117.094V74.5636H227.964V57.4429Z" fill="#EBEBEB"/>
<path d="M135.148 69.3133C134.801 69.528 134.421 69.6855 134.024 69.7798C133.076 70.0073 132.077 69.8692 131.226 69.3929C130.376 68.9167 129.736 68.1373 129.434 67.2102C129.133 66.2831 129.192 65.2764 129.6 64.3909C130.007 63.5054 130.734 62.8061 131.634 62.4326C132.535 62.059 133.543 62.0385 134.458 62.3752C135.373 62.712 136.127 63.3812 136.57 64.2494C137.014 65.1177 137.114 66.1211 136.85 67.0597C136.586 67.9982 135.979 68.803 135.148 69.3133Z" fill="#F5EF0D"/>
<path d="M134.257 65.5339C134.257 65.7704 134.187 66.0017 134.055 66.1984C133.924 66.395 133.737 66.5483 133.519 66.6389C133.3 66.7294 133.06 66.7531 132.828 66.7069C132.596 66.6608 132.383 66.5469 132.215 66.3796C132.048 66.2123 131.934 65.9992 131.888 65.7672C131.842 65.5352 131.866 65.2947 131.956 65.0762C132.047 64.8577 132.2 64.6709 132.397 64.5395C132.593 64.408 132.824 64.3379 133.061 64.3379C133.378 64.3379 133.682 64.4639 133.907 64.6882C134.131 64.9125 134.257 65.2167 134.257 65.5339Z" fill="white"/>
<path d="M135.148 68.823V69.3134C134.801 69.528 134.421 69.6855 134.024 69.7798C133.52 69.9059 132.995 69.9296 132.482 69.8495C131.968 69.7694 131.476 69.5871 131.034 69.3134V68.823C131.034 68.2806 131.249 67.7604 131.633 67.3768C132.016 66.9933 132.537 66.7778 133.079 66.7778C133.621 66.7778 134.142 66.9933 134.525 67.3768C134.909 67.7604 135.124 68.2806 135.124 68.823H135.148Z" fill="white"/>
<path d="M157.489 68.5779H152.346L154.445 66.0065L152.346 63.4351H157.489L159.588 66.0065L157.489 68.5779Z" fill="white"/>
<path d="M144.274 63.4351L145.111 65.1274L146.976 65.3965L145.625 66.7181L145.948 68.5779L144.274 67.6988L142.605 68.5779L142.922 66.7181L141.571 65.3965L143.436 65.1274L144.274 63.4351Z" fill="#F5EF0D"/>
<path d="M193.62 64.96H163.278V67.053H193.62V64.96Z" fill="#263238"/>
<path d="M218.019 64.96H206.125V67.053H218.019V64.96Z" fill="#455A64"/>
<path d="M135.148 86.4637C134.801 86.6784 134.421 86.8358 134.024 86.9302C133.076 87.1577 132.077 87.0196 131.226 86.5433C130.376 86.0671 129.736 85.2877 129.434 84.3606C129.133 83.4335 129.192 82.4268 129.6 81.5413C130.007 80.6558 130.734 79.9565 131.634 79.5829C132.535 79.2093 133.543 79.1889 134.458 79.5256C135.373 79.8624 136.127 80.5316 136.57 81.3998C137.014 82.2681 137.114 83.2715 136.85 84.2101C136.586 85.1486 135.979 85.9533 135.148 86.4637Z" fill="#455A64"/>
<path d="M134.257 82.6843C134.257 82.9208 134.187 83.1521 134.055 83.3487C133.924 83.5454 133.737 83.6987 133.519 83.7892C133.3 83.8798 133.06 83.9035 132.828 83.8573C132.596 83.8112 132.383 83.6972 132.215 83.53C132.048 83.3627 131.934 83.1496 131.888 82.9176C131.842 82.6856 131.866 82.4451 131.956 82.2266C132.047 82.0081 132.2 81.8213 132.397 81.6898C132.593 81.5584 132.824 81.4883 133.061 81.4883C133.378 81.4883 133.682 81.6143 133.907 81.8386C134.131 82.0629 134.257 82.3671 134.257 82.6843Z" fill="white"/>
<path d="M135.148 85.9435V86.4637C134.801 86.6784 134.421 86.8359 134.024 86.9302C133.52 87.058 132.995 87.0826 132.481 87.0024C131.967 86.9223 131.475 86.739 131.034 86.4637V85.9734C131.034 85.431 131.249 84.9108 131.633 84.5272C132.016 84.1437 132.537 83.9282 133.079 83.9282C133.621 83.9282 134.142 84.1437 134.525 84.5272C134.909 84.9108 135.124 85.431 135.124 85.9734L135.148 85.9435Z" fill="white"/>
<path d="M157.489 85.6985H152.346L154.445 83.1271L152.346 80.5557H157.489L159.588 83.1271L157.489 85.6985Z" fill="white"/>
<path d="M157.561 85.8661H152.03L154.254 83.1452L152.03 80.4243H157.561L159.78 83.1452L157.561 85.8661ZM152.663 85.5671H157.447L159.421 83.1452L157.447 80.7532H152.663L154.637 83.1452L152.663 85.5671Z" fill="#EBEBEB"/>
<path d="M144.274 80.5557L145.111 82.248L146.976 82.5171L145.625 83.8387L145.948 85.6985L144.274 84.8194L142.605 85.6985L142.922 83.8387L141.571 82.5171L143.436 82.248L144.274 80.5557Z" fill="#F5EF0D"/>
<path d="M193.62 82.0806H163.278V84.1736H193.62V82.0806Z" fill="#263238"/>
<path d="M218.019 82.0806H206.125V84.1736H218.019V82.0806Z" fill="#455A64"/>
<path d="M227.964 91.6846H117.094V108.805H227.964V91.6846Z" fill="#EBEBEB"/>
<path d="M135.148 103.555C134.8 103.769 134.42 103.928 134.024 104.027C133.071 104.261 132.065 104.127 131.206 103.652C130.348 103.177 129.7 102.396 129.392 101.465C129.084 100.533 129.139 99.5197 129.545 98.6266C129.951 97.7335 130.679 97.0264 131.584 96.6463C132.488 96.2662 133.503 96.2411 134.425 96.576C135.347 96.9108 136.109 97.5811 136.559 98.453C137.009 99.3249 137.113 100.334 136.852 101.28C136.59 102.226 135.982 103.038 135.148 103.555Z" fill="#F5EF0D"/>
<path d="M134.257 99.8054C134.257 100.042 134.187 100.273 134.055 100.47C133.924 100.667 133.737 100.82 133.519 100.91C133.3 101.001 133.06 101.025 132.828 100.978C132.596 100.932 132.383 100.818 132.215 100.651C132.048 100.484 131.934 100.271 131.888 100.039C131.842 99.8067 131.866 99.5662 131.956 99.3477C132.047 99.1291 132.2 98.9424 132.397 98.8109C132.593 98.6795 132.824 98.6094 133.061 98.6094C133.378 98.6094 133.682 98.7354 133.907 98.9597C134.131 99.184 134.257 99.4882 134.257 99.8054Z" fill="white"/>
<path d="M135.148 103.064V103.555C134.8 103.769 134.421 103.928 134.024 104.027C133.519 104.154 132.994 104.177 132.481 104.096C131.967 104.015 131.475 103.831 131.034 103.555V103.064C131.034 102.522 131.249 102.002 131.633 101.618C132.016 101.235 132.537 101.019 133.079 101.019C133.621 101.019 134.142 101.235 134.525 101.618C134.909 102.002 135.124 102.522 135.124 103.064H135.148Z" fill="white"/>
<path d="M157.489 102.819H152.346L154.445 100.248L152.346 97.6763H157.489L159.588 100.248L157.489 102.819Z" fill="white"/>
<path d="M144.274 97.6763L145.111 99.3686L146.976 99.6377L145.625 100.959L145.948 102.819L144.274 101.94L142.605 102.819L142.922 100.959L141.571 99.6377L143.436 99.3686L144.274 97.6763Z" fill="white"/>
<path d="M193.62 99.2012H163.278V101.294H193.62V99.2012Z" fill="#DBDBDB"/>
<path d="M218.019 99.2012H206.125V101.294H218.019V99.2012Z" fill="#C7C7C7"/>
<path d="M135.148 120.675C134.8 120.89 134.42 121.049 134.024 121.148C133.071 121.382 132.065 121.248 131.206 120.773C130.348 120.298 129.7 119.517 129.392 118.585C129.084 117.654 129.139 116.64 129.545 115.747C129.951 114.854 130.679 114.147 131.584 113.767C132.488 113.387 133.503 113.362 134.425 113.697C135.347 114.031 136.109 114.702 136.559 115.574C137.009 116.446 137.113 117.455 136.852 118.401C136.59 119.346 135.982 120.159 135.148 120.675Z" fill="#A6A6A6"/>
<path d="M134.257 116.926C134.257 117.163 134.187 117.394 134.055 117.59C133.924 117.787 133.737 117.94 133.519 118.031C133.3 118.121 133.06 118.145 132.828 118.099C132.596 118.053 132.383 117.939 132.215 117.772C132.048 117.604 131.934 117.391 131.888 117.159C131.842 116.927 131.866 116.687 131.956 116.468C132.047 116.25 132.2 116.063 132.397 115.932C132.593 115.8 132.824 115.73 133.061 115.73C133.378 115.73 133.682 115.856 133.907 116.08C134.131 116.305 134.257 116.609 134.257 116.926Z" fill="white"/>
<path d="M135.148 120.191V120.676C134.8 120.89 134.421 121.049 134.024 121.148C133.519 121.275 132.994 121.298 132.481 121.217C131.967 121.136 131.475 120.952 131.034 120.676V120.191C131.034 119.649 131.249 119.129 131.633 118.745C132.016 118.361 132.537 118.146 133.079 118.146C133.621 118.146 134.142 118.361 134.525 118.745C134.909 119.129 135.124 119.649 135.124 120.191H135.148Z" fill="white"/>
<path d="M157.489 119.94H152.346L154.445 117.368L152.346 114.797H157.489L159.588 117.368L157.489 119.94Z" fill="white"/>
<path d="M157.561 120.089H152.03L154.254 117.368L152.03 114.647H157.561L159.78 117.368L157.561 120.089ZM152.663 119.79H157.447L159.421 117.398L157.447 114.976H152.663L154.637 117.398L152.663 119.79Z" fill="#EBEBEB"/>
<path d="M144.274 114.797L145.111 116.489L146.976 116.764L145.625 118.08L145.948 119.94L144.274 119.061L142.605 119.94L142.922 118.08L141.571 116.764L143.436 116.489L144.274 114.797Z" fill="#F5EF0D"/>
<path d="M193.62 116.322H163.278V118.415H193.62V116.322Z" fill="#DBDBDB"/>
<path d="M218.019 116.322H206.125V118.415H218.019V116.322Z" fill="#C7C7C7"/>
<path d="M227.964 125.932H117.094V143.052H227.964V125.932Z" fill="#EBEBEB"/>
<path d="M135.148 137.796C134.8 138.01 134.42 138.169 134.024 138.268C133.071 138.502 132.065 138.369 131.206 137.894C130.348 137.419 129.7 136.637 129.392 135.706C129.084 134.774 129.139 133.761 129.545 132.868C129.951 131.975 130.679 131.268 131.584 130.887C132.488 130.507 133.503 130.482 134.425 130.817C135.347 131.152 136.109 131.822 136.559 132.694C137.009 133.566 137.113 134.576 136.852 135.521C136.59 136.467 135.982 137.279 135.148 137.796Z" fill="#37474F"/>
<path d="M134.257 134.047C134.257 134.283 134.187 134.514 134.055 134.711C133.924 134.908 133.737 135.061 133.519 135.152C133.3 135.242 133.06 135.266 132.828 135.22C132.596 135.173 132.383 135.06 132.215 134.892C132.048 134.725 131.934 134.512 131.888 134.28C131.842 134.048 131.866 133.807 131.956 133.589C132.047 133.37 132.2 133.184 132.397 133.052C132.593 132.921 132.824 132.851 133.061 132.851C133.378 132.851 133.682 132.977 133.907 133.201C134.131 133.425 134.257 133.729 134.257 134.047Z" fill="white"/>
<path d="M135.148 137.294V137.778C134.8 137.992 134.421 138.151 134.024 138.25C133.519 138.377 132.994 138.401 132.481 138.319C131.967 138.238 131.475 138.054 131.034 137.778V137.294C131.034 136.751 131.249 136.231 131.633 135.848C132.016 135.464 132.537 135.249 133.079 135.249C133.621 135.249 134.142 135.464 134.525 135.848C134.909 136.231 135.124 136.751 135.124 137.294H135.148Z" fill="white"/>
<path d="M157.489 137.061H152.346L154.445 134.489L152.346 131.918H157.489L159.588 134.489L157.489 137.061Z" fill="white"/>
<path d="M144.274 131.918L145.111 133.61L146.976 133.885L145.625 135.201L145.948 137.061L144.274 136.182L142.605 137.061L142.922 135.201L141.571 133.885L143.436 133.61L144.274 131.918Z" fill="#F5EF0D"/>
<path d="M193.62 133.443H163.278V135.536H193.62V133.443Z" fill="#DBDBDB"/>
<path d="M218.019 133.443H206.125V135.536H218.019V133.443Z" fill="#C7C7C7"/>
<path d="M227.97 228.656V237.028C227.994 238.759 227.581 240.467 226.767 241.995C225.954 243.523 224.767 244.82 223.317 245.765H121.753C120.303 244.82 119.116 243.523 118.302 241.995C117.488 240.468 117.075 238.759 117.1 237.028V228.656H227.97Z" fill="#EBEBEB"/>
<path d="M135.148 240.527C134.8 240.741 134.42 240.9 134.024 240.999C133.071 241.233 132.065 241.099 131.206 240.624C130.348 240.149 129.7 239.368 129.392 238.436C129.084 237.505 129.139 236.491 129.545 235.598C129.951 234.705 130.679 233.998 131.584 233.618C132.488 233.238 133.503 233.213 134.425 233.548C135.347 233.883 136.109 234.553 136.559 235.425C137.009 236.297 137.113 237.306 136.852 238.252C136.59 239.197 135.982 240.01 135.148 240.527Z" fill="#F5EF0D"/>
<path d="M134.257 236.777C134.257 237.014 134.187 237.245 134.055 237.442C133.924 237.638 133.737 237.792 133.519 237.882C133.3 237.973 133.06 237.996 132.828 237.95C132.596 237.904 132.383 237.79 132.215 237.623C132.048 237.455 131.934 237.242 131.888 237.01C131.842 236.778 131.866 236.538 131.956 236.319C132.047 236.101 132.2 235.914 132.397 235.783C132.593 235.651 132.824 235.581 133.061 235.581C133.378 235.581 133.682 235.707 133.907 235.931C134.131 236.156 134.257 236.46 134.257 236.777Z" fill="white"/>
<path d="M135.148 240.036V240.527C134.8 240.741 134.421 240.9 134.024 240.999C133.519 241.124 132.995 241.147 132.481 241.066C131.967 240.985 131.475 240.801 131.034 240.527V240.036C131.034 239.494 131.249 238.974 131.633 238.59C132.016 238.207 132.537 237.991 133.079 237.991C133.621 237.991 134.142 238.207 134.525 238.59C134.909 238.974 135.124 239.494 135.124 240.036H135.148Z" fill="white"/>
<path d="M157.489 239.791H152.346L154.445 237.22L152.346 234.648H157.489L159.588 237.22L157.489 239.791Z" fill="white"/>
<path d="M144.274 234.648L145.111 236.341L146.976 236.61L145.625 237.931L145.948 239.791L144.274 238.912L142.605 239.791L142.922 237.931L141.571 236.61L143.436 236.341L144.274 234.648Z" fill="#F5EF0D"/>
<path d="M193.62 236.173H163.278V238.266H193.62V236.173Z" fill="#DBDBDB"/>
<path d="M218.019 236.173H206.125V238.266H218.019V236.173Z" fill="#C7C7C7"/>
<path d="M135.148 154.917C134.625 155.239 134.034 155.433 133.422 155.483C132.81 155.533 132.195 155.437 131.627 155.204C131.059 154.971 130.554 154.607 130.154 154.141C129.753 153.675 129.469 153.122 129.323 152.525C129.153 151.827 129.18 151.096 129.399 150.413C129.619 149.729 130.023 149.119 130.568 148.651C131.112 148.183 131.776 147.874 132.485 147.76C133.193 147.645 133.92 147.729 134.585 148.002C135.249 148.275 135.825 148.726 136.248 149.306C136.672 149.885 136.927 150.571 136.986 151.287C137.044 152.003 136.903 152.72 136.579 153.361C136.255 154.002 135.759 154.54 135.148 154.917Z" fill="#263238"/>
<path d="M134.257 151.168C134.257 151.404 134.187 151.635 134.055 151.832C133.924 152.029 133.737 152.182 133.519 152.273C133.3 152.363 133.06 152.387 132.828 152.341C132.596 152.295 132.383 152.181 132.215 152.013C132.048 151.846 131.934 151.633 131.888 151.401C131.842 151.169 131.866 150.929 131.956 150.71C132.047 150.491 132.2 150.305 132.397 150.173C132.593 150.042 132.824 149.972 133.061 149.972C133.378 149.972 133.682 150.098 133.907 150.322C134.131 150.546 134.257 150.85 134.257 151.168Z" fill="white"/>
<path d="M135.148 154.432V154.917C134.534 155.298 133.826 155.5 133.103 155.5C132.38 155.5 131.672 155.298 131.058 154.917V154.432C131.058 153.89 131.273 153.37 131.657 152.986C132.04 152.603 132.56 152.387 133.103 152.387C133.645 152.387 134.166 152.603 134.549 152.986C134.933 153.37 135.148 153.89 135.148 154.432Z" fill="white"/>
<path d="M157.489 154.181H152.346L154.445 151.61L152.346 149.039H157.489L159.588 151.61L157.489 154.181Z" fill="white"/>
<path d="M157.561 154.331H152.03L154.254 151.61L152.03 148.889H157.561L159.78 151.61L157.561 154.331ZM152.663 154.032H157.447L159.421 151.61L157.447 149.188H152.663L154.637 151.61L152.663 154.032Z" fill="#EBEBEB"/>
<path d="M144.274 149.039L145.111 150.731L146.976 151.006L145.625 152.322L145.948 154.181L144.274 153.302L142.605 154.181L142.922 152.322L141.571 151.006L143.436 150.731L144.274 149.039Z" fill="white"/>
<path d="M146.145 154.456L144.273 153.476L142.402 154.456L142.76 152.375L141.248 150.898L143.341 150.599L144.273 148.704L145.206 150.599L147.299 150.898L145.786 152.375L146.145 154.456ZM144.273 153.135L145.745 153.912L145.463 152.268L146.659 151.108L145.009 150.868L144.273 149.379L143.52 150.868L141.875 151.108L143.071 152.268L142.79 153.912L144.273 153.135Z" fill="#EBEBEB"/>
<path d="M193.62 150.563H163.278V152.656H193.62V150.563Z" fill="#DBDBDB"/>
<path d="M218.019 150.563H206.125V152.656H218.019V150.563Z" fill="#C7C7C7"/>
<path d="M227.964 160.173H117.094V177.294H227.964V160.173Z" fill="#EBEBEB"/>
<path d="M135.148 172.043C134.799 172.256 134.42 172.413 134.024 172.51C133.277 172.691 132.493 172.647 131.771 172.383C131.05 172.119 130.422 171.647 129.969 171.027C129.515 170.407 129.255 169.666 129.223 168.898C129.19 168.13 129.386 167.37 129.785 166.713C130.185 166.056 130.77 165.533 131.466 165.209C132.163 164.884 132.94 164.774 133.7 164.891C134.459 165.009 135.167 165.349 135.734 165.868C136.3 166.387 136.7 167.063 136.882 167.81C137.076 168.608 137.013 169.447 136.701 170.208C136.39 170.968 135.846 171.61 135.148 172.043Z" fill="#F5EF0D"/>
<path d="M134.257 168.288C134.257 168.525 134.187 168.756 134.055 168.953C133.924 169.149 133.737 169.303 133.519 169.393C133.3 169.484 133.06 169.507 132.828 169.461C132.596 169.415 132.383 169.301 132.215 169.134C132.048 168.967 131.934 168.754 131.888 168.522C131.842 168.29 131.866 168.049 131.956 167.831C132.047 167.612 132.2 167.425 132.397 167.294C132.593 167.162 132.824 167.092 133.061 167.092C133.378 167.092 133.682 167.218 133.907 167.443C134.131 167.667 134.257 167.971 134.257 168.288Z" fill="white"/>
<path d="M135.148 171.553V172.044C134.799 172.256 134.42 172.413 134.024 172.51C133.519 172.637 132.994 172.66 132.481 172.579C131.967 172.498 131.475 172.314 131.034 172.038V171.553C131.034 171.011 131.249 170.491 131.633 170.107C132.016 169.724 132.537 169.508 133.079 169.508C133.621 169.508 134.142 169.724 134.525 170.107C134.909 170.491 135.124 171.011 135.124 171.553H135.148Z" fill="white"/>
<path d="M157.489 171.308H152.346L154.445 168.731L152.346 166.159H157.489L159.588 168.731L157.489 171.308Z" fill="white"/>
<path d="M144.274 166.159L145.111 167.857L146.976 168.127L145.625 169.442L145.948 171.308L144.274 170.429L142.605 171.308L142.922 169.442L141.571 168.127L143.436 167.857L144.274 166.159Z" fill="#F5EF0D"/>
<path d="M193.62 167.69H163.278V169.783H193.62V167.69Z" fill="#263238"/>
<path d="M218.019 167.69H206.125V169.783H218.019V167.69Z" fill="#455A64"/>
<path d="M135.148 189.165C134.801 189.379 134.421 189.537 134.024 189.631C133.277 189.812 132.493 189.768 131.771 189.504C131.05 189.24 130.422 188.768 129.969 188.148C129.515 187.528 129.255 186.787 129.223 186.019C129.19 185.251 129.386 184.491 129.785 183.834C130.185 183.177 130.77 182.654 131.466 182.33C132.163 182.005 132.94 181.895 133.7 182.012C134.459 182.13 135.167 182.47 135.734 182.989C136.3 183.508 136.7 184.184 136.882 184.931C137.076 185.729 137.013 186.568 136.701 187.329C136.39 188.089 135.846 188.732 135.148 189.165Z" fill="#F5EF0D"/>
<path d="M134.257 185.409C134.257 185.645 134.187 185.877 134.055 186.073C133.924 186.27 133.737 186.423 133.519 186.514C133.3 186.604 133.06 186.628 132.828 186.582C132.596 186.536 132.383 186.422 132.215 186.255C132.048 186.087 131.934 185.874 131.888 185.642C131.842 185.41 131.866 185.17 131.956 184.951C132.047 184.733 132.2 184.546 132.397 184.414C132.593 184.283 132.824 184.213 133.061 184.213C133.378 184.213 133.682 184.339 133.907 184.563C134.131 184.787 134.257 185.092 134.257 185.409Z" fill="white"/>
<path d="M135.148 188.674V189.164C134.801 189.379 134.421 189.537 134.024 189.631C133.519 189.757 132.994 189.781 132.481 189.7C131.967 189.619 131.475 189.434 131.034 189.158V188.674C131.034 188.132 131.249 187.611 131.633 187.228C132.016 186.844 132.537 186.629 133.079 186.629C133.621 186.629 134.142 186.844 134.525 187.228C134.909 187.611 135.124 188.132 135.124 188.674H135.148Z" fill="white"/>
<path d="M157.489 188.429H152.346L154.445 185.858L152.346 183.286H157.489L159.588 185.858L157.489 188.429Z" fill="white"/>
<path d="M157.561 188.579H152.03L154.254 185.858L152.03 183.137H157.561L159.78 185.858L157.561 188.579ZM152.663 188.28H157.447L159.421 185.858L157.447 183.466H152.663L154.637 185.858L152.663 188.28Z" fill="#EBEBEB"/>
<path d="M144.274 183.286L145.111 184.978L146.976 185.248L145.625 186.563L145.948 188.429L144.274 187.55L142.605 188.429L142.922 186.563L141.571 185.248L143.436 184.978L144.274 183.286Z" fill="white"/>
<path d="M146.145 188.722L144.273 187.741L142.402 188.722L142.76 186.641L141.248 185.134L143.341 184.829L144.273 182.933L145.206 184.829L147.299 185.134L145.786 186.605L146.145 188.722ZM141.893 185.379L143.089 186.539L142.808 188.178L144.279 187.4L145.75 188.178L145.469 186.539L146.665 185.379L145.015 185.134L144.279 183.645L143.52 185.134L141.893 185.379Z" fill="#EBEBEB"/>
<path d="M193.62 184.811H163.278V186.904H193.62V184.811Z" fill="#DBDBDB"/>
<path d="M218.019 184.811H206.125V186.904H218.019V184.811Z" fill="#C7C7C7"/>
<path d="M227.964 194.415H117.094V211.536H227.964V194.415Z" fill="#EBEBEB"/>
<path d="M135.148 206.285C134.801 206.5 134.421 206.657 134.024 206.751C133.076 206.979 132.077 206.841 131.226 206.365C130.376 205.888 129.736 205.109 129.434 204.182C129.133 203.255 129.192 202.248 129.6 201.363C130.007 200.477 130.734 199.778 131.634 199.404C132.535 199.031 133.543 199.01 134.458 199.347C135.373 199.684 136.127 200.353 136.57 201.221C137.014 202.089 137.114 203.093 136.85 204.031C136.586 204.97 135.979 205.775 135.148 206.285Z" fill="#455A64"/>
<path d="M134.257 202.529C134.257 202.766 134.187 202.997 134.055 203.194C133.924 203.391 133.737 203.544 133.519 203.634C133.3 203.725 133.06 203.749 132.828 203.703C132.596 203.656 132.383 203.542 132.215 203.375C132.048 203.208 131.934 202.995 131.888 202.763C131.842 202.531 131.866 202.29 131.956 202.072C132.047 201.853 132.2 201.666 132.397 201.535C132.593 201.404 132.824 201.333 133.061 201.333C133.378 201.333 133.682 201.46 133.907 201.684C134.131 201.908 134.257 202.212 134.257 202.529Z" fill="white"/>
<path d="M135.148 205.795V206.285C134.801 206.5 134.421 206.657 134.024 206.751C133.52 206.878 132.995 206.901 132.482 206.821C131.968 206.741 131.476 206.559 131.034 206.285V205.795C131.034 205.252 131.249 204.732 131.633 204.349C132.016 203.965 132.537 203.75 133.079 203.75C133.621 203.75 134.142 203.965 134.525 204.349C134.909 204.732 135.124 205.252 135.124 205.795H135.148Z" fill="white"/>
<path d="M157.489 205.55H152.346L154.445 202.978L152.346 200.407H157.489L159.588 202.978L157.489 205.55Z" fill="white"/>
<path d="M144.274 200.407L145.111 202.099L146.976 202.368L145.625 203.684L145.948 205.55L144.274 204.67L142.605 205.55L142.922 203.684L141.571 202.368L143.436 202.099L144.274 200.407Z" fill="white"/>
<path d="M193.62 201.932H163.278V204.025H193.62V201.932Z" fill="#DBDBDB"/>
<path d="M218.019 201.932H206.125V204.025H218.019V201.932Z" fill="#C7C7C7"/>
<path d="M135.148 223.406C134.801 223.621 134.421 223.778 134.024 223.873C133.076 224.1 132.077 223.962 131.226 223.486C130.376 223.009 129.736 222.23 129.434 221.303C129.133 220.376 129.192 219.369 129.6 218.484C130.007 217.598 130.734 216.899 131.634 216.525C132.535 216.152 133.543 216.131 134.458 216.468C135.373 216.805 136.127 217.474 136.57 218.342C137.014 219.21 137.114 220.214 136.85 221.152C136.586 222.091 135.979 222.896 135.148 223.406Z" fill="#A6A6A6"/>
<path d="M134.257 219.656C134.257 219.893 134.187 220.124 134.055 220.321C133.924 220.518 133.737 220.671 133.519 220.761C133.3 220.852 133.06 220.876 132.828 220.829C132.596 220.783 132.383 220.669 132.215 220.502C132.048 220.335 131.934 220.122 131.888 219.89C131.842 219.658 131.866 219.417 131.956 219.199C132.047 218.98 132.2 218.793 132.397 218.662C132.593 218.531 132.824 218.46 133.061 218.46C133.378 218.46 133.682 218.586 133.907 218.811C134.131 219.035 134.257 219.339 134.257 219.656Z" fill="white"/>
<path d="M135.148 222.916V223.406C134.801 223.621 134.421 223.778 134.024 223.873C133.52 224 132.995 224.025 132.481 223.945C131.967 223.865 131.475 223.681 131.034 223.406V222.916C131.034 222.373 131.249 221.853 131.633 221.47C132.016 221.086 132.537 220.871 133.079 220.871C133.621 220.871 134.142 221.086 134.525 221.47C134.909 221.853 135.124 222.373 135.124 222.916H135.148Z" fill="white"/>
<path d="M157.489 222.67H152.346L154.445 220.099L152.346 217.527H157.489L159.588 220.099L157.489 222.67Z" fill="white"/>
<path d="M157.561 222.808H152.03L154.254 220.087L152.03 217.366H157.561L159.78 220.087L157.561 222.808ZM152.663 222.509H157.447L159.421 220.117L157.447 217.695H152.663L154.637 220.117L152.663 222.509Z" fill="#EBEBEB"/>
<path d="M144.274 217.527L145.111 219.22L146.976 219.489L145.625 220.81L145.948 222.67L144.274 221.791L142.605 222.67L142.922 220.81L141.571 219.489L143.436 219.22L144.274 217.527Z" fill="white"/>
<path d="M146.145 222.945L144.273 221.959L142.402 222.945L142.76 220.858L141.248 219.387L143.341 219.082L144.273 217.187L145.206 219.082L147.299 219.387L145.786 220.858L146.145 222.945ZM144.273 221.612L145.745 222.383L145.463 220.745L146.659 219.584L145.009 219.345L144.273 217.85L143.538 219.345L141.893 219.584L143.089 220.745L142.808 222.383L144.273 221.612Z" fill="#EBEBEB"/>
<path d="M193.62 219.052H163.278V221.145H193.62V219.052Z" fill="#DBDBDB"/>
<path d="M218.019 219.052H206.125V221.145H218.019V219.052Z" fill="#C7C7C7"/>
<path d="M134.389 254.335H85.8429C80.0363 233.967 75.366 218.455 75.366 218.455H121.394C121.394 218.455 127.081 233.817 134.389 254.335Z" fill="#37474F"/>
<path d="M92.9531 254.335H91.9545C89.0781 244.737 86.0881 235.199 83.1579 225.589C83.116 225.463 83.3134 225.403 83.3612 225.529C83.9592 227.191 84.5572 228.854 85.1552 230.522C87.9538 238.392 90.5193 246.345 92.9531 254.335Z" fill="#263238"/>
<path d="M120.342 218.472C120.288 219.435 117.722 228.244 116.395 241.424C115.91 246.285 115.36 250.86 114.774 254.335H50.3517C43.977 234.636 53.4374 218.455 53.4374 218.455C53.4374 218.455 120.348 218.431 120.342 218.472Z" fill="#37474F"/>
<path d="M107.467 240.288C107.694 243.594 107.772 246.907 107.73 250.214C107.625 251.585 107.613 252.962 107.694 254.335H106.576C106.307 252.236 106.576 249.622 106.576 247.559C106.54 239.014 105.451 230.564 104.136 222.132C104.135 222.094 104.147 222.057 104.17 222.028C104.194 221.998 104.227 221.977 104.264 221.969C104.301 221.961 104.339 221.967 104.373 221.985C104.406 222.002 104.433 222.031 104.447 222.066C106.076 228.02 107.088 234.126 107.467 240.288Z" fill="#263238"/>
<path d="M115.456 244.557C115.396 246.315 114.918 250.998 113.536 254.335H112.574C114.445 249.772 114.338 240.868 114.2 238.787C113.811 232.687 113.339 226.958 112.304 220.536C112.269 220.332 112.603 220.32 112.645 220.506C114.469 228.256 115.707 236.604 115.456 244.557Z" fill="#263238"/>
<path d="M54.3284 227.024C52.4626 235.091 53.3716 243.768 55.1536 251.751C55.339 252.618 55.5483 253.479 55.7516 254.334H54.7829C52.1457 243.206 51.3384 231.688 55.9789 220.894C56.0387 220.763 56.236 220.894 56.1822 221.008C55.4123 222.963 54.7926 224.974 54.3284 227.024Z" fill="#263238"/>
<path d="M161.281 100.816L150.696 134.507C150.271 135.488 150.732 136.337 151.713 136.391L169.342 137.396C169.882 137.388 170.408 137.226 170.859 136.929C171.31 136.633 171.668 136.214 171.889 135.721L182.45 102.054C182.874 101.067 182.414 100.224 181.433 100.17L163.852 99.1655C163.311 99.167 162.781 99.3232 162.326 99.6156C161.87 99.908 161.507 100.324 161.281 100.816Z" fill="#37474F"/>
<path d="M163.374 100.942L152.813 134.609C152.388 135.59 152.849 136.433 153.835 136.493L171.459 137.497C171.999 137.488 172.526 137.326 172.978 137.03C173.43 136.733 173.788 136.315 174.012 135.823L184.567 102.15C184.991 101.169 184.537 100.356 183.55 100.272L165.921 99.2612C165.381 99.272 164.855 99.4356 164.404 99.733C163.953 100.03 163.596 100.449 163.374 100.942Z" fill="#455A64"/>
<path d="M168.116 102.778C168.092 103.074 167.982 103.356 167.798 103.589C167.614 103.822 167.365 103.996 167.082 104.087C166.8 104.179 166.496 104.184 166.211 104.103C165.925 104.022 165.669 103.859 165.477 103.633C165.284 103.406 165.163 103.128 165.129 102.833C165.094 102.538 165.148 102.24 165.283 101.975C165.419 101.711 165.629 101.493 165.889 101.348C166.148 101.204 166.444 101.139 166.74 101.163C167.137 101.195 167.504 101.383 167.762 101.686C168.02 101.989 168.147 102.381 168.116 102.778Z" fill="#263238"/>
<path d="M101.499 149.32C110.068 171.213 130.633 200.263 139.89 200.993C144.292 201.346 152.089 202.919 158.207 198.236C171.554 188.022 183.496 167.583 186.445 155.629C187.497 151.377 167.177 140.679 163.852 143.974C156.078 151.7 146.6 167.242 145.314 167.062C140.602 166.393 123.08 149.72 110.863 138.006C96.0329 123.773 98.0721 140.595 101.499 149.32Z" fill="#EB9481"/>
<path d="M188.43 133.431C186.791 124.545 185.009 122.518 187.605 114.295C189.309 108.913 186.594 105.487 182.414 109.637C175.573 116.418 175.28 128.324 176.368 132.48L188.43 133.431Z" fill="#EB9481"/>
<path d="M185.177 159.312C185.177 159.312 189.877 147.394 189.07 137.784C188.508 131.123 185.673 116.759 167.691 108.088C163.428 106.03 155.893 106.126 161.639 112.016C165.718 116.202 169.575 117.62 171.506 120.484C171.506 120.484 161.938 121.74 160.037 126.093C158.385 129.9 157.004 133.819 155.905 137.82C156.591 138.19 157.3 138.516 158.028 138.795C158.028 138.795 156.383 142.927 159.116 149.122L185.177 159.312Z" fill="#EB9481"/>
<path d="M187.521 131.481C185.003 129.041 179.579 123.964 173.695 121.351C167.165 118.451 153.794 114.624 151.701 119.468C150.17 123.02 155.145 124.933 155.145 124.933C155.145 124.933 149.285 124.515 148.603 128.025C148.005 131.224 151.916 132.474 151.916 132.474C151.916 132.474 148.328 132.833 148.328 136.032C148.328 139.877 155.857 138.496 159.218 142.401C159.959 143.274 187.521 131.481 187.521 131.481Z" fill="#EB9481"/>
<path d="M171.782 128.767C169.037 126.859 161.693 124.132 155.265 124.844C155.115 124.844 155.05 124.975 155.187 124.987C160.845 125.593 166.41 126.882 171.758 128.826C171.794 128.844 171.811 128.785 171.782 128.767Z" fill="#263238"/>
<path d="M168.636 135.279C166.101 133.874 158.41 131.404 151.892 132.343C151.749 132.343 151.689 132.486 151.826 132.498C157.497 132.808 163.114 133.761 168.57 135.339C168.578 135.348 168.589 135.353 168.601 135.353C168.613 135.354 168.624 135.35 168.633 135.342C168.642 135.334 168.647 135.323 168.648 135.311C168.648 135.299 168.644 135.288 168.636 135.279Z" fill="#263238"/>
<path d="M128.247 151.102L124.982 155.067L124.306 155.892L111.228 171.691C111.228 171.691 99.3936 152.364 97.0016 141.373C95.5724 134.795 96.601 130.878 99.4773 130.166C99.6915 130.116 99.9096 130.084 100.129 130.07C101.989 129.909 104.489 130.89 107.479 133.096C115.898 139.315 128.247 151.102 128.247 151.102Z" fill="#F5EF0D"/>
<path d="M127.518 150.45C127.216 151.441 126.846 152.41 126.411 153.35L128.205 151.198C128.21 151.172 128.21 151.146 128.205 151.12C128.151 151.012 127.906 150.779 127.518 150.45ZM107.431 133.108C106.269 133.847 105.204 134.729 104.261 135.733C101.397 138.731 99.7951 142.716 99.7883 146.862C99.7971 147.975 99.869 149.088 100.004 150.193C100.299 150.875 100.598 151.556 100.901 152.238C100.847 151.796 100.787 151.359 100.727 150.91C100.31 148.523 100.278 146.084 100.632 143.687C101.009 141.796 101.729 139.991 102.754 138.358C104.018 136.319 105.702 134.572 107.694 133.234C107.616 133.186 107.55 133.132 107.479 133.078L107.431 133.108Z" fill="white"/>
<path d="M108.687 165.119C109.392 163.456 116.658 153.476 122.71 147.137C122.728 147.116 122.754 147.104 122.781 147.102C122.809 147.101 122.836 147.11 122.856 147.128C122.877 147.146 122.889 147.172 122.891 147.199C122.893 147.227 122.883 147.254 122.865 147.275C122.267 148.052 110.307 164.084 108.896 165.298C108.782 165.4 108.639 165.239 108.687 165.119Z" fill="#263238"/>
<path opacity="0.05" d="M119.6 161.591L111.228 171.685C111.228 171.685 99.3937 152.364 97.0017 141.373C95.3512 133.79 96.9598 129.759 100.889 130.064L119.6 161.591Z" fill="black"/>
<path d="M121.992 221.128C120.318 222.922 49.5204 230.487 49.1137 229.996C48.0314 228.675 54.5436 157.124 83.5466 130.914C88.6595 126.297 97.6893 127.613 101.875 129.987C103.962 131.183 107.598 141.062 111.156 152.609C113.847 161.43 123.021 219.968 121.992 221.128Z" fill="#F5EF0D"/>
<path d="M121.992 221.128C121.621 221.528 117.806 222.222 112.107 223.047L111.461 223.137C108.579 223.55 105.254 223.992 101.666 224.441L100.889 224.542C90.6449 225.828 78.4278 227.203 68.4292 228.256L68.1063 228.286C57.3423 229.422 49.2514 230.163 49.1138 229.996C48.9763 229.829 48.9763 226.845 49.4487 222.144C49.4487 221.947 49.4906 221.738 49.5085 221.546C50.6387 210.681 53.7722 190.941 60.1469 171.846C60.2486 171.536 60.3562 171.248 60.4579 170.92C62.3654 165.227 64.616 159.656 67.1973 154.235C67.2751 154.074 67.3468 153.918 67.4306 153.757C69.9575 148.44 73.002 143.384 76.5202 138.663C76.6398 138.508 76.7534 138.358 76.879 138.215C78.8784 135.59 81.11 133.15 83.5467 130.925C84.2299 130.316 84.9874 129.796 85.8011 129.377C85.9865 129.281 86.1779 129.191 86.3692 129.107C88.9191 128.037 91.6975 127.626 94.4482 127.911L95.1299 127.983C97.488 128.214 99.7789 128.9 101.875 130.004C102.695 130.477 103.759 132.283 104.961 135.028C105.021 135.147 105.075 135.279 105.128 135.41C106.922 139.596 109.069 145.839 111.156 152.627C111.892 155.019 113.118 161.118 114.475 168.725L114.565 169.239C115.037 171.864 115.522 174.675 116.006 177.569C116.078 177.982 116.15 178.389 116.215 178.801C117.202 184.709 118.189 190.917 119.068 196.705C119.098 196.939 119.134 197.178 119.175 197.405C119.917 202.356 120.575 206.973 121.083 210.794C121.119 211.099 121.155 211.392 121.197 211.691C121.872 217.181 122.219 220.847 121.992 221.128Z" fill="#F5EF0D"/>
<path d="M98.9571 214.191C97.7507 212.505 96.2148 211.081 94.4422 210.005C92.5384 208.898 90.4389 208.169 88.2589 207.858C85.9746 207.463 83.5766 207.26 81.4357 206.267C79.3906 205.341 77.9554 203.684 76.5262 202.016C76.1494 201.579 75.7607 201.143 75.366 200.724C75.8145 200.419 76.269 200.126 76.7355 199.821C79.4205 198.171 82.3866 196.927 84.8683 194.965C87.1143 193.224 88.6868 190.758 89.3174 187.987C89.9205 185.256 89.7127 182.408 88.7194 179.794C87.6647 177.156 85.9268 174.846 83.6842 173.102C81.385 171.342 78.7563 170.06 75.9532 169.333C73.1502 168.606 70.2299 168.448 67.3648 168.869C64.9676 169.188 62.6328 169.87 60.44 170.89C60.3383 171.201 60.2307 171.488 60.129 171.817C61.192 171.281 62.2958 170.832 63.43 170.471C68.901 168.674 74.8586 169.092 80.0245 171.637C82.5159 172.876 84.6718 174.698 86.3094 176.947C87.885 179.173 88.7729 181.811 88.8629 184.536C88.9875 187.229 88.2157 189.887 86.6682 192.095C84.8742 194.529 82.1414 196 79.5461 197.405C77.9434 198.278 76.3886 199.199 74.8757 200.222C74.0009 199.315 72.9511 198.594 71.79 198.105C69.8609 197.401 67.7474 197.388 65.81 198.069C61.5941 199.486 59.0885 203.57 58.6041 207.858C58.3679 210.249 58.6452 212.663 59.4174 214.938C57.6599 216.739 55.6946 218.325 53.563 219.663C52.2832 220.454 50.9089 221.08 49.4726 221.528C49.4726 221.732 49.4308 221.941 49.4128 222.126C49.67 222.055 49.9271 221.977 50.1783 221.887C53.844 220.649 56.8938 218.269 59.6506 215.596C60.4181 217.672 61.4214 219.652 62.6406 221.498C64.2191 223.935 66.0425 226.203 68.0824 228.268L68.4053 228.238C67.226 226.993 66.1218 225.679 65.0984 224.303C62.9546 221.552 61.2538 218.483 60.0572 215.208C61.0798 214.191 62.0665 213.132 63.0472 212.086C64.9369 210.029 66.7967 207.9 68.812 205.98C70.6908 204.174 72.7171 202.528 74.8697 201.059C76.1554 202.428 77.2617 203.977 78.661 205.245C80.312 206.617 82.2969 207.527 84.4138 207.882C86.6084 208.342 88.8689 208.528 91.0277 209.192C92.9498 209.798 94.7155 210.819 96.2004 212.182C97.6971 213.514 98.8966 215.147 99.7208 216.974C100.545 218.8 100.976 220.78 100.984 222.784C100.98 223.375 100.934 223.964 100.847 224.548L101.624 224.447C102.054 220.814 101.102 217.153 98.9571 214.191ZM71.5747 202.644C69.3081 204.511 67.1834 206.543 65.218 208.725C63.424 210.651 61.6958 212.666 59.836 214.55C59.5082 213.487 59.28 212.396 59.1543 211.291C58.6878 207.105 59.9616 202.321 63.5615 199.821C65.206 198.663 67.1849 198.077 69.1947 198.153C71.1643 198.289 73.0116 199.157 74.3734 200.586C73.4225 201.238 72.4837 201.914 71.5747 202.644ZM119.038 196.664C116.969 198.32 115.001 200.126 112.687 201.448C109.356 203.349 104.776 204.36 101.744 201.34C100.481 200.114 99.7197 198.461 99.6092 196.704C99.4986 194.947 100.046 193.212 101.146 191.838C102.342 190.163 103.819 188.758 104.979 187.054C105.93 185.629 106.76 184.126 107.461 182.563C108.946 183.009 110.538 182.952 111.988 182.401C113.757 181.69 115.233 180.4 116.174 178.741C116.108 178.329 116.036 177.922 115.964 177.51C115.495 178.428 114.891 179.271 114.17 180.009C113.506 180.716 112.692 181.267 111.787 181.619C110.883 181.972 109.912 182.119 108.944 182.048C108.552 182.009 108.164 181.939 107.784 181.839C107.873 181.654 107.957 181.462 108.041 181.241C109.721 177.402 111.126 173.342 113.77 170.017C114.004 169.717 114.254 169.43 114.517 169.156L114.427 168.641C111.94 171.225 110.337 174.585 108.92 177.833C108.364 179.106 107.819 180.386 107.227 181.654C105.9 181.181 104.698 180.412 103.711 179.405C100.464 176.098 100.219 170.991 100.554 166.638C100.769 163.983 101.152 161.34 101.283 158.685C101.312 156.063 101.111 153.444 100.685 150.857C100.268 148.469 100.236 146.031 100.59 143.633C100.967 141.743 101.687 139.937 102.713 138.305C103.374 137.219 104.161 136.216 105.057 135.315C105.003 135.183 104.949 135.052 104.889 134.932C104.662 135.147 104.441 135.369 104.22 135.602C101.339 138.639 99.7499 142.676 99.7884 146.862C99.7884 149.589 100.333 152.274 100.542 154.989C100.684 157.786 100.55 160.59 100.141 163.361C99.585 168.199 99.0887 173.527 101.612 177.928C102.803 179.999 104.679 181.589 106.917 182.425C106.635 183.023 106.348 183.621 106.037 184.171C105.488 185.193 104.872 186.177 104.196 187.119C103.556 187.993 102.838 188.806 102.133 189.625C100.835 191.138 99.5133 192.789 99.1425 194.786C98.8242 196.501 99.0895 198.274 99.896 199.821C100.675 201.39 101.981 202.635 103.586 203.337C105.528 204.086 107.67 204.143 109.649 203.499C113.393 202.404 116.227 199.767 119.176 197.387C119.104 197.16 119.068 196.921 119.038 196.687V196.664ZM121.167 211.649C119.283 210.154 117.274 208.659 114.81 208.462C113.606 208.324 112.392 208.623 111.39 209.305C110.473 209.997 109.791 210.953 109.434 212.044C108.618 214.448 108.714 217.068 109.703 219.405C110.274 220.763 111.084 222.007 112.095 223.077L111.449 223.167C110.778 222.44 110.194 221.637 109.709 220.775C109.023 219.544 108.567 218.199 108.364 216.804C107.993 214.382 108.364 211.655 109.954 209.712C111.683 207.607 114.499 207.392 116.921 208.277C118.43 208.887 119.831 209.735 121.071 210.788C121.089 211.081 121.125 211.38 121.167 211.673V211.649ZM94.4841 128.886C94.6994 128.587 94.8967 128.288 95.0821 127.965L94.4004 127.894C93.0128 130.023 91.3633 131.97 89.4908 133.688L89.12 134.041C88.7431 132.719 88.1511 131.469 87.3679 130.339C87.0521 129.898 86.7022 129.482 86.3214 129.096C86.13 129.179 85.9387 129.269 85.7533 129.365C87.0066 130.639 87.9356 132.195 88.4622 133.903C88.522 134.101 88.5759 134.298 88.6297 134.501C87.0098 136.107 85.1137 137.408 83.0324 138.341C81.071 139.136 78.679 139.297 76.8311 138.209C76.7056 138.353 76.5919 138.502 76.4723 138.658C78.0017 139.535 79.8022 139.814 81.5254 139.441C84.2703 138.921 86.6144 137.109 88.6656 135.309L88.8031 135.189C89.6642 138.885 89.3413 142.784 89.9214 146.551C90.5851 150.839 92.6423 155.174 91.5838 159.564C91.2356 161.284 90.2989 162.83 88.9347 163.935C88.1132 164.496 87.1685 164.852 86.1806 164.97C85.1927 165.089 84.1907 164.968 83.2596 164.617C79.0258 163.259 76.5561 159.235 73.0518 156.759C71.2552 155.595 69.358 154.594 67.3827 153.769C67.299 153.93 67.2273 154.086 67.1495 154.247C68.3455 154.816 69.5415 155.348 70.6299 155.952C71.4862 156.403 72.3059 156.921 73.0817 157.501C73.9884 158.213 74.8511 158.98 75.665 159.797C77.2856 161.376 78.8763 163.056 80.8497 164.21C82.6437 165.257 84.7905 165.92 86.8716 165.52C87.7642 165.322 88.6048 164.938 89.3378 164.392C90.0707 163.845 90.6793 163.149 91.1233 162.35C92.0343 160.734 92.5045 158.907 92.4868 157.052C92.4868 154.66 91.835 152.268 91.2549 149.954C90.9274 148.723 90.6658 147.475 90.4715 146.216C90.316 145.104 90.2263 143.992 90.1606 142.873C90.0939 140.659 89.9102 138.449 89.6104 136.254C89.5267 135.745 89.425 135.243 89.3054 134.741C91.2447 132.989 92.9817 131.025 94.4841 128.886Z" fill="white"/>
<path d="M76.6577 140.882C65.0026 165.143 49.4008 225.433 47.1105 234.296C45.5497 240.312 76.9626 246.405 77.7939 242.225C78.7507 237.441 90.7645 166.877 89.5685 141.462C88.9167 127.553 80.6882 132.51 76.6577 140.882Z" fill="#EB9481"/>
<path d="M78.1826 239.444C77.8118 244.013 75.1926 253.306 72.9919 254.819C70.7913 256.332 58.7177 256.667 52.6599 256.99C46.6022 257.313 45.2985 255.698 45.2866 253.587C45.2746 251.476 58.0061 250.424 58.0061 250.424C58.0061 250.424 41.262 256.194 37.0222 257.211C32.7824 258.228 23.0649 261.236 21.4742 257.767C20.7088 256.2 23.322 254.442 23.322 254.442C23.322 254.442 19.2497 255.866 18.4842 253.844C17.6111 251.542 20.8344 250.083 20.8344 250.083C20.8344 250.083 18.2749 250.741 18.1194 248.833C17.7606 244.581 33.8229 241.657 33.8229 241.657C33.8229 241.657 21.7553 248.337 21.1752 244.88C20.3739 240.096 45.472 233.482 48.0015 231.246C49.8401 229.543 51.5454 227.702 53.1024 225.738L78.1826 239.444Z" fill="#EB9481"/>
<path d="M45.448 254.64C45.3902 254.344 45.4046 254.04 45.4899 253.751C45.5753 253.463 45.7292 253.199 45.9384 252.983C46.3537 252.561 46.8368 252.211 47.3676 251.949C48.4631 251.408 49.6061 250.97 50.7822 250.639C53.1443 249.904 55.5662 249.347 57.9582 248.588C55.4318 248.68 52.9276 249.096 50.5071 249.826C49.2718 250.177 48.0921 250.7 47.0028 251.381C46.4395 251.73 45.9549 252.192 45.5796 252.738C45.3962 253.017 45.2877 253.339 45.2646 253.672C45.2416 254.005 45.3048 254.338 45.448 254.64Z" fill="#263238"/>
<path d="M23.322 254.442C25.0502 253.922 26.7486 253.336 28.4409 252.75C30.1332 252.164 31.8196 251.554 33.506 250.956L38.5471 249.078C40.2275 248.48 41.9019 247.834 43.6002 247.23C41.8209 247.522 40.0628 247.932 38.3378 248.456C36.6036 248.947 34.9053 249.545 33.2129 250.155C31.5206 250.765 29.8522 251.434 28.2077 252.158C26.5632 252.882 24.9187 253.593 23.322 254.442Z" fill="#263238"/>
<path d="M39.2707 243.182C37.6279 243.376 36.0012 243.688 34.403 244.115C32.799 244.527 31.218 245.024 29.6668 245.604C28.1132 246.176 26.5938 246.837 25.116 247.583C23.6312 248.314 22.2003 249.149 20.8344 250.083C22.3712 249.485 23.8602 248.779 25.3851 248.181C26.91 247.583 28.429 246.985 29.9658 246.387C31.5027 245.789 33.0455 245.269 34.5884 244.725C36.1312 244.181 37.7039 243.696 39.2707 243.182Z" fill="#263238"/>
<path d="M36.5558 239.253C33.9035 239.598 31.3079 240.289 28.8356 241.31C26.3418 242.282 23.9872 243.579 21.833 245.167C24.3027 244.139 26.7007 243.068 29.1525 242.105C31.6043 241.143 34.086 240.204 36.5558 239.253Z" fill="#263238"/>
<path d="M90.1724 168.755L62.1741 168.892C62.1741 168.892 69.7747 146.39 77.0105 137.091C84.2463 127.792 90.0528 129.018 90.6987 139.961C91.3445 150.904 90.1724 168.755 90.1724 168.755Z" fill="#F5EF0D"/>
<path d="M90.6987 139.961C90.7346 140.457 90.7585 140.978 90.7764 141.498C90.7764 141.731 90.7764 141.964 90.8123 142.204C91.207 153.165 90.1784 168.755 90.1784 168.755L82.5719 168.797H81.8124L62.1801 168.904C62.1801 168.904 65.4033 159.336 69.6371 150.139C69.7806 149.834 69.9182 149.541 70.0737 149.218C72.2324 144.601 74.6364 140.146 77.0045 137.103C84.2463 127.792 90.0469 129.024 90.6987 139.961Z" fill="#F5EF0D"/>
<path d="M67.4844 168.868L73.1714 168.832C71.2814 168.611 69.3714 168.623 67.4844 168.868ZM90.4894 146.192C90.334 145.08 90.2443 143.968 90.1785 142.849C90.1118 140.635 89.9281 138.425 89.6283 136.229C89.5446 135.721 89.4429 135.219 89.3233 134.716C89.431 134.609 89.5446 134.513 89.6582 134.4C89.5745 134.184 89.4908 133.981 89.4011 133.802C89.3174 133.891 89.2217 133.969 89.138 134.059C88.9761 133.484 88.7763 132.921 88.54 132.372C88.214 131.947 87.8077 131.589 87.344 131.32C87.8459 132.136 88.2474 133.009 88.54 133.921C88.5998 134.118 88.6536 134.316 88.7074 134.519C87.0875 136.125 85.1914 137.425 83.1101 138.358C80.9872 139.225 78.356 139.339 76.4604 137.928C76.3467 138.083 76.2391 138.233 76.1315 138.394C76.9222 138.936 77.8158 139.311 78.7569 139.494C79.6981 139.677 80.6668 139.665 81.6032 139.459C84.348 138.938 86.6921 137.126 88.7433 135.326L88.8808 135.207C89.7419 138.902 89.419 142.801 89.9991 146.569C90.2203 147.968 90.5971 149.379 90.9439 150.791C90.9439 149.995 90.9439 149.2 90.9439 148.399C90.7346 147.645 90.5911 146.922 90.4894 146.192ZM88.9526 163.905C88.1311 164.466 87.1864 164.821 86.1985 164.94C85.2106 165.059 84.2086 164.937 83.2776 164.587C79.0437 163.229 76.574 159.205 73.0697 156.729C71.4434 155.663 69.7241 154.746 67.9329 153.99C67.8551 154.151 67.7894 154.319 67.7176 154.486C68.7103 154.959 69.7089 155.419 70.6478 155.928C71.5041 156.379 72.3239 156.897 73.0996 157.476C74.0063 158.189 74.869 158.956 75.683 159.773C77.3035 161.351 78.8942 163.032 80.8676 164.186C82.6616 165.232 84.8084 165.896 86.8895 165.496C88.3083 165.195 89.5774 164.408 90.4775 163.271C90.4775 162.918 90.5134 162.547 90.5253 162.165C90.1169 162.84 89.583 163.43 88.9526 163.905Z" fill="white"/>
<path d="M65.78 162.41C67.574 161.86 80.4968 161.005 89.6582 161.615C89.6867 161.615 89.7141 161.626 89.7343 161.646C89.7545 161.667 89.7658 161.694 89.7658 161.722C89.7658 161.751 89.7545 161.778 89.7343 161.799C89.7141 161.819 89.6867 161.83 89.6582 161.83C88.6476 161.89 67.6936 163.026 65.78 162.703C65.5947 162.697 65.6246 162.476 65.78 162.41Z" fill="#263238"/>
<path d="M91.9485 151.784C91.9485 151.765 91.941 151.746 91.9275 151.733C91.914 151.719 91.8958 151.712 91.8768 151.712C91.8577 151.712 91.8395 151.719 91.826 151.733C91.8126 151.746 91.805 151.765 91.805 151.784C91.549 152.736 91.3493 153.702 91.207 154.678C91.1651 154.899 91.1352 155.126 91.0934 155.348C91.0156 152.956 90.902 150.629 90.7764 148.285C90.7764 148.178 90.597 148.178 90.603 148.285C90.6748 156.412 90.4595 163.833 89.9632 168.534L87.5353 168.737C87.5015 168.744 87.4711 168.762 87.4493 168.789C87.4274 168.816 87.4155 168.849 87.4155 168.883C87.4155 168.918 87.4274 168.951 87.4493 168.978C87.4711 169.005 87.5015 169.023 87.5353 169.03L90.621 169.138C90.7525 169.138 91.2668 162.368 91.1412 157.034C91.3087 156.263 91.4881 155.497 91.6136 154.72C91.8001 153.751 91.9121 152.769 91.9485 151.784Z" fill="#263238"/>
<path d="M65.9595 168.898C64.6977 168.976 63.4359 169.042 62.1801 169.078H61.929L62.0067 168.833C62.4971 167.29 62.9994 165.753 63.5495 164.234C64.0997 162.715 64.6558 161.19 65.2538 159.689C65.8518 158.188 66.4498 156.699 67.1495 155.216C67.8492 153.733 68.5189 152.28 69.3023 150.863L67.5083 155.384L65.7861 159.905L64.0638 164.431L62.3476 168.988L62.1801 168.749C63.4359 168.755 64.6977 168.821 65.9595 168.898Z" fill="#263238"/>
<path d="M100.153 142.383C95.8954 143.788 87.8582 137.802 84.4437 132.683C84.2104 132.331 84.4437 117.452 84.2045 114.504C84.1506 113.906 103.143 117.387 103.143 117.387C103.143 117.387 101.857 123.737 102.336 128.88C102.384 129.311 104.267 141.025 100.153 142.383Z" fill="#EB9481"/>
<path d="M103.149 117.381C103.149 117.47 103.059 117.841 102.964 118.439C102.796 119.456 102.545 121.1 102.396 122.966C102.211 124.926 102.197 126.899 102.354 128.862C102.36 128.999 102.376 129.135 102.402 129.269V129.335C102.443 129.574 102.479 129.897 102.521 130.279C101.931 130.412 101.331 130.498 100.727 130.537C90.6151 131.182 86.142 119.097 84.7905 114.42L85.1135 114.45C85.6098 114.486 86.2676 114.564 87.057 114.666L87.655 114.749C88.9167 114.929 90.4237 115.168 91.9905 115.419C92.5047 115.503 93.019 115.581 93.5452 115.676C94.6695 115.874 95.8057 116.065 96.8582 116.238C97.3127 116.328 97.7611 116.406 98.1797 116.478C98.5983 116.549 99.1067 116.639 99.5312 116.711L100.129 116.818L100.422 116.878L101.995 117.159L102.748 117.291C102.855 117.308 102.961 117.332 103.065 117.363C103.095 117.363 103.107 117.363 103.119 117.363L103.149 117.381Z" fill="#263238"/>
<path d="M80.5686 92.8265C78.7746 99.4823 82.8769 118.397 87.7028 122.487C94.7113 128.414 105.864 128.635 110.833 120.299C115.617 112.22 109.859 87.6538 104.495 83.9702C96.589 78.5463 83.2237 82.9954 80.5686 92.8265Z" fill="#EB9481"/>
<path d="M83.3134 111.341C86.6921 110.253 85.1971 101.462 85.1971 101.462C85.1971 101.462 89.2276 99.0701 89.1738 90.8416C89.1738 90.8416 93.5272 98.1791 107.61 93.8615C107.598 91.2334 106.761 88.6755 105.218 86.548C107.083 88.7713 108.763 91.1433 110.241 93.6403C110.241 93.6403 111.539 81.0823 100.572 78.6903C96.2063 77.7394 90.0887 79.1866 81.5254 85.5074C81.5254 85.5074 78.7208 80.2032 77.7699 81.1361C76.8191 82.0689 79.845 86.9486 79.845 86.9486C79.845 86.9486 75.4916 86.4104 74.9534 87.3971C74.4869 88.2463 78.649 88.5931 78.649 88.5931C78.649 88.5931 72.669 91.7326 75.061 98.8189C77.2078 105.301 81.639 111.885 83.3134 111.341Z" fill="#263238"/>
<path d="M79.7732 88.2581C77.9427 88.5231 76.2722 89.4482 75.0761 90.859C73.88 92.2698 73.2409 94.0692 73.279 95.9184C73.3447 98.0294 74.2597 100.158 75.2643 101.988C76.3957 103.931 77.7724 105.719 79.3606 107.31C79.4443 107.4 79.5759 107.251 79.4862 107.161C78.0849 105.649 76.9251 103.931 76.0477 102.066C75.1087 100.328 74.4545 98.4499 74.1102 96.5045C73.8797 94.6934 74.3383 92.8619 75.395 91.3732C76.4517 89.8845 78.0294 88.8473 79.8151 88.4674C79.8398 88.4589 79.8606 88.4418 79.8737 88.4192C79.8867 88.3966 79.8911 88.37 79.886 88.3443C79.8808 88.3187 79.8666 88.2959 79.8458 88.28C79.8251 88.2641 79.7993 88.2563 79.7732 88.2581Z" fill="#263238"/>
<path d="M91.9904 78.1578C89.6381 79.1495 87.4265 80.4463 85.4124 82.0149C83.4259 83.4135 81.6945 85.143 80.2936 87.1278C80.2278 87.2295 80.3593 87.3491 80.4431 87.2534C83.5826 83.8867 87.6729 81.3392 91.8051 79.3299C95.6502 77.4462 100.452 76.5911 104.136 79.3299C104.141 79.3375 104.148 79.3437 104.156 79.3481C104.165 79.3525 104.174 79.355 104.183 79.3552C104.192 79.3555 104.201 79.3536 104.21 79.3497C104.218 79.3459 104.226 79.3401 104.231 79.3328C104.237 79.3256 104.241 79.3171 104.243 79.308C104.245 79.2989 104.245 79.2896 104.243 79.2806C104.24 79.2716 104.236 79.2633 104.23 79.2563C104.224 79.2493 104.216 79.2438 104.208 79.2402C100.811 76.2981 95.9193 76.5672 91.9904 78.1578Z" fill="#263238"/>
<path d="M85.3765 108.321C85.3765 108.321 80.9752 102.227 78.2005 103.806C75.4258 105.385 78.7985 114.259 82.0994 115.431C82.5125 115.611 82.9576 115.705 83.408 115.708C83.8584 115.711 84.3047 115.623 84.7202 115.449C85.1358 115.276 85.5119 115.02 85.8261 114.697C86.1403 114.374 86.386 113.991 86.5485 113.571L85.3765 108.321Z" fill="#EB9481"/>
<path d="M79.229 106.324C79.1752 106.324 79.1692 106.395 79.229 106.413C81.5433 107.31 82.7871 109.403 83.6662 111.622C82.9725 110.785 82.0337 110.33 80.9034 111.162C80.8436 111.203 80.9034 111.299 80.9632 111.281C81.366 111.146 81.8007 111.139 82.2076 111.261C82.6145 111.383 82.9736 111.629 83.2356 111.963C83.6673 112.521 84.04 113.122 84.3479 113.757C84.4556 113.96 84.8263 113.847 84.7486 113.607C84.7475 113.591 84.7475 113.575 84.7486 113.56C84.7306 110.641 82.3865 106.575 79.229 106.324Z" fill="#263238"/>
<path d="M100.291 103.686C100.291 103.645 100.207 103.764 100.213 103.818C100.482 105.074 100.572 106.563 99.5013 107.185C99.4949 107.188 99.4894 107.192 99.4856 107.198C99.4818 107.204 99.4797 107.211 99.4797 107.218C99.4797 107.225 99.4818 107.231 99.4856 107.237C99.4894 107.243 99.4949 107.248 99.5013 107.251C100.883 106.796 100.745 104.841 100.291 103.686Z" fill="#263238"/>
<path d="M98.9272 102.568C96.87 102.778 97.4322 106.886 99.3398 106.695C101.247 106.503 100.655 102.395 98.9272 102.568Z" fill="#263238"/>
<path d="M107.532 102.203C107.532 102.156 107.64 102.251 107.646 102.305C107.784 103.579 108.154 105.02 109.362 105.295C109.398 105.295 109.404 105.367 109.362 105.367C107.927 105.355 107.455 103.435 107.532 102.203Z" fill="#263238"/>
<path d="M108.489 100.721C110.516 100.284 111.24 104.368 109.362 104.769C107.485 105.17 106.791 101.085 108.489 100.721Z" fill="#263238"/>
<path d="M97.0017 101.414C97.5198 101.18 98.0248 100.919 98.5146 100.63C99.0873 100.433 99.5776 100.05 99.9079 99.5421C99.9803 99.3635 99.9919 99.1662 99.9412 98.9803C99.8904 98.7945 99.78 98.6305 99.6269 98.5135C99.2854 98.3291 98.9009 98.2392 98.513 98.2528C98.1251 98.2665 97.7479 98.3833 97.4203 98.5913C96.6944 98.908 96.1124 99.4836 95.7877 100.206C95.7239 100.375 95.7104 100.559 95.7488 100.736C95.7872 100.913 95.8758 101.075 96.004 101.202C96.1323 101.33 96.2947 101.418 96.4717 101.455C96.6486 101.493 96.8327 101.478 97.0017 101.414Z" fill="#263238"/>
<path d="M109.482 98.4718C108.915 98.4343 108.35 98.3664 107.79 98.2685C107.184 98.2807 106.592 98.0937 106.103 97.7363C105.972 97.5945 105.891 97.4131 105.874 97.2204C105.856 97.0278 105.903 96.8348 106.008 96.6719C106.261 96.3798 106.589 96.1609 106.956 96.0379C107.323 95.9149 107.716 95.8922 108.095 95.9722C108.888 96.0112 109.638 96.3487 110.194 96.917C110.315 97.0523 110.394 97.2199 110.421 97.3994C110.448 97.5788 110.422 97.7623 110.347 97.9273C110.271 98.0924 110.149 98.2318 109.995 98.3285C109.842 98.4252 109.663 98.475 109.482 98.4718Z" fill="#263238"/>
<path d="M100.53 115.007C100.877 115.264 101.235 115.605 101.726 115.605C102.198 115.532 102.648 115.358 103.047 115.096C103.089 115.096 103.137 115.096 103.113 115.156C102.965 115.431 102.746 115.661 102.479 115.822C102.212 115.983 101.906 116.069 101.594 116.071C101.325 116.038 101.072 115.927 100.867 115.75C100.661 115.573 100.513 115.34 100.44 115.079C100.386 115.007 100.464 114.971 100.53 115.007Z" fill="#263238"/>
<path d="M101.343 111.012C101.735 111.471 102.218 111.844 102.762 112.108C103.305 112.371 103.897 112.519 104.501 112.543C105.027 112.57 105.554 112.522 106.067 112.399C106.167 112.383 106.264 112.359 106.36 112.328L106.635 112.244C106.701 112.222 106.757 112.179 106.796 112.122C106.835 112.065 106.854 111.996 106.851 111.927L106.821 111.796V111.682C106.707 110.701 106.408 109.224 106.408 109.224C106.791 109.356 108.728 109.924 108.633 109.415C107.795 105.229 106.869 100.541 105.152 96.5346C105.144 96.5036 105.123 96.4774 105.095 96.4617C105.067 96.446 105.034 96.4421 105.003 96.4508C104.972 96.4596 104.946 96.4802 104.93 96.5083C104.914 96.5363 104.91 96.5694 104.919 96.6003C105.565 100.673 106.916 104.602 107.628 108.68C106.939 108.464 106.222 108.349 105.499 108.339C105.368 108.399 106.127 111.186 106.145 111.628C106.146 111.644 106.146 111.66 106.145 111.676C104.53 112.112 103.221 111.784 101.469 110.899C101.343 110.821 101.253 110.922 101.343 111.012Z" fill="#263238"/>
<path d="M105.422 111.981C104.981 112.754 104.349 113.401 103.586 113.858C103.162 114.096 102.675 114.195 102.192 114.139C101.14 114.014 100.996 113.087 101.062 112.262C101.107 111.823 101.203 111.392 101.349 110.976C102.565 111.737 103.992 112.089 105.422 111.981Z" fill="#263238"/>
<path d="M103.586 113.858C103.162 114.096 102.675 114.195 102.192 114.14C101.14 114.014 100.996 113.087 101.062 112.262C102.168 112.226 103.346 112.812 103.586 113.858Z" fill="#FF9ABB"/>
</svg>
