<svg width="276" height="69" viewBox="0 0 276 69" fill="none" xmlns="http://www.w3.org/2000/svg">
<path d="M247.371 68.7586C243.681 68.7586 240.742 68.7586 240.742 66.4667L240.742 45.3822H218.557C216.319 45.3822 216.319 42.7327 216.319 39.3552C216.319 36.038 216.319 33.0749 218.557 33.0749H240.742L240.742 11.0394C240.742 8.74756 245.19 8.74756 247.022 8.74756C250.712 8.74756 253.765 8.74756 253.765 11.0394L253.765 33.0749H274.031C276.33 33.0749 275.981 36.038 275.981 39.3552C275.981 42.7327 276.33 45.3822 274.031 45.3822H253.765L253.765 66.4667C253.765 68.7586 251.122 68.7586 247.371 68.7586Z" fill="#FFD600"/>
<path d="M201.075 15.0056C198.872 15.0056 197.026 14.291 195.537 12.8619C194.049 11.4328 193.304 9.6762 193.304 7.59209C193.304 5.3889 194.049 3.57275 195.537 2.14365C197.026 0.71455 198.872 0 201.075 0C203.338 0 205.184 0.71455 206.613 2.14365C208.102 3.57275 208.846 5.3889 208.846 7.59209C208.846 9.6762 208.102 11.4328 206.613 12.8619C205.184 14.291 203.338 15.0056 201.075 15.0056ZM207.506 62.7911C207.506 66.7807 205.422 68.7755 201.254 68.7755C199.229 68.7755 197.622 68.2991 196.431 67.3464C195.24 66.3341 194.644 64.8157 194.644 62.7911V28.7606C194.644 26.8552 195.121 25.3665 196.073 24.2947C197.086 23.2229 198.753 22.687 201.075 22.687C203.397 22.687 205.035 23.2229 205.988 24.2947C207 25.3665 207.506 26.8552 207.506 28.7606V62.7911Z" fill="#1E1F24"/>
<path d="M166.443 68.7755C162.155 68.7755 160.012 66.7509 160.012 62.7018V28.85C160.012 24.7413 162.155 22.687 166.443 22.687C168.586 22.687 170.135 23.1634 171.087 24.1161C172.04 25.0093 172.516 26.4979 172.516 28.5821C173.588 26.617 175.107 25.1582 177.072 24.2054C179.096 23.1931 181.448 22.687 184.128 22.687C189.249 22.687 191.809 24.92 191.809 29.3859C191.809 31.0532 191.184 32.3037 189.934 33.1373C188.683 33.971 186.629 34.3878 183.771 34.3878C180.972 34.3878 178.769 34.6557 177.161 35.1916C175.553 35.668 174.422 36.591 173.767 37.9605C173.171 39.2705 172.874 41.176 172.874 43.6769V62.7018C172.874 66.7509 170.73 68.7755 166.443 68.7755Z" fill="#1E1F24"/>
<path d="M141.385 68.7754C135.847 68.7754 131.738 67.4654 129.059 64.8454C126.439 62.2254 125.129 58.206 125.129 52.7874V34.2091H122.806C118.757 34.2091 116.733 32.3929 116.733 28.7606C116.733 25.1879 118.757 23.4015 122.806 23.4015H125.129V13.7551C125.129 11.79 125.724 10.1823 126.915 8.93184C128.165 7.68138 129.773 7.05615 131.738 7.05615C133.644 7.05615 135.162 7.65161 136.293 8.84253C137.425 9.9739 137.99 11.5519 137.99 13.5764V17.953C137.99 20.1562 137.633 21.9724 136.919 23.4015H145.404C149.453 23.4015 151.478 25.1879 151.478 28.7606C151.478 32.3929 149.453 34.2091 145.404 34.2091H137.99V53.0553C137.99 54.8417 138.199 56.1219 138.616 56.896C139.032 57.6106 139.717 57.9679 140.67 57.9679C141.92 57.9679 142.843 57.8785 143.439 57.6999C144.094 57.4617 144.898 57.3426 145.85 57.3426C147.458 57.3426 148.738 57.6404 149.691 58.2358C150.644 58.7717 151.12 59.9031 151.12 61.6299C151.12 64.0713 150.346 65.8875 148.798 67.0784C147.25 68.2098 144.779 68.7754 141.385 68.7754Z" fill="#1E1F24"/>
<path d="M92.613 68.7754C88.683 68.7754 85.2293 67.9715 82.252 66.3638C79.2747 64.7561 76.9524 62.4933 75.2851 59.5756C73.6774 56.6578 72.8735 53.2637 72.8735 49.3932V28.4926C72.8735 24.4435 75.0172 22.4189 79.3045 22.4189C83.5918 22.4189 85.7354 24.4435 85.7354 28.4926V49.2146C85.7354 52.0132 86.3309 54.1867 87.5218 55.7349C88.7127 57.283 90.4098 58.0571 92.613 58.0571C94.8162 58.0571 96.5132 57.283 97.7042 55.7349C98.8951 54.1867 99.4905 52.0132 99.4905 49.2146V28.4926C99.4905 24.4435 101.634 22.4189 105.921 22.4189C110.209 22.4189 112.352 24.4435 112.352 28.4926V49.3932C112.352 53.2637 111.519 56.6578 109.852 59.5756C108.244 62.4933 105.951 64.7561 102.974 66.3638C100.056 67.9715 96.6026 68.7754 92.613 68.7754Z" fill="#1E1F24"/>
<path fill-rule="evenodd" clip-rule="evenodd" d="M36.8963 36.252C36.9079 36.4442 36.9137 36.6422 36.9137 36.846V48.0272C36.9137 50.6419 37.143 52.7497 37.6017 54.3506C38.0604 55.9515 38.9267 57.1255 40.2008 57.8726C41.4748 58.6196 43.3093 58.9932 43.3093 58.9932C46.367 58.9932 48.5329 58.1394 49.807 56.4318C51.132 54.7775 51.7945 51.976 51.7945 48.0272V12.2365C51.7945 10.4755 52.3041 9.14144 53.3233 8.23428C54.3426 7.32712 55.7186 6.87354 57.4513 6.87354C61.0186 6.87354 62.8023 8.66118 62.8023 12.2365V48.0272C62.8023 55.6046 61.146 60.9409 57.8335 64.0359C54.5719 67.1843 49.7305 68.7585 43.3093 68.7585C40.8633 68.7585 36.9902 68.0648 34.0853 66.6774C31.1805 65.29 29.0911 63.0754 27.817 60.0337C26.543 57.0454 25.9059 53.0432 25.9059 48.0272V42.6072C25.8943 42.4291 25.8885 42.2462 25.8885 42.0584V28.0832C25.8885 24.1344 25.226 21.3328 23.901 19.6786C22.627 17.971 20.4611 17.1172 17.4034 17.1172C17.4034 17.1172 15.5689 17.4907 14.2948 18.2378C13.0208 18.9849 12.1544 20.1589 11.6958 21.7597C11.2371 23.3606 11.0078 25.4684 11.0078 28.0832L11.0078 63.2512C11.0078 66.8265 9.22412 68.6141 5.65679 68.6141C3.92408 68.6141 2.54811 68.1605 1.52887 67.2534C0.50963 66.3462 1.06102e-05 65.0121 1.06102e-05 63.2512L0 28.0832C0 23.0671 0.637024 19.0649 1.91107 16.0766C3.18512 13.035 5.27456 10.8204 8.17939 9.43299C11.0842 8.04557 14.9573 7.35185 17.4034 7.35185C23.8246 7.35185 28.666 8.92605 31.9275 12.0744C35.2401 15.1695 36.8963 20.5057 36.8963 28.0832V36.252Z" fill="#1E1F24"/>
</svg>
